<svg width="155" height="159" viewBox="0 0 155 159" fill="none" xmlns="http://www.w3.org/2000/svg">
<circle cx="71.5" cy="71.5" r="71" stroke="black"/>
<circle cx="83.5" cy="76.5" r="71" stroke="#E06D5A"/>
<circle cx="78.5" cy="76.5" r="71.5" fill="#E06D5A"/>
<path d="M98.0353 68.1819L95.3714 75.4585C95.0441 76.3523 95.2529 77.3543 95.9099 78.0433C96.5669 78.732 97.5581 78.988 98.4663 78.7037L105.779 76.4133C109.844 79.0917 114.723 80.481 119.611 80.481C122.828 80.481 126.049 79.8787 129.043 78.6465C139.513 74.2823 145.663 63.3865 143.998 52.1502C143.028 45.6031 139.567 39.8259 134.253 35.8827C128.939 31.9398 122.406 30.3031 115.859 31.2723C109.312 32.2423 103.534 35.7035 99.5913 41.0179C95.6484 46.3326 94.0109 52.8649 94.9811 59.4121C95.4439 62.536 96.4699 65.4802 98.0353 68.1819ZM103.607 43.9971C106.754 39.7552 111.365 36.9925 116.591 36.2182C121.818 35.4443 127.032 36.7507 131.274 39.8982C135.515 43.0454 138.278 47.6568 139.052 52.8827C140.381 61.8523 135.474 70.5489 127.129 74.0271C120.781 76.6403 113.153 75.709 107.696 71.6536C107.059 71.1806 106.215 71.0376 105.458 71.2746L101.81 72.4171L103.147 68.7652C103.417 68.0264 103.324 67.2037 102.896 66.544C101.346 64.158 100.347 61.5118 99.9273 58.6793C99.1526 53.4534 100.46 48.2393 103.607 43.9971Z" fill="#1E1E20"/>
<path d="M123.509 93.378C117.863 89.3756 109.76 87.1201 100.803 87.1201C100.771 87.1201 100.737 87.1201 100.704 87.1201C99.3231 87.1226 98.2058 88.2441 98.2086 89.6248C98.2111 91.004 99.3298 92.1203 100.709 92.12C112.392 92.2385 123.598 96.5037 129.287 107.238C129.919 108.432 131.472 108.909 132.666 108.276C133.886 107.63 134.351 106.117 133.704 104.897C131.663 101.044 129.109 98.2271 127.368 96.5707C133.135 90.0703 141.412 86.1474 149.038 86.4476C150.411 86.4991 151.579 85.4271 151.634 84.0474C151.688 82.6677 150.613 81.5057 149.233 81.4514C139.961 81.0882 130.308 85.6109 123.509 93.378Z" fill="#1E1E20"/>
<path d="M38.5486 122.473C39.1854 122.739 39.7181 122.982 40.1319 123.197C41.1481 123.724 44.6783 125.713 47.4295 129.172C53.4164 136.699 65.6844 142.649 80.2467 145.09C93.0204 147.231 107.262 146.881 118.605 139.962C128.032 154.706 147.773 158.778 148.649 158.952C148.813 158.985 148.977 159 149.138 159C150.305 159 151.349 158.177 151.586 156.989C151.856 155.636 150.977 154.32 149.625 154.048C149.431 154.01 131.007 150.176 122.748 137.152C123.444 136.561 124.268 135.817 125.089 134.969C127.249 136.482 131.003 138.544 135.907 139.026C137.281 139.16 138.504 138.156 138.639 136.782C138.774 135.407 137.77 134.185 136.395 134.05C130.429 133.464 126.568 129.778 126.538 129.749C125.496 128.719 123.703 128.834 122.804 129.996C113.511 142.003 94.6134 142.427 81.0734 140.158C67.8959 137.95 56.5036 132.547 51.3427 126.059C48.067 121.941 44.0213 119.582 42.4341 118.758C41.8976 118.48 41.2381 118.177 40.4736 117.859C37.9897 116.822 36.5764 114.173 37.1132 111.559C37.2592 110.848 37.4392 110.102 37.6132 109.38C37.8319 108.473 38.0579 107.535 38.2299 106.623L50.3727 44.5091C50.6272 43.2076 51.5159 42.1414 52.7501 41.6566L66.2822 36.341C67.7916 35.7482 69.4926 35.9395 70.8323 36.8522L79.0954 42.4821C81.3049 43.9876 81.8966 47.0225 80.4142 49.2478L76.4042 55.2664C75.4935 56.6334 73.9693 57.4494 72.3268 57.4494H66.4237L65.7992 53.8942C65.7057 53.3617 65.9419 52.9842 66.0912 52.8064C66.2404 52.6287 66.5712 52.3307 67.1116 52.3307H70.4886C71.8693 52.3307 72.9885 51.2115 72.9885 49.8307C72.9885 48.45 71.8693 47.3308 70.4886 47.3308H67.1116C65.2359 47.3308 63.4685 48.1545 62.2622 49.5913C61.056 51.028 60.5503 52.9114 60.8748 54.7589L61.8625 60.3818C61.8672 60.4091 61.8747 60.4353 61.8805 60.4623C61.884 60.4788 61.8852 60.4953 61.889 60.5116C61.9495 60.7733 67.8894 86.9248 64.0402 106.921C63.8134 108.099 64.4569 109.27 65.5714 109.713C66.6859 110.158 67.9601 109.745 68.6054 108.734C68.6469 108.669 72.8463 102.18 80.9921 97.3727C82.1811 96.6709 82.5761 95.1382 81.8746 93.949C81.1729 92.76 79.6402 92.3648 78.4509 93.0667C75.0225 95.09 72.2271 97.3597 70.0573 99.4294C71.2161 84.4824 68.6599 68.9134 67.4004 62.4493H72.327C75.6455 62.4493 78.7254 60.8003 80.5654 58.0386L84.5753 52.02C87.5705 47.5243 86.3753 41.3919 81.9109 38.3502L73.6478 32.7203C70.9408 30.8758 67.5039 30.4893 64.4544 31.6873L50.9222 37.0027C48.0895 38.1152 46.0498 40.5627 45.4658 43.5496L33.3195 105.68C33.1677 106.485 32.9657 107.322 32.7522 108.208C32.5685 108.971 32.3783 109.759 32.2153 110.554C31.1985 115.506 33.862 120.519 38.5486 122.473Z" fill="#1E1E20"/>
<path d="M101.493 123.218C91.6947 129.044 79.3324 123.178 79.2087 123.119C77.9694 122.515 76.4747 123.03 75.869 124.269C75.2625 125.509 75.7765 127.006 77.017 127.613C77.4125 127.806 83.7066 130.818 91.423 130.818C95.4561 130.818 99.8786 129.995 104.048 127.515C105.235 126.81 105.625 125.276 104.919 124.089C104.213 122.902 102.68 122.512 101.493 123.218Z" fill="#1E1E20"/>
<path d="M87.4975 91.9383C88.3805 94.0581 91.5288 93.9038 92.1975 91.7083C92.8433 89.5886 90.4908 87.7261 88.574 88.8081C87.4903 89.4201 87.0188 90.7891 87.4975 91.9383Z" fill="#1E1E20"/>
<path d="M109.288 60.4566L117.849 68.0179C118.782 68.8424 120.225 68.8424 121.158 68.0179L129.764 60.4171C129.767 60.4148 129.769 60.4128 129.771 60.4106C131.758 58.7781 132.895 56.3789 132.895 53.8052C132.895 49.0905 129.059 45.2546 124.344 45.2546C122.604 45.2546 120.913 45.7958 119.501 46.7638C118.09 45.7958 116.399 45.2546 114.658 45.2546C109.943 45.2546 106.108 49.0903 106.108 53.8052C106.108 56.4029 107.266 58.8231 109.288 60.4566ZM114.658 50.2545C115.787 50.2545 116.823 50.7735 117.502 51.678C117.974 52.3075 118.715 52.6779 119.501 52.6779C120.288 52.6779 121.029 52.3075 121.501 51.678C122.18 50.7732 123.216 50.2542 124.345 50.2542C126.302 50.2542 127.895 51.847 127.895 53.8049C127.895 54.8924 127.405 55.9056 126.551 56.5851C126.486 56.6366 126.424 56.6911 126.365 56.7481L119.504 62.8085L112.553 56.6694C112.521 56.6406 112.487 56.6129 112.454 56.5861C111.599 55.9064 111.108 54.8929 111.108 53.8049C111.108 51.8472 112.701 50.2545 114.658 50.2545Z" fill="#1E1E20"/>
</svg>
