<svg width="155" height="148" viewBox="0 0 155 148" fill="none" xmlns="http://www.w3.org/2000/svg">
<circle cx="71.5" cy="71.5" r="71" stroke="black"/>
<circle cx="83.5" cy="76.5" r="71" stroke="#E06D5A"/>
<circle cx="78.5" cy="76.5" r="71.5" fill="#E06D5A"/>
<path d="M88.8895 125.136L77.06 116.146C76.563 115.769 75.243 114.767 73.86 115.455C72.4907 116.135 72.4907 117.73 72.4907 118.255V121.81C48.7458 121.338 29.5763 101.868 29.5763 78.003C29.5763 74.2587 26.5312 71.2125 22.7882 71.2125C19.0452 71.2125 16 74.2587 16 78.003C16 91.382 20.6985 104.402 29.2302 114.665C29.8922 115.461 31.074 115.57 31.8697 114.908C32.6657 114.246 32.7743 113.064 32.1125 112.267C24.1395 102.676 19.7487 90.5077 19.7487 78.003C19.7487 76.3265 21.1122 74.9622 22.7882 74.9622C24.4642 74.9622 25.8277 76.3262 25.8277 78.003C25.8277 104.231 47.1575 125.569 73.3753 125.569C74.0775 125.569 74.9518 125.569 75.6338 124.812C76.2395 124.139 76.2395 123.389 76.2393 122.595V120.231L86.6225 128.122C86.9637 128.382 87.045 128.573 87.048 128.609C87.045 128.646 86.9638 128.837 86.622 129.097L76.2462 136.983V134.647C76.2462 133.848 76.2462 133.093 75.6482 132.42C74.9645 131.65 74.0832 131.65 73.375 131.65C60.6372 131.65 48.2882 127.104 38.6035 118.85C37.8158 118.179 36.6327 118.273 35.9613 119.062C35.29 119.85 35.3845 121.033 36.1725 121.705C46.3123 130.346 59.181 135.189 72.4977 135.393V138.964C72.4977 139.489 72.4977 141.087 73.8698 141.766C74.2075 141.933 74.5408 142 74.859 142C75.847 142 76.6895 141.356 77.0612 141.072L88.889 132.083C90.1192 131.149 90.7968 129.915 90.7965 128.609C90.7965 127.304 90.119 126.07 88.8895 125.136Z" fill="black"/>
<path d="M114.078 37.5475C113.348 36.8127 112.162 36.8092 111.428 37.539C110.693 38.2687 110.69 39.456 111.419 40.1905C121.468 50.307 127.002 63.7357 127.002 78.0032C127.002 79.6797 125.638 81.044 123.962 81.044C122.286 81.044 120.923 79.68 120.923 78.0032C120.923 51.7715 99.5928 30.4302 73.375 30.4302C72.6652 30.4302 71.782 30.4302 71.098 31.205C70.5037 31.8777 70.5038 32.6337 70.5038 33.458V35.7625L60.1275 27.8767C59.79 27.6205 59.707 27.426 59.7045 27.3925C59.7067 27.3575 59.7895 27.1605 60.128 26.9022L70.5107 19.0112V21.3525C70.5107 22.1447 70.5108 22.893 71.09 23.562C71.772 24.3492 72.681 24.347 73.3747 24.349C84.785 24.349 95.6842 27.8887 104.895 34.5857C105.732 35.195 106.904 35.0092 107.512 34.1715C108.121 33.334 107.936 32.1612 107.099 31.5525C97.4868 24.5635 86.1555 20.788 74.2592 20.606V17.035C74.2592 16.5107 74.2593 14.9152 72.89 14.235C71.5067 13.548 70.1867 14.549 69.6885 14.9267L57.8575 23.9185C56.6297 24.8552 55.9545 26.0902 55.9557 27.3965C55.9572 28.7007 56.6337 29.932 57.8602 30.8632L69.6898 39.8537C70.1862 40.2302 71.505 41.2305 72.885 40.5452C74.252 39.866 74.252 38.2692 74.252 37.7447V34.189C97.9993 34.6585 117.174 54.1327 117.174 78.0032C117.174 81.7475 120.219 84.7937 123.962 84.7937C127.704 84.7937 130.75 81.7475 130.75 78.0032C130.75 62.7387 124.829 48.3712 114.078 37.5475Z" fill="black"/>
<path d="M86.0383 68.7645C86.04 66.9255 85.3252 65.1967 84.0257 63.897C82.728 62.5985 81.003 61.8835 79.1687 61.8835C77.3345 61.8835 75.6095 62.5985 74.3118 63.8967C73.0123 65.1967 72.2975 66.9252 72.2993 68.7642C72.301 70.5997 73.0165 72.323 74.3118 73.614C75.6095 74.9122 77.3345 75.6272 79.1687 75.6272C81.002 75.6272 82.7258 74.9132 84.023 73.6165C85.321 72.323 86.0365 70.6 86.0383 68.7645ZM81.3777 70.96L81.3753 70.9625C80.7855 71.5525 80.002 71.8775 79.169 71.8775C78.336 71.8775 77.5525 71.5525 76.9603 70.9602C76.3727 70.3747 76.0487 69.5937 76.0482 68.761C76.0475 67.925 76.3723 67.1392 76.9628 66.5485C77.5525 65.9585 78.336 65.6335 79.169 65.6335C80.002 65.6335 80.7853 65.9585 81.3753 66.5485C81.9658 67.1392 82.2905 67.925 82.2897 68.761C82.289 69.5935 81.965 70.3745 81.3777 70.96Z" fill="black"/>
<path d="M101.818 86.2035C103.085 82.9942 103.728 79.6067 103.728 76.1075C103.728 60.9167 91.377 48.558 76.1957 48.558C71.4182 48.558 66.7998 49.7807 62.6883 52.1057C62.2348 51.0225 61.571 50.0075 60.6925 49.1267C57.0563 45.498 51.1398 45.4977 47.5003 49.13C43.873 52.7675 43.873 58.6865 47.5035 62.3272C48.5715 63.3932 49.8368 64.1435 51.1828 64.583C49.5298 68.1747 48.664 72.1105 48.664 76.1075C48.664 77.4972 48.7693 78.8832 48.9738 80.2492C47.222 80.6182 45.6135 81.4845 44.322 82.7795C42.5595 84.5382 41.5883 86.8782 41.5868 89.368C41.5853 91.8612 42.556 94.2062 44.3188 95.9697C46.0783 97.7342 48.4203 98.706 50.913 98.706C53.3163 98.706 55.5778 97.8005 57.314 96.1542C62.4 100.941 69.1687 103.65 76.1957 103.65C78.8742 103.65 81.503 103.263 84.0368 102.51C84.618 103.653 85.3832 104.727 86.3382 105.682C88.7028 108.048 91.8463 109.351 95.1898 109.351C98.533 109.351 101.676 108.048 104.041 105.682C108.922 100.8 108.922 92.8555 104.041 87.9727C103.361 87.292 102.614 86.7025 101.818 86.2035ZM50.1513 51.7817C51.24 50.6952 52.6698 50.1525 54.0995 50.1525C55.5278 50.1525 56.956 50.6947 58.042 51.7785C60.2125 53.9552 60.2133 57.497 58.0435 59.6745C55.8668 61.8452 52.3268 61.8442 50.1543 59.676C47.9833 57.4985 47.9833 53.9557 50.1513 51.7817ZM54.8535 93.3215C53.8022 94.3757 52.403 94.9562 50.9133 94.9562C49.4235 94.9562 48.024 94.3757 46.9713 93.32C45.9155 92.264 45.3348 90.8612 45.3355 89.3705C45.3363 87.883 45.9168 86.4852 46.9728 85.4312C48.024 84.377 49.4233 83.7965 50.913 83.7965C52.4028 83.7965 53.8022 84.377 54.8565 85.4345C55.9095 86.4852 56.4898 87.8832 56.4908 89.3705C56.4915 90.8612 55.9108 92.2637 54.855 93.32L54.8535 93.3215ZM76.196 99.9002C69.942 99.9002 63.9248 97.4162 59.4898 93.0447C59.981 91.8977 60.2403 90.653 60.2395 89.3682C60.238 86.8785 59.2665 84.5385 57.5075 82.783C56.1922 81.4642 54.5518 80.5887 52.7663 80.2302C52.532 78.8755 52.413 77.494 52.413 76.1077C52.413 72.2142 53.3635 68.391 55.166 64.986C57.1868 64.7555 59.1465 63.871 60.6933 62.3275L60.6965 62.3242C62.43 60.5857 63.3328 58.3262 63.409 56.0435C67.2303 53.5972 71.63 52.3082 76.1965 52.3082C89.3108 52.3082 99.98 62.9847 99.98 76.1077C99.98 79.09 99.4398 81.9772 98.3765 84.7142C97.349 84.4455 96.2807 84.3045 95.1905 84.3045C91.8473 84.3045 88.7038 85.6072 86.339 87.9727C83.3585 90.9545 82.2018 95.0775 82.8615 98.9482C80.7068 99.5767 78.4727 99.9002 76.196 99.9002ZM101.391 103.031C99.7342 104.688 97.5322 105.601 95.19 105.601C92.848 105.601 90.6458 104.688 88.9893 103.031C85.5703 99.6105 85.5703 94.045 88.9893 90.6242C90.646 88.967 92.848 88.0542 95.19 88.0542C97.532 88.0542 99.7342 88.9667 101.391 90.6242C104.81 94.045 104.81 99.6105 101.391 103.031Z" fill="black"/>
</svg>
