<svg width="155" height="148" viewBox="0 0 155 148" fill="none" xmlns="http://www.w3.org/2000/svg">
<circle cx="71.5" cy="71.5" r="71" stroke="black"/>
<circle cx="83.5" cy="76.5" r="71" stroke="#E06D5A"/>
<circle cx="78.5" cy="76.5" r="71.5" fill="#E06D5A"/>
<path d="M147.489 76.9437H134.638C135.821 73.4118 136.438 69.6732 136.438 65.8397C136.438 56.5336 132.814 47.7843 126.233 41.2037C119.742 34.7125 111.113 31.0894 101.935 31.0015C93.5564 30.9277 85.5739 33.7943 79.2191 39.1357C72.9504 33.8669 65.1017 31 56.845 31C56.7314 31 56.6172 31.0005 56.5036 31.0015C47.3254 31.0894 38.6959 34.7125 32.2047 41.2037C25.6241 47.7846 22 56.5338 22 65.8397C22 75.146 25.6241 83.8953 32.2044 90.4757L41.015 99.2862C41.9958 100.267 43.586 100.267 44.567 99.2862C45.5478 98.3055 45.5478 96.7152 44.567 95.7342L35.7565 86.9237C30.1247 81.2921 27.023 73.8044 27.023 65.8397C27.023 57.8752 30.1247 50.3875 35.7565 44.7557C41.3116 39.2005 48.6969 36.0996 56.5516 36.0245C64.3985 35.9409 71.8278 38.8964 77.4799 44.322C78.4518 45.255 79.9864 45.255 80.9586 44.322C86.6104 38.8961 94.0432 35.9451 101.887 36.0245C109.742 36.0996 117.127 39.2005 122.682 44.7557C128.314 50.3875 131.415 57.8752 131.415 65.8397C131.415 69.7064 130.682 73.4598 129.286 76.9437H108.201L104.119 72.6596C103.171 71.6651 101.6 71.6166 100.592 72.5511L95.859 76.9435H89.6478C88.6708 76.9435 87.7825 77.5101 87.3704 78.3961L86.0772 81.1774L82.2311 57.8353C82.0312 56.6228 80.9834 55.7329 79.7543 55.7322C79.7538 55.7322 79.7535 55.7322 79.753 55.7322C78.5247 55.7322 77.4766 56.6207 77.2754 57.8325L73.5002 80.5879L69.8588 77.5312C69.4064 77.1514 68.8346 76.9432 68.2439 76.9432H64.2461L61.4116 74.5812C60.4803 73.8054 59.1274 73.8049 58.1959 74.5812L55.3614 76.9432H51.5598C50.1727 76.9432 49.0483 78.0679 49.0483 79.4547C49.0483 80.8416 50.1727 81.9662 51.5598 81.9662H56.2706C56.858 81.9662 57.4269 81.7603 57.8784 81.3843L59.8037 79.7797L61.7291 81.3843C62.1804 81.7603 62.7492 81.9662 63.3369 81.9662H67.3294L73.6423 87.2657C74.333 87.8459 75.2816 88.0109 76.1277 87.698C76.9736 87.3853 77.5871 86.6431 77.7346 85.7533L79.7442 73.6399L82.4441 90.0259C82.6232 91.1131 83.4901 91.9567 84.5819 92.1056C84.6964 92.1212 84.8102 92.129 84.9235 92.129C85.8894 92.129 86.7837 91.5707 87.1996 90.6766L91.2494 81.9665H96.8445C97.4781 81.9665 98.0884 81.7269 98.5528 81.2959L102.192 77.919L105.306 81.1877C105.78 81.6849 106.437 81.9667 107.125 81.9667H126.688C125.547 83.7338 124.211 85.3934 122.69 86.9164C122.685 86.9212 122.68 86.9257 122.675 86.9304C122.611 86.9945 115.367 94.2391 106.694 102.912L82.0729 127.533C80.4995 129.107 77.9387 129.106 76.3645 127.532L60.5504 111.717C59.5697 110.737 57.9794 110.737 56.9984 111.717C56.0177 112.698 56.0177 114.288 56.9984 115.269L72.8128 131.084C74.5794 132.85 76.8995 133.733 79.2198 133.733C81.5395 133.733 83.8588 132.851 85.6247 131.085L110.246 106.464C124.498 92.2121 126.042 90.6673 126.217 90.492C126.223 90.4867 126.228 90.4812 126.234 90.4759C128.777 87.933 130.876 85.0649 132.498 81.967H147.489C148.876 81.967 150.001 80.8423 150.001 79.4555C150.001 78.0686 148.876 76.9437 147.489 76.9437Z" fill="black"/>
<path d="M50.7827 108.014C52.1698 108.014 53.2942 106.889 53.2942 105.502C53.2942 104.115 52.1698 102.991 50.7827 102.991C49.3956 102.991 48.2712 104.115 48.2712 105.502C48.2712 106.889 49.3956 108.014 50.7827 108.014Z" fill="black"/>
</svg>
