<svg width="155" height="159" viewBox="0 0 155 159" fill="none" xmlns="http://www.w3.org/2000/svg">
<circle cx="71.5" cy="71.5" r="71" stroke="black"/>
<circle cx="83.5" cy="76.5" r="71" stroke="#8E9E82"/>
<circle cx="78.5" cy="76.5" r="71.5" fill="#788967"/>
<path d="M78.858 55.9875C85.0837 55.9875 90.1489 50.9223 90.1489 44.6966V40.3682C90.1489 35.3286 86.0487 31.2284 81.0091 31.2284H76.7069C71.6673 31.2284 67.5671 35.3286 67.5671 40.3682V44.6966C67.5674 50.9226 72.6323 55.9875 78.858 55.9875ZM71.3175 40.3682C71.3175 37.3964 73.7353 34.9786 76.7072 34.9786H81.0093C83.9812 34.9786 86.399 37.3964 86.399 40.3682V44.6966C86.399 48.8545 83.0164 52.2374 78.8582 52.2374C74.7001 52.2374 71.3175 48.8548 71.3175 44.6966V40.3682Z" fill="black"/>
<path d="M97.1581 68.7429L121.399 44.5011C122.893 43.0073 123.716 41.0205 123.716 38.907C123.716 36.7931 122.893 34.8066 121.399 33.3118C118.313 30.2292 113.294 30.2294 110.211 33.3125L108.272 35.2516C107.539 35.9839 107.54 37.1711 108.272 37.9032C109.004 38.6354 110.192 38.6354 110.924 37.9029L112.862 35.9641C114.484 34.3425 117.124 34.343 118.748 35.9641C119.533 36.7499 119.966 37.7949 119.966 38.907C119.966 40.0187 119.533 41.0638 118.748 41.8498L101.711 58.8886L95.8258 53.0032L104.643 44.1844C105.376 43.4521 105.375 42.2648 104.643 41.5328C103.911 40.8005 102.724 40.8005 101.992 41.533L88.9928 54.5322C86.2857 57.2383 82.6869 58.7286 78.859 58.7286C75.0304 58.7286 71.4307 57.2376 68.7234 54.5305L47.5055 33.3125C44.4221 30.2294 39.4034 30.2292 36.3168 33.3125C34.8228 34.8066 34 36.7931 34 38.907C34 41.0205 34.823 43.0073 36.3168 44.5011L60.5586 68.7429C61.2602 69.4445 61.6464 70.3772 61.6464 71.369V75.2069C58.1273 79.2938 56.0937 84.5735 56.0937 90.0877C56.0937 101.864 65.0815 111.579 76.5577 112.736L70.2567 141.775L57.8755 141.776L62.7047 113.853C62.8812 112.832 62.1972 111.862 61.1767 111.686C60.1556 111.509 59.1858 112.193 59.0096 113.214L53.8402 143.104L49.9573 151.885C49.2625 153.458 49.4085 155.258 50.3478 156.699C51.2866 158.14 52.8729 159 54.5909 159H65.7916C68.6157 159 71.0177 156.907 71.4162 154.117L78.8585 119.82L86.3007 154.117C86.699 156.907 89.1013 159 91.9254 159H103.126C104.844 159 106.43 158.14 107.369 156.699C108.308 155.258 108.454 153.458 107.759 151.884L103.877 143.104L97.0683 103.734C99.9272 99.929 101.623 95.2028 101.623 90.0879C101.623 84.4032 99.5287 79.1983 96.0708 75.2049C96.1908 73.3158 95.538 70.3215 97.1581 68.7429ZM37.7501 38.9067C37.7501 37.7947 38.1829 36.7496 38.9679 35.9646C39.7802 35.1533 40.8462 34.7478 41.9123 34.7478C42.9778 34.7478 44.0433 35.1533 44.8541 35.9639L61.8934 53.0032L56.008 58.8886L38.9684 41.8493C38.1829 41.0638 37.7501 40.0187 37.7501 38.9067ZM67.7076 153.556C67.5854 154.522 66.7613 155.25 65.7913 155.25H54.5907C53.9484 155.25 53.6067 154.832 53.4894 154.652C53.3721 154.472 53.1274 153.99 53.3871 153.401L56.8693 145.526L69.4427 145.526L67.7354 153.395C67.7239 153.448 67.7146 153.502 67.7076 153.556ZM93.8602 107.194L99.8407 141.776H87.4598L81.1586 112.736C85.9977 112.249 90.3934 110.238 93.8602 107.194ZM104.227 154.652C104.11 154.832 103.768 155.25 103.126 155.25H91.9249C90.9549 155.25 90.1309 154.522 90.0086 153.556C90.0019 153.502 89.9926 153.448 89.9809 153.395L88.2736 145.527H100.847L104.329 153.4C104.589 153.989 104.344 154.472 104.227 154.652ZM78.858 109.102C68.3734 109.102 59.8436 100.572 59.8436 90.0877C59.8436 83.4049 63.419 77.1335 69.1744 73.7204C70.0649 73.1921 70.359 72.0418 69.8307 71.151C69.3024 70.2605 68.1526 69.9665 67.2614 70.4948C66.6163 70.8773 65.9941 71.29 65.396 71.73C65.4918 69.9195 64.7248 67.5824 63.2097 66.0911L58.6596 61.5405L64.545 55.655L66.0718 57.1818C69.4874 60.5974 74.0288 62.4785 78.859 62.4785C83.6882 62.4785 88.2288 60.5982 91.6439 57.1841L93.1737 55.6548L99.0592 61.5402L94.507 66.0909C93.1772 67.3809 92.2194 69.6525 92.3197 71.7423C88.5466 68.9662 83.8909 67.3234 78.858 67.3234C77.8887 67.3234 76.9134 67.3851 75.9586 67.5064C74.9314 67.6372 74.2046 68.5759 74.3353 69.6032C74.4661 70.6305 75.4039 71.3578 76.4322 71.2265C77.2302 71.125 78.0465 71.0735 78.858 71.0735C89.3426 71.0735 97.8721 79.6033 97.8721 90.0877C97.8721 100.572 89.3426 109.102 78.858 109.102Z" fill="black"/>
<path d="M87.4665 79.6021C85.9612 79.6021 84.5462 80.1883 83.4821 81.2526L76.3542 88.3806L72.937 84.9632C70.74 82.7664 67.1651 82.7664 64.968 84.9635C62.771 87.1603 62.771 90.7352 64.968 92.9322L72.1048 100.069C73.2763 101.24 74.8151 101.826 76.3542 101.826C77.8932 101.826 79.432 101.24 80.6035 100.069L91.4512 89.2214C92.5154 88.1571 93.1017 86.742 93.1017 85.2367C93.1017 83.7317 92.5157 82.3166 91.4512 81.2524C90.3866 80.1883 88.9716 79.6021 87.4665 79.6021ZM88.7991 86.5695L77.9515 97.4172C77.0707 98.2979 75.6371 98.2979 74.7564 97.4172L67.6199 90.2807C66.8851 89.5459 66.8851 88.3501 67.6199 87.6153C67.9874 87.2478 68.4699 87.0641 68.9527 87.0641C69.4352 87.0641 69.9179 87.2478 70.2855 87.6151L74.4313 91.761C75.4916 92.8212 77.2169 92.8212 78.2772 91.761L86.1342 83.9042C86.49 83.5482 86.9633 83.3522 87.4668 83.3522C87.9703 83.3522 88.4436 83.5482 88.7996 83.9042C89.1556 84.2602 89.3516 84.7335 89.3516 85.237C89.3516 85.7405 89.1551 86.2138 88.7991 86.5695Z" fill="black"/>
</svg>
