<svg width="155" height="148" viewBox="0 0 155 148" fill="none" xmlns="http://www.w3.org/2000/svg">
<circle cx="71.5" cy="71.5" r="71" stroke="black"/>
<circle cx="83.5" cy="76.5" r="71" stroke="#D8B345"/>
<circle cx="78.5" cy="76.5" r="71.5" fill="#E8C05B"/>
<path d="M22.875 132.75C21.8392 132.75 21 133.589 21 134.625V136.125C21 137.161 21.8392 138 22.875 138C23.9107 138 24.75 137.161 24.75 136.125V134.625C24.75 133.589 23.9107 132.75 22.875 132.75Z" fill="black"/>
<path d="M29.422 103.68C29.7792 103.998 30.2242 104.155 30.6675 104.155C31.184 104.155 31.6985 103.942 32.0687 103.526C32.638 102.886 33.242 102.265 33.864 101.68C34.618 100.97 34.6537 99.7834 33.944 99.0292C33.2342 98.2752 32.0475 98.2397 31.2935 98.9492C30.5915 99.6099 29.9097 100.311 29.2675 101.033C28.5792 101.807 28.6482 102.992 29.422 103.68Z" fill="black"/>
<path d="M26.2515 108.599C25.3047 108.18 24.1972 108.608 23.778 109.555C23.387 110.438 23.0315 111.35 22.7212 112.265C22.3887 113.246 22.914 114.31 23.8947 114.643C24.0942 114.71 24.2972 114.742 24.497 114.742C25.2782 114.742 26.0078 114.25 26.2725 113.469C26.5468 112.66 26.861 111.854 27.207 111.072C27.6262 110.125 27.1985 109.018 26.2515 108.599Z" fill="black"/>
<path d="M42.3315 92.0882C41.4258 92.4249 40.525 92.8064 39.6543 93.2219C38.7198 93.6677 38.3235 94.7869 38.7695 95.7214C39.091 96.3954 39.7628 96.7894 40.4628 96.7894C40.7335 96.7894 41.0085 96.7307 41.269 96.6062C42.0398 96.2384 42.8368 95.9012 43.6383 95.6032C44.609 95.2424 45.1033 94.1627 44.7425 93.1922C44.3818 92.2219 43.3015 91.7269 42.3315 92.0882Z" fill="black"/>
<path d="M22.9055 120.412C22.8963 120.412 22.887 120.412 22.8778 120.412C21.855 120.412 21.0182 121.233 21.0035 122.259C21.001 122.419 21 122.58 21 122.74V125.028C21 126.064 21.8392 126.903 22.875 126.903C23.9107 126.903 24.75 126.064 24.75 125.028V122.74C24.75 122.598 24.751 122.456 24.753 122.314C24.7683 121.279 23.941 120.427 22.9055 120.412Z" fill="black"/>
<path d="M52.4435 93.8317C52.8515 93.8142 53.2693 93.8054 53.685 93.8054H53.8633C54.6625 93.8054 55.3738 93.2989 55.6353 92.5437C55.8965 91.7884 55.6505 90.9504 55.0223 90.4564C54.6558 90.1684 54.2928 89.8672 53.9433 89.5614C53.1635 88.8794 51.979 88.9587 51.2975 89.7384C51.0108 90.0665 50.8585 90.4662 50.8365 90.8699C50.602 91.198 50.4715 91.6044 50.49 92.0387C50.5333 93.0459 51.3633 93.8335 52.3618 93.8335C52.3888 93.8335 52.416 93.8329 52.4435 93.8317Z" fill="black"/>
<path d="M46.9308 85.8522C47.2518 85.8522 47.5775 85.7697 47.8745 85.5962C48.7688 85.0737 49.0702 83.9254 48.548 83.0314C48.1405 82.3339 47.7615 81.6097 47.4207 80.8794C46.9832 79.9409 45.8673 79.535 44.929 79.9722C43.9905 80.4097 43.5843 81.5254 44.0218 82.4639C44.411 83.2987 44.8443 84.1259 45.3095 84.9227C45.6585 85.5194 46.286 85.8522 46.9308 85.8522Z" fill="black"/>
<path d="M45.0025 71.3307C44.9425 70.3462 44.13 69.5764 43.1437 69.5697L41.644 69.5594C41.6392 69.5594 41.6352 69.5594 41.6307 69.5594C40.6012 69.5594 39.763 70.3904 39.756 71.4214C39.7495 72.3904 40.4788 73.1924 41.4205 73.2977C41.5915 74.1792 42.3667 74.8142 43.2587 74.8142C43.3295 74.8142 43.4012 74.81 43.4732 74.8019C44.502 74.6847 45.2412 73.7554 45.1242 72.7267C45.0717 72.2667 45.0307 71.7969 45.0025 71.3307Z" fill="black"/>
<path d="M34.984 73.2639L36.484 73.2742H36.4973C37.5268 73.2742 38.365 72.4432 38.372 71.4122C38.3783 70.4902 37.7183 69.7192 36.8425 69.5559C36.6855 68.6792 35.919 68.0139 34.997 68.0139C33.9613 68.0139 33.122 68.8532 33.122 69.8889V71.3889C33.122 72.4194 33.9538 73.2567 34.984 73.2639Z" fill="black"/>
<path d="M69.8555 13.7807C69.8815 13.7807 69.9075 13.7802 69.9335 13.7792C70.8618 13.7407 71.8158 13.7402 72.7528 13.7774C73.7837 13.8139 74.6598 13.0127 74.7008 11.9784C74.7418 10.9434 73.9363 10.0714 72.9018 10.0304C71.8645 9.98895 70.8083 9.9902 69.7798 10.0322C68.745 10.0747 67.9408 10.9479 67.983 11.9827C68.0248 12.9912 68.8552 13.7807 69.8555 13.7807Z" fill="black"/>
<path d="M102.753 33.9519C103.068 34.6412 103.748 35.0482 104.46 35.0482C104.72 35.0482 104.985 34.9934 105.238 34.8779C106.18 34.4474 106.594 33.3352 106.163 32.3934C105.733 31.4507 105.257 30.5139 104.75 29.6087C104.244 28.7054 103.102 28.3842 102.198 28.8894C101.295 29.3954 100.973 30.5382 101.479 31.4417C101.936 32.2577 102.365 33.1024 102.753 33.9519Z" fill="black"/>
<path d="M93.4133 21.7392C94.132 22.3384 94.8353 22.9747 95.5038 23.6302C95.8688 23.9884 96.3428 24.1667 96.8168 24.1667C97.3023 24.1667 97.7883 23.9789 98.1553 23.6047C98.8805 22.8654 98.869 21.6784 98.1298 20.9534C97.3895 20.2272 96.6105 19.5222 95.814 18.8587C95.0188 18.1959 93.8368 18.3029 93.1735 19.0984C92.5102 19.8939 92.6178 21.0762 93.4133 21.7392Z" fill="black"/>
<path d="M45.883 24.1922C46.3575 24.1922 46.8325 24.0132 47.1975 23.6544C47.864 22.9992 48.5667 22.3622 49.286 21.7614C50.081 21.0977 50.187 19.9152 49.523 19.1204C48.8593 18.3259 47.6765 18.2197 46.8822 18.8837C46.0852 19.5489 45.3073 20.2544 44.5688 20.9804C43.8302 21.7064 43.8202 22.8934 44.546 23.6319C44.913 24.0049 45.3977 24.1922 45.883 24.1922Z" fill="black"/>
<path d="M82.415 15.5654C83.302 15.8662 84.1865 16.2074 85.044 16.5799C85.2872 16.6854 85.5402 16.7354 85.7895 16.7354C86.5137 16.7354 87.2035 16.3134 87.5105 15.6064C87.9227 14.6567 87.487 13.5522 86.537 13.1399C85.5853 12.7269 84.6037 12.3479 83.6195 12.0142C82.6385 11.6824 81.5742 12.2069 81.2415 13.1874C80.909 14.1684 81.4342 15.2327 82.415 15.5654Z" fill="black"/>
<path d="M56.9025 16.7502C57.1522 16.7502 57.4062 16.6999 57.6497 16.5939C58.5057 16.2214 59.3885 15.8797 60.274 15.5782C61.2543 15.2442 61.7783 14.1789 61.4445 13.1987C61.1108 12.2184 60.0448 11.6952 59.065 12.0282C58.0825 12.3629 57.103 12.7419 56.1533 13.1554C55.2038 13.5687 54.769 14.6734 55.1823 15.6229C55.4893 16.3287 56.1787 16.7502 56.9025 16.7502Z" fill="black"/>
<path d="M34.9502 47.9859C34.987 47.9882 35.0235 47.9892 35.06 47.9892C36.0457 47.9892 36.8725 47.2194 36.93 46.2224C36.9842 45.2867 37.0775 44.3437 37.207 43.4197C37.351 42.3942 36.6367 41.4462 35.611 41.3022C34.588 41.1592 33.6375 41.8724 33.4935 42.8982C33.3495 43.9229 33.2462 44.9684 33.1862 46.0062C33.1267 47.0397 33.9162 47.9262 34.9502 47.9859Z" fill="black"/>
<path d="M37.473 34.9144C37.7253 35.0294 37.9895 35.0839 38.2495 35.0839C38.9615 35.0839 39.6423 34.6762 39.9568 33.9862C40.3453 33.1342 40.7735 32.2882 41.2298 31.4717C41.735 30.5677 41.4118 29.4252 40.5078 28.9202C39.6033 28.4144 38.461 28.7382 37.9563 29.6422C37.4503 30.5477 36.9752 31.4859 36.5447 32.4304C36.115 33.3729 36.5308 34.4849 37.473 34.9144Z" fill="black"/>
<path d="M34.997 61.3614C36.0328 61.3614 36.872 60.5222 36.872 59.4864V56.5142C36.872 55.4784 36.0328 54.6392 34.997 54.6392C33.9613 54.6392 33.122 55.4784 33.122 56.5142V59.4864C33.122 60.5222 33.9613 61.3614 34.997 61.3614Z" fill="black"/>
<path d="M109.604 56.4744C109.604 55.4387 108.764 54.5994 107.729 54.5994C106.693 54.5994 105.854 55.4387 105.854 56.4744V59.4467C105.854 60.4824 106.693 61.3217 107.729 61.3217C108.764 61.3217 109.604 60.4824 109.604 59.4467V56.4744Z" fill="black"/>
<path d="M105.513 43.3814C105.643 44.3064 105.737 45.2497 105.793 46.1844C105.851 47.1804 106.678 47.9489 107.663 47.9489C107.7 47.9489 107.738 47.9479 107.775 47.9457C108.809 47.8847 109.597 46.9969 109.536 45.9632C109.475 44.9269 109.37 43.8817 109.225 42.8559C109.08 41.8307 108.132 41.1174 107.106 41.2622C106.081 41.4074 105.368 42.3562 105.513 43.3814Z" fill="black"/>
<path d="M107.729 68.0139C106.807 68.0139 106.04 68.6792 105.883 69.5559C105.007 69.7189 104.347 70.4902 104.354 71.4122C104.361 72.4432 105.199 73.2742 106.228 73.2742H106.242L107.742 73.2639C108.772 73.2569 109.604 72.4194 109.604 71.3889V69.8889C109.604 68.8532 108.764 68.0139 107.729 68.0139Z" fill="black"/>
<path d="M101.305 73.2977C102.247 73.1927 102.976 72.3904 102.969 71.4217C102.962 70.3904 102.124 69.5594 101.095 69.5594C101.09 69.5594 101.086 69.5594 101.081 69.5594L99.5815 69.5697C98.5955 69.5764 97.783 70.3462 97.7227 71.3307C97.6945 71.7969 97.6535 72.2667 97.601 72.7269C97.4837 73.7557 98.223 74.685 99.252 74.8022C99.324 74.8102 99.3955 74.8144 99.4665 74.8144C100.358 74.8144 101.134 74.1794 101.305 73.2977Z" fill="black"/>
<path d="M96.349 83.1187C96.6005 83.2327 96.8637 83.2867 97.1227 83.2867C97.836 83.2867 98.5175 82.8777 98.8315 82.1862C99.1182 81.5539 99.3865 80.9037 99.6288 80.2539C99.9903 79.2834 99.4968 78.2037 98.5265 77.8422C97.5558 77.4809 96.4763 77.9742 96.1148 78.9445C95.9028 79.5137 95.6678 80.0832 95.4165 80.6367C94.9885 81.5792 95.406 82.6907 96.349 83.1187Z" fill="black"/>
<path d="M94.7227 85.7847C93.9108 85.1412 92.7313 85.2782 92.0888 86.0897C91.799 86.4552 91.4967 86.8167 91.19 87.1644C90.505 87.9409 90.579 89.1259 91.3555 89.8109C91.712 90.1254 92.1545 90.2799 92.5953 90.2799C93.1145 90.2799 93.6315 90.0654 94.002 89.6454C94.352 89.2484 94.6973 88.8359 95.0277 88.4189C95.671 87.6069 95.5342 86.4277 94.7227 85.7847Z" fill="black"/>
<path d="M66.8143 115.963C67.194 115.963 67.559 116.102 67.8425 116.354C68.8463 117.246 70.1043 117.692 71.3628 117.692C72.6208 117.692 73.8793 117.246 74.8823 116.354C75.1663 116.102 75.5315 115.963 75.911 115.963H83.9895C85.0253 115.963 85.8645 115.124 85.8645 114.088C85.8645 113.052 85.0253 112.213 83.9895 112.213H75.911C74.6122 112.213 73.3625 112.688 72.391 113.551C71.8048 114.073 70.92 114.073 70.3338 113.551C69.363 112.689 68.113 112.213 66.814 112.213H58.7355C57.6997 112.213 56.8605 113.052 56.8605 114.088C56.8605 115.124 57.6997 115.963 58.7355 115.963H66.8143Z" fill="black"/>
<path d="M130.205 106.237C131.241 106.237 132.08 105.398 132.08 104.362V100.155C132.08 96.6347 129.693 93.5787 126.274 92.7232L112.224 89.2157C111.926 89.141 111.614 89.141 111.316 89.2157L97.2617 92.7235C94.469 93.423 92.3668 95.5934 91.6917 98.2852C90.8122 98.1904 89.9262 98.1372 89.0397 98.1372H82.5822V88.7142C89.0765 84.8662 93.441 77.7869 93.441 69.7064V68.2984H95.6068C98.8685 68.2984 101.522 65.6447 101.522 62.3827V48.2399C101.522 47.7702 101.512 47.3499 101.493 46.9549C101.44 45.9209 100.564 45.1247 99.525 45.1774C98.4908 45.2299 97.695 46.1107 97.7475 47.1449C97.7642 47.4759 97.7725 47.8342 97.7725 48.2399V52.8389C97.1012 52.5739 96.3713 52.4267 95.607 52.4267H91.5663C90.5305 52.4267 89.6913 53.2659 89.6913 54.3017V59.9799L81.7842 47.5432C81.4962 47.0899 81.0277 46.7819 80.4975 46.6974C79.9662 46.6132 79.426 46.7597 79.0112 47.1007L72.9683 52.0697C71.5 53.2769 69.6442 53.9419 67.7435 53.9419H59.494C58.9185 53.9419 58.375 54.2062 58.0198 54.6584L53.0353 61.0024V54.3017C53.0353 53.2659 52.196 52.4267 51.1603 52.4267H47.1198C46.355 52.4267 45.6248 52.5742 44.9533 52.8394V48.2399C44.9533 33.6789 56.8007 21.8324 71.3632 21.8324C78.4187 21.8324 85.0505 24.5787 90.0373 29.5659C92.7375 32.2662 94.8558 35.5762 96.163 39.1384C96.5198 40.1104 97.596 40.6089 98.5693 40.2527C99.5415 39.8959 100.04 38.8187 99.6835 37.8464C98.19 33.7769 95.7715 29.9967 92.689 26.9139C86.9938 21.2189 79.42 18.0824 71.363 18.0824C54.7327 18.0824 41.203 31.6109 41.203 48.2399L41.2038 62.3829C41.2038 65.6449 43.8575 68.2987 47.1195 68.2987H49.285V69.7067C49.285 77.7879 53.65 84.8677 60.1453 88.7154V98.1374H53.6852C41.2402 98.1374 30.7403 107.441 29.2613 119.779C29.138 120.807 29.8715 121.741 30.8998 121.864C30.9755 121.873 31.0508 121.878 31.1253 121.878C32.061 121.878 32.8702 121.178 32.9845 120.226C34.238 109.771 43.1373 101.887 53.6855 101.887H62.0205C63.0562 101.887 63.8955 101.048 63.8955 100.012V90.484C66.2292 91.3255 68.7435 91.7852 71.3635 91.7852C73.984 91.7852 76.499 91.3252 78.833 90.4835V100.012C78.833 101.048 79.6722 101.887 80.708 101.887H89.04C89.8498 101.887 90.6585 101.94 91.46 102.033V115.583C91.46 122.504 95.2038 128.92 101.231 132.328L104.635 134.25H49.2465V131.074C49.2465 130.038 48.4073 129.199 47.3715 129.199C46.3358 129.199 45.4965 130.038 45.4965 131.074V134.25H32.8322V128.75C32.8322 127.714 31.993 126.875 30.9572 126.875C29.9215 126.875 29.0822 127.714 29.0822 128.75V136.125C29.0822 137.161 29.9215 138 30.9572 138H111.77C112.088 138 112.406 137.919 112.692 137.757L122.307 132.327C128.335 128.92 132.08 122.504 132.08 115.582V113.112C132.08 112.076 131.241 111.237 130.205 111.237C129.169 111.237 128.33 112.076 128.33 113.112V115.582C128.33 121.154 125.315 126.32 120.463 129.062L111.77 133.971L103.075 129.063C98.2237 126.319 95.2097 121.154 95.2097 115.582V100.155C95.2097 98.3579 96.4283 96.798 98.1715 96.3612L111.77 92.9672L125.365 96.361C127.111 96.798 128.33 98.3579 128.33 100.155V104.362C128.33 105.398 129.169 106.237 130.205 106.237ZM93.441 56.1767H95.6068C96.8008 56.1767 97.7722 57.1484 97.7722 58.3424V62.3829C97.7722 63.5769 96.8008 64.5487 95.6068 64.5487H93.441V56.1767ZM44.9533 62.3829V58.3424C44.9533 57.1484 45.925 56.1767 47.119 56.1767H49.2845V64.5487H47.119C45.925 64.5487 44.9533 63.5769 44.9533 62.3829ZM53.0345 69.7067V67.0722L60.4048 57.6919H67.743C70.5105 57.6919 73.212 56.7239 75.3498 54.9662L79.7562 51.3429L89.691 66.9692V69.7067C89.691 79.8129 81.469 88.035 71.3628 88.035C61.2565 88.035 53.0345 79.8129 53.0345 69.7067Z" fill="black"/>
<path d="M107.729 124.547H115.81C116.846 124.547 117.685 123.708 117.685 122.672V118.486H121.871C122.907 118.486 123.746 117.647 123.746 116.611V108.53C123.746 107.494 122.907 106.655 121.871 106.655H117.685V102.469C117.685 101.433 116.846 100.594 115.81 100.594H107.729C106.693 100.594 105.854 101.433 105.854 102.469V106.655H101.668C100.632 106.655 99.7925 107.494 99.7925 108.53V116.611C99.7925 117.647 100.632 118.486 101.668 118.486H105.854V122.672C105.854 123.708 106.693 124.547 107.729 124.547ZM103.543 114.736V110.405H107.729C108.764 110.405 109.604 109.565 109.604 108.53V104.344H113.935V108.53C113.935 109.565 114.774 110.405 115.81 110.405H119.996V114.736H115.81C114.774 114.736 113.935 115.575 113.935 116.611V120.797H109.604V116.611C109.604 115.575 108.765 114.736 107.729 114.736H103.543Z" fill="black"/>
</svg>
