<svg width="155" height="148" viewBox="0 0 155 148" fill="none" xmlns="http://www.w3.org/2000/svg">
<circle cx="71.5" cy="71.5" r="71" stroke="black"/>
<circle cx="83.5" cy="76.5" r="71" stroke="#D8B345"/>
<circle cx="78.5" cy="76.5" r="71.5" fill="#E8C05B"/>
<path d="M125.904 67.1765C125.857 67.1765 125.809 67.1768 125.762 67.1772C123.822 55.6015 118.994 45.1168 111.719 36.7285C110.813 35.6833 109.231 35.5712 108.186 36.4772C107.141 37.3835 107.029 38.9657 107.935 40.0107C114.488 47.5672 118.878 57.0085 120.725 67.4552C112.431 67.3628 104.924 64.9767 98.3753 60.3392C95.1395 58.0477 92.8643 55.6828 91.5387 54.1232C94.4153 51.736 95.9112 50.0633 96.0307 49.928C96.947 48.8915 96.8495 47.3088 95.813 46.3923C94.7763 45.476 93.1937 45.5738 92.2773 46.61C92.2285 46.6653 87.6095 51.8242 78.5048 57.0288V24.7323C82.6985 24.9995 86.8145 25.9362 90.772 27.532C92.055 28.049 93.5145 27.4285 94.0318 26.1455C94.549 24.8625 93.9282 23.403 92.6452 22.8857C88.0887 21.0485 83.343 19.9867 78.5048 19.7137V17.505C78.505 16.1215 77.3832 15 76 15C74.6167 15 73.495 16.1215 73.495 17.505V19.7143C62.139 20.3647 51.2837 25.4212 42.6922 34.122C34.1833 42.7397 28.3927 54.4028 26.2388 67.1775C18.4085 67.0948 12 73.4525 12 81.2732C12 89.046 18.3238 95.3698 26.0965 95.3698C26.5235 95.3698 26.9502 95.3503 27.3752 95.3112C30.3148 106.821 36.3272 117.187 44.4647 124.703C52.8537 132.451 62.8445 136.808 73.495 137.399V140.495C73.495 141.878 74.6165 143 76 143C77.3835 143 78.505 141.879 78.505 140.495V137.399C89.1557 136.808 99.1462 132.451 107.535 124.703C115.673 117.187 121.685 106.821 124.625 95.3112C125.05 95.3503 125.477 95.3698 125.904 95.3698C133.676 95.3698 140 89.046 140 81.2732C140 73.5002 133.676 67.1765 125.904 67.1765ZM46.257 37.642C53.8945 29.9073 63.4845 25.384 73.495 24.7345V59.65C64.0293 64.1578 49.7842 68.5522 31.2547 67.5817C33.2932 55.9857 38.5627 45.4342 46.257 37.642ZM47.864 121.022C39.924 113.688 34.189 103.344 31.716 91.893C31.7148 91.8867 30.4942 86.66 30.4942 86.66C30.1795 85.313 28.8318 84.4762 27.4853 84.7905C26.1383 85.1052 25.301 86.4525 25.6158 87.7995L26.2128 90.356C26.174 90.3565 26.1353 90.36 26.0965 90.36C21.0863 90.36 17.01 86.2838 17.01 81.2735C17.01 76.263 21.0863 72.1867 26.0965 72.1867C26.597 72.175 27.43 72.28 28.1635 72.4033C31.0055 72.6283 33.7537 72.7325 36.414 72.7325C52.0515 72.7325 64.5205 69.1208 73.4953 65.1595V92.882C72.6275 92.5075 71.8062 91.9607 71.0877 91.2422C70.1092 90.2643 68.5238 90.2643 67.5452 91.2422C66.567 92.2205 66.567 93.8065 67.5452 94.7848C69.2575 96.4967 71.3307 97.6175 73.4953 98.1435V114.29C70.1068 113.622 66.9458 111.934 64.3955 109.383C63.4173 108.406 61.8317 108.405 60.853 109.383C59.8748 110.361 59.8748 111.948 60.853 112.926C64.3538 116.426 68.7703 118.66 73.4953 119.372V132.38C64.122 131.791 55.3062 127.896 47.864 121.022ZM125.904 90.3597C125.066 90.3597 124.229 90.2428 123.416 90.0123C122.751 89.823 122.036 89.918 121.443 90.2745C120.85 90.631 120.43 91.2168 120.284 91.8932C117.811 103.344 112.076 113.689 104.136 121.022C96.6937 127.896 87.878 131.791 78.505 132.38V119.55C83.3275 119.162 87.7507 117.152 91.1472 113.756C92.1255 112.778 92.1255 111.191 91.1472 110.213C90.1687 109.235 88.5833 109.235 87.6048 110.213C85.1565 112.662 81.9867 114.155 78.505 114.523V98.2998C80.705 97.8993 82.785 96.8692 84.455 95.1992C85.4333 94.221 85.4333 92.635 84.455 91.6568C83.4765 90.6788 81.891 90.6788 80.9125 91.6568C80.2182 92.351 79.3937 92.8442 78.505 93.143V62.742C78.5987 62.6927 78.6953 62.6433 78.7878 62.594C82.228 60.7668 85.1497 58.9005 87.5598 57.1808C89.0605 58.9735 91.6192 61.6628 95.2852 64.289C100.6 68.0965 109.311 72.4678 121.286 72.4678C122.724 72.534 124.293 72.2895 125.904 72.1862C130.914 72.1862 134.99 76.2625 134.99 81.273C134.99 86.2835 130.914 90.3597 125.904 90.3597Z" fill="black"/>
<path d="M64.3968 87.3335C65.375 86.3553 65.375 84.7695 64.3968 83.791C63.4185 82.8135 61.833 82.813 60.8543 83.791C58.3875 86.2575 54.5423 86.4255 52.284 84.1667C51.3055 83.1888 49.72 83.1888 48.7415 84.1667C47.7633 85.145 47.7633 86.731 48.7415 87.7093C50.7812 89.749 53.4802 90.7615 56.2235 90.7615C59.145 90.7615 62.1173 89.6128 64.3968 87.3335Z" fill="black"/>
<path d="M124.505 34.632H127.122V37.249C127.122 38.6322 128.243 39.754 129.627 39.754C131.01 39.754 132.132 38.6325 132.132 37.249V34.632H134.749C136.132 34.632 137.254 33.5105 137.254 32.127C137.254 30.7435 136.132 29.622 134.749 29.622H132.132V27.0057C132.132 25.6225 131.01 24.5007 129.627 24.5007C128.244 24.5007 127.122 25.6222 127.122 27.0057V29.6225H124.505C123.122 29.6225 122 30.744 122 32.1275C122 33.511 123.122 34.632 124.505 34.632Z" fill="black"/>
<path d="M125.234 128.587H122.618V125.97C122.618 124.587 121.496 123.465 120.113 123.465C118.729 123.465 117.608 124.587 117.608 125.97V128.587H114.991C113.608 128.587 112.486 129.709 112.486 131.092C112.486 132.475 113.607 133.597 114.991 133.597H117.608V136.214C117.608 137.597 118.729 138.719 120.113 138.719C121.496 138.719 122.618 137.597 122.618 136.214V133.597H125.234C126.618 133.597 127.74 132.476 127.74 131.092C127.74 129.709 126.618 128.587 125.234 128.587Z" fill="black"/>
<path d="M56.569 81.7988C57.9525 81.7988 59.074 80.6772 59.074 79.2937C59.074 77.9103 57.9525 76.7887 56.569 76.7887C55.1855 76.7887 54.064 77.9103 54.064 79.2937C54.064 80.6772 55.1855 81.7988 56.569 81.7988Z" fill="black"/>
<path d="M95.4303 81.799C96.8137 81.799 97.9352 80.6775 97.9352 79.294C97.9352 77.9105 96.8137 76.789 95.4303 76.789C94.0468 76.789 92.9252 77.9105 92.9252 79.294C92.9252 80.6775 94.0468 81.799 95.4303 81.799Z" fill="black"/>
<path d="M101.625 33.2275C103.008 33.2275 104.13 32.106 104.13 30.7225C104.13 29.339 103.008 28.2175 101.625 28.2175C100.242 28.2175 99.12 29.339 99.12 30.7225C99.12 32.106 100.242 33.2275 101.625 33.2275Z" fill="black"/>
<path d="M61.2887 102.98C60.8715 101.663 59.4668 100.935 58.1502 101.352C57.953 101.414 53.3005 102.934 51.6128 107.476C51.1318 108.77 51.7912 110.209 53.0855 110.69C53.3725 110.797 53.6668 110.848 53.956 110.848C54.971 110.848 55.9255 110.225 56.2998 109.217C57.1168 107.019 59.596 106.141 59.6787 106.112C60.9837 105.688 61.7038 104.29 61.2887 102.98Z" fill="black"/>
</svg>
