<svg width="155" height="148" viewBox="0 0 155 148" fill="none" xmlns="http://www.w3.org/2000/svg">
<circle cx="71.5" cy="71.5" r="71" stroke="black"/>
<circle cx="83.5" cy="76.5" r="71" stroke="#8E9E82"/>
<circle cx="78.5" cy="76.5" r="71.5" fill="#788967"/>
<path d="M121.166 103.92H117.534C116.194 103.92 114.881 104.381 113.839 105.215L113.646 105.368L101.969 95.097V89.7875C101.969 88.752 101.13 87.9125 100.094 87.9125C99.058 87.9125 98.2188 88.752 98.2188 89.7875V94.7978L97.0585 95.3903C96.1362 95.8613 95.7705 96.9908 96.2412 97.913C96.5727 98.562 97.2305 98.9355 97.9128 98.9355C98.1995 98.9355 98.491 98.8695 98.764 98.73L99.8122 98.1945L112.35 109.223C113.033 109.823 114.049 109.847 114.759 109.28L116.181 108.144C116.562 107.839 117.042 107.67 117.534 107.67H121.166C121.525 107.67 121.818 107.962 121.818 108.32V115.393C121.818 115.753 121.525 116.045 121.166 116.045H114.114L90.2537 101.53L89.3515 96.399L91.6527 66.723L93.3442 67.4775C96.3055 68.7995 98.2188 71.7482 98.2188 74.9902V81.0378C98.2188 82.0732 99.058 82.9128 100.094 82.9128C101.13 82.9128 101.969 82.0732 101.969 81.0378V74.9902C101.969 70.2705 99.1835 65.9775 94.8722 64.0527L90.7525 62.2152C90.7107 62.1965 79.1437 58.0132 79.1437 58.0132C84.3382 54.79 87.8237 48.9827 87.8237 42.409V37.5995C87.8237 30.4487 83.6417 24.2565 77.5952 21.34C77.6772 20.8813 77.7207 20.4132 77.7207 19.937C77.7205 15.5605 74.1603 12 69.7838 12C65.4073 12 61.8467 15.5605 61.8467 19.937C61.8467 20.4132 61.8905 20.8813 61.9725 21.34C55.9258 24.2565 51.7438 30.4487 51.7438 37.5995V42.65C51.7438 47.513 53.65 52.0725 57.111 55.489C58.107 56.472 59.1982 57.321 60.3605 58.036C60.3605 58.036 48.8755 62.1875 48.8132 62.2142L44.6943 64.0532C40.3843 65.9775 37.5995 70.2707 37.5995 74.9907V95.098L25.921 105.369L25.7305 105.217C24.6855 104.381 23.373 103.92 22.0347 103.92H18.4008C15.974 103.92 14 105.894 14 108.321V115.393C14 117.82 15.974 119.794 18.4008 119.794H21.2908C21.2013 119.915 21.1115 120.037 21.027 120.161C20.928 120.307 20.8343 120.456 20.7423 120.606C20.7288 120.628 20.7138 120.649 20.7005 120.671C19.6565 122.403 19.0887 124.404 19.0887 126.478V128.745C19.0887 133.061 21.532 136.814 25.1068 138.702C26.6725 139.529 28.4545 140 30.3453 140H72.1137C73.1495 140 73.9887 139.16 73.9887 138.125C73.9887 137.09 73.1495 136.25 72.1137 136.25H57.1888V127.589L107.981 119.074C110.163 118.709 112.383 119.32 114.072 120.749C115.76 122.179 116.729 124.266 116.729 126.478V128.745C116.729 132.883 113.361 136.25 109.221 136.25H80.8637C79.828 136.25 78.9887 137.09 78.9887 138.125C78.9887 139.16 79.828 140 80.8637 140H109.221C115.429 140 120.479 134.951 120.479 128.745V126.478C120.479 124.044 119.694 121.712 118.278 119.795H121.166C123.594 119.795 125.568 117.82 125.568 115.393V108.32C125.568 105.894 123.594 103.92 121.166 103.92ZM106.136 115.581L93.1792 117.753L91.8333 110.505C91.8323 110.499 91.8305 110.494 91.8292 110.488L91.1182 106.445L106.136 115.581ZM69.781 121.676L50.087 118.374L51.1363 112.723H88.431L89.4802 118.373L69.781 121.676ZM33.4293 115.581L48.4495 106.443L47.739 110.483C47.7377 110.491 47.7355 110.497 47.734 110.504L46.3883 117.753L33.4293 115.581ZM65.5967 60.2012C66.9522 60.5217 68.3535 60.6898 69.7812 60.6898C69.8615 60.6898 69.9422 60.6893 70.0225 60.6883C71.3795 60.6707 72.6995 60.4935 73.9705 60.184V64.8765C73.9705 67.185 72.0923 69.0633 69.7838 69.0633C67.475 69.0633 65.5967 67.185 65.5967 64.8765V60.2012ZM65.5967 19.937C65.5967 17.6283 67.475 15.75 69.7838 15.75C72.0923 15.75 73.9705 17.6283 73.9705 19.937C73.9705 19.9765 73.9655 20.0147 73.9645 20.054C72.6217 19.734 71.223 19.5598 69.7838 19.5598C68.3443 19.5598 66.9458 19.734 65.6028 20.054C65.6018 20.0147 65.5967 19.9762 65.5967 19.937ZM69.7838 23.3095C71.757 23.3095 73.638 23.7118 75.3495 24.4382C73.5212 26.284 70.142 29.1322 65.847 30.225C64.8435 30.4803 64.237 31.501 64.4922 32.5045C64.7082 33.353 65.471 33.9175 66.308 33.9175C66.461 33.9175 66.6165 33.8985 66.7718 33.8592C72.4977 32.4022 76.7135 28.517 78.6587 26.4117C79.8272 27.3407 80.8485 28.4468 81.679 29.6915C80.6083 31.1285 78.5322 33.4297 75.0212 35.5705C69.778 38.7677 63.2143 40.5025 55.494 40.7428V37.5993C55.4938 29.72 61.9043 23.3095 69.7838 23.3095ZM55.615 44.494C71.5272 43.999 79.749 37.6322 83.4565 33.4475C83.8565 34.7623 84.0735 36.1558 84.0735 37.5995V42.409C84.0735 50.32 77.7485 56.8377 69.974 56.9388C66.119 56.99 62.4865 55.5263 59.7452 52.8203C57.4465 50.551 56.018 47.6442 55.615 44.494ZM17.75 115.393V108.321C17.75 107.962 18.0417 107.67 18.4008 107.67H22.0347C22.5247 107.67 23.0053 107.839 23.388 108.145L24.8067 109.28C25.517 109.848 26.533 109.825 27.2162 109.224L39.7563 98.195L40.803 98.7298C41.0763 98.8693 41.3675 98.9352 41.6545 98.9352C42.3365 98.9352 42.9943 98.5618 43.3258 97.9128C43.7968 96.9905 43.431 95.861 42.5087 95.39L41.3495 94.798V74.9905C41.3495 71.7483 43.2625 68.799 46.223 67.4772L47.915 66.7217L48.4893 74.122C48.5655 75.1053 49.387 75.852 50.3565 75.852C50.4053 75.852 50.4543 75.85 50.5035 75.8462C51.536 75.7662 52.308 74.8643 52.2278 73.8317L51.5583 65.2048L61.8465 61.4855V64.876C61.8465 69.2523 65.407 72.8128 69.7835 72.8128C74.16 72.8128 77.7202 69.2523 77.7202 64.876V61.4855L88.0088 65.2048L85.5942 96.345C85.582 96.502 85.5895 96.6598 85.617 96.8148L87.7552 108.973H51.8122L53.9502 96.8148C53.9775 96.6598 53.9852 96.502 53.973 96.345L52.903 82.555C52.823 81.5225 51.9195 80.7517 50.8885 80.8307C49.856 80.9108 49.084 81.8128 49.1643 82.8453L50.216 96.399L49.3138 101.529L25.4522 116.044H18.4008C18.0417 116.044 17.75 115.752 17.75 115.393ZM53.438 136.25H40.8393C39.2385 136.25 37.9363 134.948 37.9363 133.347C37.9363 131.93 38.9495 130.727 40.3458 130.486L53.438 128.228V136.25ZM55.015 124.151C55.0083 124.152 55.0012 124.152 54.9945 124.154L39.7085 126.791C36.509 127.343 34.1868 130.1 34.1868 133.347C34.1868 134.387 34.4272 135.372 34.8547 136.25H30.3463C29.2008 136.25 28.1147 135.991 27.1425 135.531C27.1265 135.523 27.1102 135.516 27.0942 135.509C27.0907 135.507 27.0875 135.505 27.0842 135.504C24.5747 134.288 22.8398 131.715 22.8398 128.744V126.477C22.8398 124.957 23.2973 123.495 24.1315 122.265C24.5107 121.707 24.968 121.196 25.4955 120.749C26.3288 120.044 27.2915 119.539 28.315 119.251C28.329 119.247 28.3425 119.242 28.3565 119.238C28.3665 119.236 28.3768 119.233 28.3868 119.231C29.4165 118.952 30.506 118.894 31.5863 119.075C31.589 119.075 31.5915 119.075 31.5942 119.076L58.4415 123.577L55.015 124.151Z" fill="black"/>
<path d="M38.0395 46.261H38.6902V48.4272C38.6902 49.4627 39.5297 50.3022 40.5652 50.3022C41.6007 50.3022 42.4402 49.4627 42.4402 48.4272V46.261H43.091C44.1265 46.261 44.966 45.4215 44.966 44.386C44.966 43.3505 44.1265 42.511 43.091 42.511H42.4402V40.3447C42.4402 39.3092 41.6007 38.4697 40.5652 38.4697C39.5297 38.4697 38.6902 39.3092 38.6902 40.3447V42.511H38.0395C37.004 42.511 36.1645 43.3505 36.1645 44.386C36.1645 45.4215 37.004 46.261 38.0395 46.261Z" fill="black"/>
<path d="M94.5362 24.282H95.1872V26.4482C95.1872 27.4837 96.0265 28.3232 97.0622 28.3232C98.098 28.3232 98.9372 27.4837 98.9372 26.4482V24.282H99.588C100.624 24.282 101.463 23.4425 101.463 22.407C101.463 21.3715 100.624 20.532 99.588 20.532H98.9372V18.3657C98.9372 17.3302 98.098 16.4907 97.0622 16.4907C96.0265 16.4907 95.1872 17.3302 95.1872 18.3657V20.532H94.5362C93.5005 20.532 92.6612 21.3715 92.6612 22.407C92.6612 23.4425 93.5005 24.282 94.5362 24.282Z" fill="black"/>
<path d="M103.598 55.1787H104.249V57.345C104.249 58.3805 105.088 59.22 106.124 59.22C107.16 59.22 107.999 58.3805 107.999 57.345V55.1787H108.65C109.686 55.1787 110.525 54.3392 110.525 53.3037C110.525 52.2682 109.686 51.4287 108.65 51.4287H107.999V49.2625C107.999 48.227 107.16 47.3875 106.124 47.3875C105.088 47.3875 104.249 48.227 104.249 49.2625V51.4287H103.598C102.562 51.4287 101.723 52.2682 101.723 53.3037C101.723 54.3392 102.562 55.1787 103.598 55.1787Z" fill="black"/>
<path d="M57.68 88.7083C59.341 89.7897 61.209 90.3065 63.0573 90.3065C65.5125 90.3065 67.9328 89.3942 69.7838 87.683C73.0278 90.682 78.0198 91.2262 81.8875 88.7083C82.7555 88.1432 83.0008 86.9818 82.4358 86.114C81.8708 85.246 80.7088 85.001 79.8415 85.5658C77.0065 87.411 73.2002 86.6065 71.355 83.7728C71.009 83.2415 70.4178 82.9208 69.7838 82.9208C69.1495 82.9208 68.5585 83.2412 68.2125 83.7728C67.3185 85.1458 65.9435 86.0882 64.3408 86.427C62.7383 86.7655 61.0993 86.4598 59.7263 85.566C58.8588 85.001 57.697 85.2465 57.132 86.1143C56.567 86.982 56.8123 88.1432 57.68 88.7083Z" fill="black"/>
</svg>
