<svg width="155" height="148" viewBox="0 0 155 148" fill="none" xmlns="http://www.w3.org/2000/svg">
<circle cx="71.5" cy="71.5" r="71" stroke="black"/>
<circle cx="83.5" cy="76.5" r="71" stroke="#8E9E82"/>
<circle cx="78.5" cy="76.5" r="71.5" fill="#788967"/>
<path d="M144.828 81.541C143.554 77.1372 140.124 65.8136 135.812 55.8C135.402 54.8492 134.3 54.41 133.348 54.8195C132.397 55.2292 131.958 56.3323 132.368 57.2833C136.596 67.1018 139.971 78.2472 141.226 82.5832C141.302 82.8437 141.199 83.1277 140.97 83.29C131.936 89.7108 122.09 91.5553 115.514 91.9855C117.966 88.2898 119.284 83.9562 119.284 79.4197C119.284 77.5764 119.063 75.7674 118.641 74.0201C120.676 73.5961 122.494 73.7976 124.057 74.6274C124.071 74.6349 124.086 74.6399 124.1 74.6469C124.136 74.6649 124.172 74.6837 124.209 74.6994C124.223 74.7052 125.631 75.3729 126.398 77.3819C126.683 78.1292 127.395 78.5884 128.15 78.5884C128.372 78.5884 128.598 78.5487 128.819 78.4647C129.786 78.0952 130.271 77.0117 129.901 76.0439C129.002 73.6896 127.527 72.3876 126.569 71.7489L121.741 51.9155C121.543 51.1025 120.83 50.519 119.994 50.4852C119.155 50.4542 118.401 50.976 118.139 51.7702C118.037 52.0792 117.872 52.3595 117.648 52.6032C117.155 53.1425 116.387 53.3407 115.69 53.109L111.335 51.659C109.638 51.0925 108.66 49.2912 109.11 47.5589L110.303 42.9692C110.731 41.3166 112.332 40.2299 114.027 40.4366L121.9 41.4066C122.138 41.4361 122.357 41.5111 122.533 41.6241C123.822 42.4519 125.97 44.5734 128.882 49.9792C129.373 50.8907 130.51 51.2322 131.422 50.7407C132.333 50.2497 132.675 49.1124 132.183 48.2009C129.503 43.2257 127.009 40.0421 124.56 38.4691C123.914 38.0541 123.153 37.7829 122.358 37.6849L114.486 36.7149C110.931 36.2773 107.572 38.5599 106.672 42.0261L105.479 46.6162C104.537 50.2507 106.587 54.028 110.15 55.2165L114.505 56.667C115.999 57.1645 117.605 57.0028 118.944 56.281L122.327 70.1814C120.947 69.9786 119.317 70.0014 117.45 70.4434C116.322 67.8101 114.695 65.3881 112.608 63.3013C103.927 54.6207 89.9291 54.4187 81.0005 62.6958C72.0722 54.4187 58.0741 54.6207 49.3933 63.3016C47.278 65.4168 45.6725 67.8498 44.564 70.4461C42.6917 70.0006 41.0585 69.9779 39.6735 70.1814L43.0572 56.2808C44.3967 57.0028 46.0023 57.1638 47.4958 56.667L51.8526 55.216C55.4138 54.028 57.4646 50.2505 56.5211 46.6154L55.3281 42.0271C54.4281 38.5606 51.0691 36.2776 47.515 36.7154L39.6425 37.6854C38.8482 37.7831 38.087 38.0544 37.4417 38.4691C33.4542 41.0294 29.2536 47.9534 24.5996 59.6373C21.0058 68.6599 18.208 77.9609 17.172 81.541C16.654 83.331 17.3315 85.2625 18.8578 86.347C21.9241 88.5263 25.3044 90.368 28.9044 91.821C29.1344 91.9138 29.3719 91.9578 29.6056 91.9578C30.3476 91.9578 31.0501 91.5145 31.3451 90.7843C31.7327 89.8238 31.2684 88.7313 30.3081 88.3435C26.9796 87 23.8581 85.2997 21.0303 83.2902C20.8018 83.128 20.6991 82.844 20.7746 82.5835C25.5221 66.1778 33.2664 45.6069 39.4687 41.6241C39.6437 41.5116 39.8625 41.4366 40.1012 41.4071L47.9743 40.4371C49.6683 40.2306 51.2698 41.3169 51.6988 42.9702L52.8913 47.5587C53.3411 49.292 52.3636 51.0932 50.6665 51.659L46.3108 53.1095C45.6145 53.3417 44.8463 53.1425 44.3525 52.6032C44.1295 52.36 43.9647 52.0797 43.8622 51.77C43.5992 50.9757 42.8457 50.456 42.0062 50.4857C41.1705 50.5197 40.4582 51.1032 40.2605 51.916L35.4327 71.7494C34.4742 72.3884 32.9987 73.6904 32.0999 76.0449C31.7307 77.0124 32.2154 78.0959 33.1829 78.4654C33.4029 78.5494 33.6289 78.5892 33.8512 78.5892C34.6062 78.5892 35.3179 78.1297 35.6032 77.3824C36.3674 75.3807 37.762 74.7146 37.8212 74.6874L37.7917 74.7004L37.79 74.6959C37.8417 74.6741 37.8939 74.6547 37.944 74.6282C39.511 73.7966 41.3325 73.5949 43.3717 74.0221C41.906 80.0769 42.9447 86.6192 46.4883 91.9823C44.0565 91.8198 41.1052 91.459 37.878 90.7158C36.8694 90.4825 35.8624 91.1133 35.6299 92.122C35.3974 93.1313 36.0272 94.1376 37.0362 94.3701C42.216 95.5631 46.7393 95.8368 49.7038 95.8493L77.8373 123.983C78.709 124.855 79.8545 125.291 80.9998 125.291C82.1451 125.291 83.2903 124.855 84.1623 123.983L98.9539 109.191C99.6862 108.459 99.6862 107.272 98.9539 106.539C98.2214 105.807 97.0344 105.807 96.3022 106.539L81.5105 121.331C81.2293 121.613 80.7708 121.613 80.489 121.331L52.0443 92.8868C44.619 85.4612 44.619 73.3791 52.0443 65.9538C59.4696 58.5285 71.5515 58.5283 78.9768 65.9536L79.6738 66.6506C80.0255 67.0023 80.5023 67.1998 80.9998 67.1998C81.4973 67.1998 81.974 67.0021 82.3258 66.6506L83.0223 65.9538C86.6193 62.3565 91.4019 60.3758 96.4887 60.3758C101.576 60.3758 106.358 62.3568 109.955 65.9538C113.552 69.5509 115.533 74.3332 115.533 79.4199C115.533 84.5067 113.552 89.2893 109.955 92.886L102.106 100.736C101.373 101.468 101.373 102.655 102.106 103.387C102.838 104.119 104.025 104.119 104.757 103.387L112.295 95.8491C118.954 95.8223 131.627 94.5298 143.142 86.3465C144.669 85.262 145.346 83.3307 144.828 81.541Z" fill="black"/>
<path d="M71.2965 45.4202H73.658V47.7819C73.658 50.1942 75.6207 52.157 78.033 52.157H83.9666C86.3788 52.157 88.3416 50.1942 88.3416 47.7819V45.4202H90.7031C93.1154 45.4202 95.0781 43.4574 95.0781 41.0451V35.1116C95.0781 32.6993 93.1154 30.7366 90.7031 30.7366H88.3416V28.375C88.3416 25.9628 86.3788 24 83.9666 24H78.033C75.6207 24 73.658 25.9628 73.658 28.375V30.7366H71.2965C68.8842 30.7366 66.9214 32.6993 66.9214 35.1116V41.0451C66.9214 43.4576 68.8839 45.4202 71.2965 45.4202ZM70.6715 35.1116C70.6715 34.7668 70.952 34.4866 71.2965 34.4866H75.533C76.5685 34.4866 77.408 33.6473 77.408 32.6116V28.375C77.408 28.0303 77.6885 27.75 78.033 27.75H83.9666C84.3113 27.75 84.5916 28.0303 84.5916 28.375V32.6116C84.5916 33.6473 85.4308 34.4866 86.4666 34.4866H90.7031C91.0479 34.4866 91.3281 34.7668 91.3281 35.1116V41.0451C91.3281 41.3899 91.0479 41.6701 90.7031 41.6701H86.4666C85.4308 41.6701 84.5916 42.5094 84.5916 43.5452V47.7819C84.5916 48.1267 84.3113 48.4069 83.9666 48.4069H78.033C77.6885 48.4069 77.408 48.1267 77.408 47.7819V43.5452C77.408 42.5094 76.5685 41.6701 75.533 41.6701H71.2965C70.952 41.6701 70.6715 41.3899 70.6715 41.0451V35.1116Z" fill="black"/>
<path d="M81 99.7866C84.6973 99.7866 88.0873 97.9178 90.0679 94.788C90.6216 93.9128 90.3611 92.7545 89.4861 92.2008C88.6111 91.6475 87.4528 91.9075 86.8988 92.7825C85.6096 94.82 83.4043 96.0366 80.9998 96.0366C78.5953 96.0366 76.3903 94.8203 75.101 92.7828C74.5475 91.9078 73.3895 91.6473 72.514 92.2008C71.639 92.7545 71.3785 93.9128 71.932 94.7878C73.9127 97.9181 77.3028 99.7866 81 99.7866Z" fill="black"/>
<path d="M73.6475 85.381V84.0972C73.6475 83.0615 72.808 82.2222 71.7725 82.2222C70.737 82.2222 69.8974 83.0615 69.8974 84.0972V85.381C69.8974 86.4167 70.737 87.256 71.7725 87.256C72.808 87.256 73.6475 86.4167 73.6475 85.381Z" fill="black"/>
<path d="M92.1024 85.381V84.0972C92.1024 83.0615 91.2631 82.2222 90.2274 82.2222C89.1916 82.2222 88.3523 83.0615 88.3523 84.0972V85.381C88.3523 86.4167 89.1916 87.256 90.2274 87.256C91.2631 87.256 92.1024 86.4167 92.1024 85.381Z" fill="black"/>
<path d="M50.2023 108.134H47.8405V105.772C47.8405 103.36 45.8778 101.397 43.4655 101.397H37.5319C35.1197 101.397 33.1569 103.36 33.1569 105.772V108.134H30.7951C28.3829 108.134 26.4201 110.096 26.4201 112.509V118.442C26.4201 120.854 28.3829 122.817 30.7951 122.817H33.1569V125.179C33.1569 127.591 35.1197 129.554 37.5319 129.554H43.4655C45.8778 129.554 47.8405 127.591 47.8405 125.179V122.817H50.2023C52.6146 122.817 54.5773 120.854 54.5773 118.442V112.509C54.5773 110.096 52.6148 108.134 50.2023 108.134ZM50.8273 118.442C50.8273 118.787 50.5468 119.067 50.2023 119.067H45.9655C44.93 119.067 44.0905 119.906 44.0905 120.942V125.179C44.0905 125.524 43.81 125.804 43.4655 125.804H37.5319C37.1874 125.804 36.9069 125.524 36.9069 125.179V120.942C36.9069 119.906 36.0674 119.067 35.0319 119.067H30.7954C30.4509 119.067 30.1704 118.787 30.1704 118.442V112.509C30.1704 112.164 30.4509 111.884 30.7954 111.884H35.0322C36.0677 111.884 36.9072 111.044 36.9072 110.009V105.772C36.9072 105.427 37.1877 105.147 37.5322 105.147H43.4657C43.8102 105.147 44.0907 105.427 44.0907 105.772V110.009C44.0907 111.044 44.9303 111.884 45.9658 111.884H50.2025C50.547 111.884 50.8275 112.164 50.8275 112.509L50.8273 118.442Z" fill="black"/>
<path d="M131.205 108.134H128.843V105.772C128.843 103.36 126.88 101.397 124.468 101.397H118.535C116.122 101.397 114.16 103.36 114.16 105.772V108.134H111.798C109.386 108.134 107.423 110.096 107.423 112.509V118.442C107.423 120.854 109.386 122.817 111.798 122.817H114.16V125.179C114.16 127.591 116.122 129.554 118.535 129.554H124.468C126.88 129.554 128.843 127.591 128.843 125.179V122.817H131.205C133.617 122.817 135.58 120.854 135.58 118.442V112.509C135.58 110.096 133.617 108.134 131.205 108.134ZM131.83 118.442C131.83 118.787 131.549 119.067 131.205 119.067H126.968C125.932 119.067 125.093 119.906 125.093 120.942V125.179C125.093 125.524 124.813 125.804 124.468 125.804H118.535C118.19 125.804 117.91 125.524 117.91 125.179V120.942C117.91 119.906 117.07 119.067 116.035 119.067H111.798C111.453 119.067 111.173 118.787 111.173 118.442V112.509C111.173 112.164 111.453 111.884 111.798 111.884H116.035C117.07 111.884 117.91 111.044 117.91 110.009V105.772C117.91 105.427 118.19 105.147 118.535 105.147H124.468C124.813 105.147 125.093 105.427 125.093 105.772V110.009C125.093 111.044 125.932 111.884 126.968 111.884H131.205C131.549 111.884 131.83 112.164 131.83 112.509V118.442Z" fill="black"/>
</svg>
