<svg width="155" height="148" viewBox="0 0 155 148" fill="none" xmlns="http://www.w3.org/2000/svg">
<circle cx="71.5" cy="71.5" r="71" stroke="black"/>
<circle cx="83.5" cy="76.5" r="71" stroke="#D8B345"/>
<circle cx="78.5" cy="76.5" r="71.5" fill="#E8C05B"/>
<path d="M141.125 53.1464H63.372C63.9 52.8156 64.424 52.4854 64.9442 52.1579C74.243 46.3004 83.0263 40.7674 96.7688 41.9346C98.265 42.0614 99.7205 41.5984 100.869 40.6304C102.019 39.6616 102.721 38.3039 102.848 36.8071C103.11 33.7159 100.81 30.9879 97.7213 30.7256C86.2615 29.7526 77.8133 32.3859 71.035 35.6641C72.1037 31.0896 72.3695 26.8126 72.375 23.7361C72.3787 20.6494 70.0127 18.1324 66.9888 18.0056C65.4415 17.9374 63.9732 18.4941 62.857 19.5644C61.7402 20.6354 61.1253 22.0769 61.1253 23.6239C61.1253 25.6181 60.997 27.5869 60.7445 29.4751C60.1825 33.6716 58.5843 37.7291 56.1222 41.2084C55.524 42.0536 55.7245 43.2239 56.5698 43.8221C57.4148 44.4199 58.5853 44.2199 59.1833 43.3744C61.9943 39.4021 63.8193 34.7679 64.4613 29.9726C64.736 27.9201 64.8753 25.7839 64.8753 23.6239C64.8753 23.1084 65.0802 22.6281 65.4525 22.2711C65.8242 21.9146 66.315 21.7286 66.8317 21.7521C67.822 21.7936 68.6265 22.6814 68.6253 23.7304C68.6185 27.4696 68.202 33.1079 66.2557 38.7331C66.0017 39.4674 66.2267 40.2824 66.822 40.7819C67.417 41.2816 68.2588 41.3629 68.9378 40.9854C75.846 37.1509 84.6312 33.3774 97.4043 34.4619C98.4333 34.5491 99.1995 35.4591 99.112 36.4901C99.0697 36.9879 98.8357 37.4399 98.4525 37.7626C98.0695 38.0856 97.5835 38.2414 97.0865 38.1979C82.0913 36.9239 72.7915 42.7826 62.946 48.9844C60.6055 50.4584 58.1855 51.9824 55.7082 53.3911C54.9685 53.8119 54.6047 54.6776 54.8225 55.5004C55.04 56.3231 55.7842 56.8961 56.635 56.8961H139.25V60.6526H18.75V56.8961H31.025C31.035 56.8961 31.045 56.8961 31.055 56.8959C35.606 56.8229 39.8935 56.0769 44.1645 54.6144C47.2705 53.5466 50.1673 51.9974 52.7743 50.0099C53.5978 49.3819 53.7563 48.2054 53.1285 47.3819C52.5005 46.5584 51.324 46.3999 50.5005 47.0276C48.2132 48.7716 45.6715 50.1309 42.9475 51.0671C39.061 52.3981 35.1562 53.0781 31.01 53.1461H16.875C15.8395 53.1461 15 53.9856 15 55.0211V105.419C15 106.454 15.8395 107.294 16.875 107.294H61.8825C71.5705 107.294 80.3568 111.575 87.997 120.019C93.9415 126.59 96.9227 133.329 96.9512 133.395C97.8435 135.459 99.8723 136.794 102.12 136.794C102.884 136.794 103.631 136.639 104.342 136.333C107.191 135.105 108.509 131.79 107.291 128.963C107.287 128.954 107.113 128.542 106.758 127.809C108.623 128.061 110.529 128.189 112.457 128.189C118.129 128.189 124.095 127.068 129.707 124.948C130.676 124.582 131.165 123.5 130.799 122.531C130.433 121.562 129.351 121.074 128.382 121.439C123.188 123.401 117.681 124.438 112.457 124.438C109.451 124.438 106.511 124.101 103.72 123.435C102.992 123.261 102.232 123.536 101.784 124.134C101.336 124.732 101.286 125.54 101.657 126.189C103.105 128.725 103.823 130.39 103.838 130.425C104.247 131.375 103.807 132.48 102.858 132.888C102.619 132.991 102.371 133.043 102.119 133.043C101.369 133.043 100.691 132.597 100.399 131.922C100.369 131.851 97.226 124.632 90.7775 117.503C82.3962 108.24 72.6742 103.543 61.882 103.543H18.75V99.7869H139.25V103.543H85.51C84.6878 103.543 83.9615 104.079 83.7185 104.864C83.4757 105.65 83.7728 106.502 84.4515 106.966C86.6095 108.442 88.7068 110.147 90.6848 112.034C94.4388 115.62 98.8643 118.201 103.483 119.499C106.175 120.254 109.016 120.656 111.927 120.696C119.232 120.805 126.945 118.709 133.662 114.798C134.106 114.539 134.624 114.474 135.118 114.615C135.614 114.757 136.02 115.087 136.262 115.544C136.676 116.328 136.426 117.356 135.681 117.936C134.863 118.572 134.716 119.75 135.352 120.567C135.722 121.042 136.275 121.291 136.834 121.291C137.236 121.291 137.641 121.162 137.983 120.896C140.179 119.188 140.849 116.2 139.577 113.792C138.853 112.422 137.635 111.434 136.148 111.009C134.662 110.585 133.108 110.78 131.774 111.558C125.638 115.13 118.608 117.045 111.98 116.946C109.392 116.911 106.874 116.555 104.497 115.888C100.467 114.757 96.5865 112.486 93.274 109.322C92.5405 108.622 91.7913 107.945 91.029 107.293H141.125C142.16 107.293 143 106.454 143 105.418V55.0209C143 53.9859 142.16 53.1464 141.125 53.1464ZM18.75 96.0374V64.4029H139.25V69.0531H133.219C132.184 69.0531 131.344 69.8926 131.344 70.9281C131.344 71.9636 132.184 72.8031 133.219 72.8031H139.25V96.0374H18.75Z" fill="black"/>
<path d="M71.8225 75.6566C71.8225 70.2446 66.279 65.8416 59.465 65.8416C53.0373 65.8416 47.7425 69.7601 47.1625 74.7474C46.0232 74.4714 44.8155 74.3216 43.564 74.3216C36.7502 74.3216 31.2068 78.7251 31.2068 84.1379C31.2068 89.5506 36.7502 93.9541 43.564 93.9541C49.9902 93.9541 55.2843 90.0369 55.866 85.0509C57.0238 85.3276 58.2345 85.4744 59.4647 85.4744C66.279 85.4741 71.8225 81.0701 71.8225 75.6566ZM50.8575 75.6566C50.8575 72.3691 54.7993 69.5916 59.465 69.5916C64.1307 69.5916 68.0725 72.3691 68.0725 75.6566C68.0725 78.9456 64.1307 81.7241 59.465 81.7241C57.9702 81.7241 56.5247 81.4491 55.24 80.9289C54.4153 79.0404 52.886 77.4119 50.9002 76.2441C50.8727 76.0486 50.8575 75.8524 50.8575 75.6566ZM43.564 90.2039C38.8982 90.2039 34.9568 87.4259 34.9568 84.1376C34.9568 80.8494 38.8985 78.0714 43.564 78.0714C48.2295 78.0714 52.1715 80.8494 52.1715 84.1376C52.1715 87.4259 48.2297 90.2039 43.564 90.2039Z" fill="black"/>
<path d="M59.4655 78.0676C60.8855 78.0676 62.306 77.5269 63.387 76.4461C64.1193 75.7139 64.1193 74.5266 63.387 73.7944C62.6545 73.0621 61.4675 73.0624 60.7352 73.7944C60.0352 74.4949 58.896 74.4946 58.1955 73.7944C57.4632 73.0621 56.276 73.0621 55.544 73.7944C54.8117 74.5266 54.8117 75.7139 55.544 76.4459C56.6252 77.5271 58.0452 78.0676 59.4655 78.0676Z" fill="black"/>
<path d="M97.6152 79.5866C96.7677 80.1816 96.563 81.3511 97.1578 82.1986C97.7398 83.0276 98.035 83.9151 98.035 84.8364C98.035 88.1254 94.0932 90.9039 89.4275 90.9039C84.7617 90.9039 80.82 88.1254 80.82 84.8364C80.82 81.5489 84.7617 78.7714 89.4275 78.7714C90.193 78.7714 90.9478 78.8431 91.6708 78.9841C92.6865 79.1829 93.6717 78.5199 93.8702 77.5034C94.0687 76.4871 93.4058 75.5024 92.3895 75.3039C91.4305 75.1164 90.4337 75.0216 89.4275 75.0216C82.6135 75.0216 77.07 79.4246 77.07 84.8366C77.07 90.2499 82.6135 94.6541 89.4275 94.6541C96.2415 94.6541 101.785 90.2499 101.785 84.8366C101.785 83.1534 101.246 81.4964 100.227 80.0444C99.6322 79.1964 98.4628 78.9921 97.6152 79.5866Z" fill="black"/>
<path d="M90.6977 82.9741C90.3585 83.3134 89.9075 83.5001 89.4277 83.5001C88.9482 83.5001 88.4972 83.3134 88.158 82.9741C87.4258 82.2421 86.2385 82.2419 85.5062 82.9741C84.774 83.7064 84.774 84.8936 85.5062 85.6259C86.5537 86.6734 87.9465 87.2504 89.4277 87.2504C90.909 87.2504 92.3018 86.6734 93.3493 85.6259C94.0815 84.8936 94.0815 83.7064 93.3493 82.9744C92.617 82.2419 91.4297 82.2419 90.6977 82.9741Z" fill="black"/>
<path d="M127.646 76.0496C126.117 72.0074 121.391 69.0531 115.811 69.0531C108.997 69.0531 103.453 73.4566 103.453 78.8694C103.453 82.4411 105.868 85.5724 109.467 87.2899C110.995 91.4099 115.801 94.3119 121.32 94.3119C128.134 94.3119 133.677 89.9076 133.677 84.4944C133.677 80.9766 131.389 77.8066 127.646 76.0496ZM107.203 78.8694C107.203 75.5811 111.145 72.8031 115.81 72.8031C120.476 72.8031 124.418 75.5811 124.418 78.8694C124.418 82.1576 120.476 84.9356 115.81 84.9356C111.145 84.9356 107.203 82.1576 107.203 78.8694ZM121.32 90.5616C118.933 90.5616 116.71 89.8364 115.121 88.6694C115.349 88.6794 115.579 88.6854 115.811 88.6854C121.854 88.6854 126.895 85.2201 127.958 80.6599C129.209 81.7304 129.927 83.0781 129.927 84.4939C129.927 87.7831 125.986 90.5616 121.32 90.5616Z" fill="black"/>
<path d="M119.732 79.6576C120.464 78.9254 120.464 77.7381 119.732 77.0059C119 76.2736 117.812 76.2739 117.08 77.0059C116.741 77.3451 116.29 77.5319 115.811 77.5319C115.331 77.5319 114.88 77.3451 114.541 77.0059C113.809 76.2739 112.621 76.2736 111.889 77.0059C111.157 77.7381 111.157 78.9254 111.889 79.6576C112.937 80.7051 114.329 81.2821 115.811 81.2821C117.292 81.2821 118.685 80.7051 119.732 79.6576Z" fill="black"/>
<path d="M44.834 82.2741C44.4947 82.6134 44.0437 82.8001 43.564 82.8001C43.0845 82.8001 42.6335 82.6134 42.2943 82.2741C41.5618 81.5421 40.3748 81.5419 39.6425 82.2741C38.9102 83.0064 38.9102 84.1936 39.6425 84.9259C40.69 85.9734 42.0827 86.5504 43.564 86.5504C45.0452 86.5504 46.438 85.9734 47.4855 84.9259C48.2178 84.1936 48.2178 83.0064 47.4855 82.2744C46.7535 81.5421 45.5662 81.5421 44.834 82.2741Z" fill="black"/>
<path d="M32.4862 72.7916C32.4862 71.7561 31.6467 70.9166 30.6112 70.9166H22.7052C21.6697 70.9166 20.8302 71.7561 20.8302 72.7916C20.8302 73.8271 21.6697 74.6666 22.7052 74.6666H30.6112C31.6467 74.6666 32.4862 73.8271 32.4862 72.7916Z" fill="black"/>
<path d="M71.091 89.2861H63.185C62.1495 89.2861 61.31 90.1256 61.31 91.1611C61.31 92.1966 62.1495 93.0361 63.185 93.0361H71.091C72.1265 93.0361 72.966 92.1966 72.966 91.1611C72.966 90.1256 72.1265 89.2861 71.091 89.2861Z" fill="black"/>
<path d="M84.1175 70.7304H92.0235C93.059 70.7304 93.8985 69.8909 93.8985 68.8554C93.8985 67.8199 93.059 66.9804 92.0235 66.9804H84.1175C83.082 66.9804 82.2425 67.8199 82.2425 68.8554C82.2425 69.8909 83.082 70.7304 84.1175 70.7304Z" fill="black"/>
</svg>
