<svg width="211" height="384" viewBox="0 0 211 384" fill="none" xmlns="http://www.w3.org/2000/svg">
<g clip-path="url(#clip0_42_4589)">
<path d="M114.677 154.04C114.677 154.04 108.727 99.2836 96.7285 52.8403" stroke="#393A3C" stroke-width="0.98" stroke-miterlimit="10"/>
<path d="M106.331 44.2697C107.018 48.3776 104.251 52.2551 100.14 52.9431C96.0292 53.6311 92.1498 50.8661 91.4623 46.7582C90.7748 42.6504 93.5425 38.7729 97.6532 38.0849C101.764 37.3969 105.643 40.1619 106.331 44.2697Z" fill="#ACBC9B"/>
<path d="M81.3651 69.4283C87.391 68.4198 91.459 62.7206 90.4511 56.6989C89.4433 50.6771 83.7413 46.6131 77.7154 47.6216C71.6895 48.6302 67.6215 54.3293 68.6294 60.3511C69.6372 66.3728 75.3392 70.4368 81.3651 69.4283Z" fill="#ACBC9B"/>
<path d="M87.0574 36.4214C87.6572 40.0048 85.2318 43.3758 81.6677 43.9723C78.1036 44.5688 74.7091 42.1494 74.1131 38.5878C73.517 35.0262 75.9387 31.6334 79.5028 31.0369C83.0668 30.4404 86.4613 32.8598 87.0574 36.4214Z" fill="#ACBC9B"/>
<path d="M95.3154 28.8171C95.5641 30.303 94.5626 31.706 93.0757 31.9549C91.5889 32.2037 90.1852 31.2032 89.9365 29.7174C89.6878 28.2316 90.6893 26.8285 92.1761 26.5797C93.663 26.3308 95.0667 27.3313 95.3154 28.8171Z" fill="#ACBC9B"/>
<path d="M109.728 57.1789C110.038 59.0361 108.778 60.7745 106.942 61.0819C105.105 61.3893 103.344 60.1341 103.037 58.2987C102.73 56.4632 103.986 54.7031 105.823 54.3957C107.659 54.0883 109.42 55.3434 109.728 57.1789Z" fill="#ACBC9B"/>
<path d="M115.061 27.8039C114.315 23.3465 110.104 20.345 105.643 21.0915C101.183 21.8381 98.1784 26.0472 98.9245 30.5047C99.6705 34.9622 103.882 37.9636 108.342 37.2171C112.803 36.4706 115.807 32.2614 115.061 27.8039Z" fill="#ACBC9B"/>
<path d="M65.3396 43.3808C65.0397 41.5891 66.2415 39.9054 68.0345 39.6054C69.8274 39.3053 71.5119 40.5059 71.8118 42.2976C72.1117 44.0893 70.9099 45.773 69.1169 46.0731C67.324 46.3732 65.6395 45.1726 65.3396 43.3808Z" fill="#ACBC9B"/>
<path d="M118.293 52.0837C121.928 51.4753 124.382 48.0375 123.774 44.4052C123.166 40.7728 119.727 38.3214 116.092 38.9297C112.457 39.5381 110.003 42.9759 110.611 46.6082C111.219 50.2406 114.658 52.692 118.293 52.0837Z" fill="#ACBC9B"/>
<path d="M90.3784 69.8288C90.6819 71.6424 92.3919 72.8612 94.2068 72.5575C96.0216 72.2537 97.2416 70.5445 96.938 68.731C96.6345 66.9174 94.9245 65.6986 93.1097 66.0023C91.2948 66.3061 90.0749 68.0152 90.3784 69.8288Z" fill="#ACBC9B"/>
<path d="M83.0641 25.589C86.5903 24.9988 88.9707 21.6639 88.381 18.1401C87.7912 14.6164 84.4546 12.2382 80.9284 12.8284C77.4022 13.4186 75.0218 16.7535 75.6115 20.2773C76.2013 23.801 79.5379 26.1792 83.0641 25.589Z" fill="#ACBC9B"/>
<path d="M73.072 28.07C72.7027 25.8631 70.6135 24.3933 68.4269 24.7593C66.2404 25.1252 64.7473 27.217 65.113 29.4021C65.4787 31.5871 67.5715 33.0787 69.7581 32.7128C71.9446 32.3468 73.4377 30.255 73.072 28.07Z" fill="#ACBC9B"/>
<path d="M106.331 44.2697C107.018 48.3776 104.251 52.2551 100.14 52.9431C96.0292 53.6311 92.1498 50.8661 91.4623 46.7582C90.7748 42.6504 93.5425 38.7729 97.6532 38.0849C101.764 37.3969 105.643 40.1619 106.331 44.2697Z" stroke="#393A3C" stroke-width="0.98" stroke-miterlimit="10"/>
<path d="M81.3651 69.4283C87.391 68.4198 91.459 62.7206 90.4511 56.6989C89.4433 50.6771 83.7413 46.6131 77.7154 47.6216C71.6895 48.6302 67.6215 54.3293 68.6294 60.3511C69.6372 66.3728 75.3392 70.4368 81.3651 69.4283Z" stroke="#393A3C" stroke-width="0.98" stroke-miterlimit="10"/>
<path d="M87.0574 36.4214C87.6572 40.0048 85.2318 43.3758 81.6677 43.9723C78.1036 44.5688 74.7091 42.1494 74.1131 38.5878C73.517 35.0262 75.9387 31.6334 79.5028 31.0369C83.0668 30.4404 86.4613 32.8598 87.0574 36.4214Z" stroke="#393A3C" stroke-width="0.98" stroke-miterlimit="10"/>
<path d="M95.3154 28.8171C95.5641 30.303 94.5626 31.706 93.0757 31.9549C91.5889 32.2037 90.1852 31.2032 89.9365 29.7174C89.6878 28.2316 90.6893 26.8285 92.1761 26.5797C93.663 26.3308 95.0667 27.3313 95.3154 28.8171Z" stroke="#393A3C" stroke-width="0.98" stroke-miterlimit="10"/>
<path d="M109.728 57.1789C110.038 59.0361 108.778 60.7745 106.942 61.0819C105.105 61.3893 103.344 60.1341 103.037 58.2987C102.73 56.4632 103.986 54.7031 105.823 54.3957C107.659 54.0883 109.42 55.3434 109.728 57.1789Z" stroke="#393A3C" stroke-width="0.98" stroke-miterlimit="10"/>
<path d="M115.061 27.8039C114.315 23.3465 110.104 20.345 105.643 21.0915C101.183 21.8381 98.1784 26.0472 98.9245 30.5047C99.6705 34.9622 103.882 37.9636 108.342 37.2171C112.803 36.4706 115.807 32.2614 115.061 27.8039Z" stroke="#393A3C" stroke-width="0.98" stroke-miterlimit="10"/>
<path d="M65.3396 43.3808C65.0397 41.5891 66.2415 39.9054 68.0345 39.6054C69.8274 39.3053 71.5119 40.5059 71.8118 42.2976C72.1117 44.0893 70.9099 45.773 69.1169 46.0731C67.324 46.3732 65.6395 45.1726 65.3396 43.3808Z" stroke="#393A3C" stroke-width="0.98" stroke-miterlimit="10"/>
<path d="M118.293 52.0837C121.928 51.4753 124.382 48.0375 123.774 44.4052C123.166 40.7728 119.727 38.3214 116.092 38.9297C112.457 39.5381 110.003 42.9759 110.611 46.6082C111.219 50.2406 114.658 52.692 118.293 52.0837Z" stroke="#393A3C" stroke-width="0.98" stroke-miterlimit="10"/>
<path d="M90.3784 69.8288C90.6819 71.6424 92.3919 72.8612 94.2068 72.5575C96.0216 72.2537 97.2416 70.5445 96.938 68.731C96.6345 66.9174 94.9245 65.6986 93.1097 66.0023C91.2948 66.3061 90.0749 68.0152 90.3784 69.8288Z" stroke="#393A3C" stroke-width="0.98" stroke-miterlimit="10"/>
<path d="M83.0641 25.589C86.5903 24.9988 88.9707 21.6639 88.381 18.1401C87.7912 14.6164 84.4546 12.2382 80.9284 12.8284C77.4022 13.4186 75.0218 16.7535 75.6115 20.2773C76.2013 23.801 79.5379 26.1792 83.0641 25.589Z" stroke="#393A3C" stroke-width="0.98" stroke-miterlimit="10"/>
<path d="M73.072 28.07C72.7027 25.8631 70.6135 24.3933 68.4269 24.7593C66.2404 25.1252 64.7473 27.217 65.113 29.4021C65.4787 31.5871 67.5715 33.0787 69.7581 32.7128C71.9446 32.3468 73.4377 30.255 73.072 28.07Z" stroke="#393A3C" stroke-width="0.98" stroke-miterlimit="10"/>
<path d="M64.5016 120.836L48.6132 124.484C39.747 126.305 28.0448 120.986 23.6267 112.987C20.0768 106.551 19.6998 103.626 14.9959 99.4267C20.8202 99.9794 24.799 97.9657 30.7898 96.424C40.6871 93.9139 51.0621 98.2873 56.1331 107.097L64.4797 120.84L64.5016 120.836Z" fill="#ACBC9B"/>
<path d="M66.046 125.632L62.4963 138.67C60.3719 145.855 51.88 152.33 44.3212 152.427C38.2202 152.505 35.9382 151.629 31.0263 153.439C33.6991 149.398 33.7772 145.701 35.0136 140.732C37.0316 132.51 44.2993 126.644 52.7291 126.378L66.0496 125.654L66.046 125.632Z" fill="#ACBC9B"/>
<path d="M70.7553 126.506L78.077 132.514C82.0662 135.934 83.7577 143.221 81.6503 148.089C79.9468 152.013 78.7302 153.205 78.4663 156.865C76.6606 154 74.3164 152.888 71.4943 150.664C66.8344 146.997 65.1689 140.672 67.4254 135.217L70.799 126.499L70.7553 126.506Z" fill="#ACBC9B"/>
<path d="M72.9756 121.373L82.372 122.585C87.5914 123.149 94.0657 119.393 96.1731 114.525C97.8766 110.601 97.9266 108.885 100.4 106.203C97.069 106.85 94.6412 105.909 91.0874 105.358C85.2264 104.452 79.4551 107.574 77.0272 112.945L72.9756 121.373Z" fill="#ACBC9B"/>
<path d="M69.2272 118.316L76.3167 106.819C80.1107 100.344 79.0332 89.7423 73.9166 84.152C69.792 79.6535 67.5901 78.5844 65.55 73.7819C64.4265 78.4849 61.782 81.0839 58.9964 85.3912C54.3863 92.4972 55.0659 101.795 60.642 108.117L69.2272 118.316Z" fill="#ACBC9B"/>
<path d="M64.5016 120.836L48.6132 124.484C39.747 126.305 28.0448 120.986 23.6267 112.987C20.0768 106.551 19.6998 103.626 14.9959 99.4267C20.8202 99.9794 24.799 97.9657 30.7898 96.424C40.6871 93.9139 51.0621 98.2873 56.1331 107.097L64.4797 120.84L64.5016 120.836Z" stroke="#393A3C" stroke-width="0.86" stroke-miterlimit="10"/>
<path d="M66.046 125.632L62.4963 138.67C60.3719 145.855 51.88 152.33 44.3212 152.427C38.2202 152.505 35.9382 151.629 31.0263 153.439C33.6991 149.398 33.7772 145.701 35.0136 140.732C37.0316 132.51 44.2993 126.644 52.7291 126.378L66.0496 125.654L66.046 125.632Z" stroke="#393A3C" stroke-width="0.86" stroke-miterlimit="10"/>
<path d="M64.1918 120.866C64.1918 120.866 99.671 132.067 117.005 158.277" stroke="#393A3C" stroke-width="0.86" stroke-miterlimit="10"/>
<path d="M70.1811 123.076L65.8821 125.862" stroke="#393A3C" stroke-width="0.86" stroke-miterlimit="10"/>
<path d="M70.7553 126.506L78.077 132.514C82.0662 135.934 83.7577 143.221 81.6503 148.089C79.9468 152.013 78.7302 153.205 78.4663 156.865C76.6606 154 74.3164 152.888 71.4943 150.664C66.8344 146.997 65.1689 140.672 67.4254 135.217L70.799 126.499L70.7553 126.506Z" stroke="#393A3C" stroke-width="0.86" stroke-miterlimit="10"/>
<path d="M70.3014 123.123L70.7553 126.506" stroke="#393A3C" stroke-width="0.86" stroke-miterlimit="10"/>
<path d="M72.9756 121.373L82.372 122.585C87.5914 123.149 94.0657 119.393 96.1731 114.525C97.8766 110.601 97.9266 108.885 100.4 106.203C97.069 106.85 94.6412 105.909 91.0874 105.358C85.2264 104.452 79.4551 107.574 77.0272 112.945L72.9756 121.373Z" stroke="#393A3C" stroke-width="0.86" stroke-miterlimit="10"/>
<path d="M70.2031 123.341L72.9756 121.372" stroke="#393A3C" stroke-width="0.86" stroke-miterlimit="10"/>
<path d="M69.2272 118.316L76.3167 106.819C80.1107 100.344 79.0332 89.7423 73.9166 84.152C69.792 79.6535 67.5901 78.5844 65.55 73.7819C64.4265 78.4849 61.782 81.0839 58.9964 85.3912C54.3863 92.4972 55.0659 101.795 60.642 108.117L69.2272 118.316Z" stroke="#393A3C" stroke-width="0.86" stroke-miterlimit="10"/>
<path d="M70.1811 123.076L69.2964 118.192" stroke="#393A3C" stroke-width="0.86" stroke-miterlimit="10"/>
<path d="M134.518 96.1127L145.098 94.9934C150.951 94.2385 157.063 88.4535 158.08 82.5778C158.905 77.835 158.503 75.9705 160.531 72.374C157.062 73.9429 154.165 73.5518 150.152 73.8865C143.501 74.4381 138.03 79.3521 136.779 85.8508L134.54 96.109L134.518 96.1127Z" fill="#ACBC9B"/>
<path d="M134.575 99.405L139.528 106.707C142.377 110.701 148.993 112.895 153.679 111.347C157.473 110.106 158.693 109.071 162.097 109.13C159.596 107.212 158.745 104.951 156.925 102.134C153.923 97.4921 148.203 95.417 142.945 97.0383L134.557 99.4306L134.575 99.405Z" fill="#ACBC9B"/>
<path d="M131.864 100.937L128.631 106.195C126.901 109.158 127.4 114.016 129.737 116.567C131.634 118.631 132.636 119.115 133.567 121.317C134.083 119.164 135.278 117.976 136.567 116.008C138.675 112.758 138.345 108.5 135.792 105.603L131.864 100.937Z" fill="#ACBC9B"/>
<path d="M129.392 98.2509L123.85 100.998C120.745 102.461 115.956 101.51 113.618 98.959C111.744 96.8917 111.346 95.8577 109.246 94.7266C111.44 94.4043 112.74 93.3106 114.806 92.2236C118.235 90.4144 122.445 91.1249 125.092 93.9164L129.392 98.2509Z" fill="#ACBC9B"/>
<path d="M131.056 95.569L124.23 89.9727C120.525 86.7741 118.921 80.0118 120.88 75.4611C122.47 71.8031 123.585 70.6731 123.849 67.282C125.534 69.965 127.729 70.9903 130.365 73.0425C134.711 76.4481 136.282 82.34 134.189 87.4298L131.052 95.5471L131.056 95.569Z" fill="#ACBC9B"/>
<path d="M134.518 96.1127L145.098 94.9934C150.951 94.2385 157.063 88.4535 158.08 82.5778C158.905 77.835 158.503 75.9705 160.531 72.374C157.062 73.9429 154.165 73.5518 150.152 73.8865C143.501 74.4381 138.03 79.3521 136.779 85.8508L134.54 96.109L134.518 96.1127Z" stroke="#393A3C" stroke-width="0.86" stroke-miterlimit="10"/>
<path d="M134.575 99.405L139.528 106.707C142.377 110.701 148.993 112.895 153.679 111.347C157.473 110.106 158.693 109.071 162.097 109.13C159.596 107.212 158.745 104.951 156.925 102.134C153.923 97.4921 148.203 95.417 142.945 97.0383L134.557 99.4306L134.575 99.405Z" stroke="#393A3C" stroke-width="0.86" stroke-miterlimit="10"/>
<path d="M134.715 96.0797C134.715 96.0797 120.955 106.267 110.944 125.823" stroke="#393A3C" stroke-width="0.86" stroke-miterlimit="10"/>
<path d="M131.491 98.708L134.728 99.514" stroke="#393A3C" stroke-width="0.86" stroke-miterlimit="10"/>
<path d="M131.864 100.937L128.631 106.195C126.901 109.158 127.4 114.016 129.737 116.567C131.634 118.631 132.636 119.115 133.567 121.317C134.083 119.164 135.278 117.976 136.567 116.008C138.675 112.758 138.345 108.5 135.792 105.603L131.864 100.937Z" stroke="#393A3C" stroke-width="0.86" stroke-miterlimit="10"/>
<path d="M131.433 98.7627L131.864 100.937" stroke="#393A3C" stroke-width="0.86" stroke-miterlimit="10"/>
<path d="M129.392 98.2509L123.85 100.998C120.745 102.461 115.956 101.51 113.618 98.959C111.744 96.8917 111.346 95.8577 109.246 94.7266C111.44 94.4043 112.74 93.3106 114.806 92.2236C118.235 90.4144 122.445 91.1249 125.092 93.9164L129.392 98.2509Z" stroke="#393A3C" stroke-width="0.86" stroke-miterlimit="10"/>
<path d="M131.52 98.883L129.392 98.251" stroke="#393A3C" stroke-width="0.86" stroke-miterlimit="10"/>
<path d="M131.056 95.569L124.23 89.9727C120.525 86.7741 118.921 80.0118 120.88 75.4611C122.47 71.8031 123.585 70.6731 123.849 67.282C125.534 69.965 127.729 70.9903 130.365 73.0425C134.711 76.4481 136.282 82.34 134.189 87.4298L131.052 95.5471L131.056 95.569Z" stroke="#393A3C" stroke-width="0.86" stroke-miterlimit="10"/>
<path d="M131.491 98.7082L131.001 95.5107" stroke="#393A3C" stroke-width="0.86" stroke-miterlimit="10"/>
<path d="M173.459 226.841C167.676 210.692 163.917 201.528 140.641 191.384C140.641 191.384 141.236 174.258 131.716 166.934L132.022 166.883C131.038 154.558 122.706 152.584 110.406 154.575C95.1294 157.042 98.6608 169.411 98.9054 170.202C97.1898 172.039 95.9303 174.586 95.772 178.206C95.2505 190.535 100.272 214.089 100.838 216.802L100.313 215.677C100.313 215.677 87.2073 223.329 82.3878 240.196C76.9572 259.187 71.4165 263.956 71.4165 263.956C71.4165 263.956 83.3349 258.614 89.9967 244.965C93.7609 237.237 98.9629 232.862 103.211 230.713C103.337 234.017 104.859 270.511 114.497 297.874C124.583 326.578 118.07 345.817 118.07 345.817C118.07 345.817 133.729 329.921 138.136 304.543C148.35 333.741 176.609 357.674 176.609 357.674C167.599 343.458 155.611 290.634 154.833 274.703C154.077 258.769 146.347 209.096 146.347 209.096C154.013 210.71 164.274 213.193 173.451 226.797L173.459 226.841Z" fill="#ACBC9B"/>
<path d="M98.7232 170.322C98.7232 170.322 94.4079 157.162 110.209 154.607C122.509 152.616 130.841 154.591 131.829 166.937" stroke="#393A3C" stroke-width="0.98" stroke-miterlimit="10"/>
<path d="M136.522 196.993C136.522 196.993 134.07 205.714 140.235 207.76C147.802 210.267 161.407 209.36 173.24 226.877C167.458 210.729 163.699 201.564 140.422 191.421C140.422 191.421 141.444 162.071 119.523 163.786" stroke="#393A3C" stroke-width="0.98" stroke-miterlimit="10"/>
<path d="M98.5355 186.257C98.5355 186.257 104.936 181.255 118.26 180.687" stroke="#393A3C" stroke-width="0.59" stroke-miterlimit="10"/>
<path d="M109.148 178.079C109.148 178.079 117.19 175.902 126.032 176.084" stroke="#393A3C" stroke-width="0.59" stroke-miterlimit="10"/>
<path d="M144.873 218.552C144.873 218.552 140.306 217.452 129.904 218.159" stroke="#393A3C" stroke-width="0.59" stroke-miterlimit="10"/>
<path d="M124.679 219.034C124.679 219.034 123.177 218.656 118.447 220.077" stroke="#393A3C" stroke-width="0.59" stroke-miterlimit="10"/>
<path d="M154.491 205.105C154.327 205.604 154.236 206.136 154.215 206.678" stroke="#393A3C" stroke-width="0.59" stroke-miterlimit="10"/>
<path d="M157.149 200.841C157.149 200.841 155.856 202.113 155.004 203.873" stroke="#393A3C" stroke-width="0.59" stroke-miterlimit="10"/>
<path d="M95.5533 223.1C95.5533 223.1 99.6322 224.236 100.435 231.717" stroke="#393A3C" stroke-width="0.59" stroke-miterlimit="10"/>
<path d="M84.825 232.061C84.825 232.061 89.5447 231.922 91.3309 238.968" stroke="#393A3C" stroke-width="0.59" stroke-miterlimit="10"/>
<path d="M84.1203 236.178C84.1203 236.178 86.3983 236.358 87.1464 238.007" stroke="#393A3C" stroke-width="0.59" stroke-miterlimit="10"/>
<path d="M102.996 230.502C102.996 230.502 104.199 269.25 114.282 297.932C124.368 326.636 117.855 345.875 117.855 345.875C117.855 345.875 144.704 318.672 137.997 278.599C137.997 278.599 133.176 274.509 127.71 275.424" stroke="#393A3C" stroke-width="0.98" stroke-miterlimit="10"/>
<path d="M146.136 209.176C146.136 209.176 153.862 258.827 154.621 274.783C155.378 290.717 167.365 343.542 176.398 357.754C176.398 357.754 148.117 333.825 137.928 304.644" stroke="#393A3C" stroke-width="0.98" stroke-miterlimit="10"/>
<path d="M110.93 165.763C110.93 165.763 96.1071 165.167 95.557 178.264C95.0068 191.362 100.316 215.699 100.316 215.699L100.119 215.732C100.119 215.732 87.0141 223.384 82.1946 240.251C76.7641 259.242 71.2233 264.01 71.2233 264.01C71.2233 264.01 83.1418 258.669 89.8036 245.02C94.4961 235.452 101.345 230.981 105.878 229.593C105.878 229.593 109.878 225.15 106.412 218.542" stroke="#393A3C" stroke-width="0.98" stroke-miterlimit="10"/>
<path d="M146.939 198.529C146.939 198.529 144.375 202.283 144.081 209.52" stroke="#393A3C" stroke-width="0.59" stroke-miterlimit="10"/>
<path d="M123.563 275.893C123.563 275.893 118.398 275.792 114.001 278.662" stroke="#393A3C" stroke-width="0.59" stroke-miterlimit="10"/>
<path d="M139.526 287.732C139.526 287.732 143.297 286.495 148.647 285.554" stroke="#393A3C" stroke-width="0.59" stroke-miterlimit="10"/>
<path d="M158.082 297.476C158.082 297.476 152.979 296.668 144.882 299.191" stroke="#393A3C" stroke-width="0.59" stroke-miterlimit="10"/>
<path d="M142.339 300.111L140.729 301.234" stroke="#393A3C" stroke-width="0.59" stroke-miterlimit="10"/>
<path d="M143.347 316.878C143.347 316.878 149.539 310.226 161.086 311.663" stroke="#393A3C" stroke-width="0.59" stroke-miterlimit="10"/>
<path d="M155.526 314.84C155.526 314.84 157.676 313.716 161.62 314.314" stroke="#393A3C" stroke-width="0.59" stroke-miterlimit="10"/>
<path d="M159.428 325.126C159.428 325.126 157.099 325.178 153.139 328.514" stroke="#393A3C" stroke-width="0.59" stroke-miterlimit="10"/>
<path d="M168.478 338.504C168.478 338.504 163.517 338.278 161.246 342.432" stroke="#393A3C" stroke-width="0.59" stroke-miterlimit="10"/>
<path d="M138.954 295.6C138.954 295.6 132.344 291.428 124.685 293.878" stroke="#393A3C" stroke-width="0.59" stroke-miterlimit="10"/>
<path d="M117.495 308.941C117.495 308.941 122.633 306.598 128.807 307.227" stroke="#393A3C" stroke-width="0.59" stroke-miterlimit="10"/>
<path d="M127.321 309.632C127.321 309.632 130.572 309.447 133.39 310.84" stroke="#393A3C" stroke-width="0.59" stroke-miterlimit="10"/>
<path d="M140.444 191.417C140.444 191.417 138.877 191.724 138.196 193.568" stroke="#393A3C" stroke-width="0.98" stroke-miterlimit="10"/>
<path d="M105.311 257.092C105.311 257.092 116.471 252.057 135.573 252.027" stroke="#393A3C" stroke-width="0.59" stroke-miterlimit="10"/>
<path d="M131.033 248.272C131.033 248.272 137.72 246.996 142.287 247.557" stroke="#393A3C" stroke-width="0.59" stroke-miterlimit="10"/>
<path d="M153.744 264.44C153.744 264.44 146.094 263.452 140.883 265.087" stroke="#393A3C" stroke-width="0.59" stroke-miterlimit="10"/>
<path d="M98.2652 204.519C98.2652 204.519 107.717 200.691 113.527 200.617" stroke="#393A3C" stroke-width="0.59" stroke-miterlimit="10"/>
<path d="M102.666 163.395C102.666 163.395 103.451 158.681 111.643 157.67" stroke="#393A3C" stroke-width="0.59" stroke-miterlimit="10"/>
<path d="M149.835 234.097C149.835 234.097 156.51 237.584 158.619 241.993C160.725 246.381 164.819 248.952 168.361 249.033" stroke="#393A3C" stroke-width="0.67" stroke-miterlimit="10"/>
<path d="M160.961 245.375C160.961 245.375 162.549 249.759 162.397 251.402" stroke="#393A3C" stroke-width="0.67" stroke-miterlimit="10"/>
<path d="M156.073 238.601C156.073 238.601 159.857 240.124 161.825 238.986" stroke="#393A3C" stroke-width="0.67" stroke-miterlimit="10"/>
<path d="M107.975 276.503C107.975 276.503 101.736 282.736 103.131 294.969" stroke="#393A3C" stroke-width="0.67" stroke-miterlimit="10"/>
<path d="M104.844 281.564C104.844 281.564 100.386 281.524 97.3498 286.75" stroke="#393A3C" stroke-width="0.67" stroke-miterlimit="10"/>
<path d="M103.084 288.373C103.084 288.373 104.365 291.73 105.987 292.694" stroke="#393A3C" stroke-width="0.67" stroke-miterlimit="10"/>
</g>
<defs>
<clipPath id="clip0_42_4589">
<rect width="153.103" height="363.175" fill="white" transform="translate(0 25.2725) rotate(-9.50128)"/>
</clipPath>
</defs>
</svg>
