<svg width="119" height="120" viewBox="0 0 119 120" fill="none" xmlns="http://www.w3.org/2000/svg">
<g clip-path="url(#clip0_42_4682)">
<path d="M60.0132 68.6307L53.1092 54.5396C49.4522 46.64 51.8798 34.5079 58.4144 28.6576C63.676 23.9354 66.3443 22.972 69.2634 17.6545C70.0234 23.2313 72.7913 26.52 75.5445 31.8186C80.0689 40.545 78.2433 51.2162 71.0767 57.8663L60.0034 68.6471L60.0132 68.6307Z" fill="#C9A28D"/>
<path d="M55.8476 71.0989L42.8269 70.5828C35.6101 70.1262 27.6697 63.5821 25.9104 56.5011C24.4902 50.7977 24.828 48.4697 22.0483 44.2644C26.4274 45.8942 29.9107 45.1718 34.8551 45.2522C43.0051 45.3767 50.1163 50.9172 52.2245 58.7604L55.8312 71.0891L55.8476 71.0989Z" fill="#C9A28D"/>
<path d="M56.0772 75.6947L52.0292 83.8456C49.686 88.3078 43.2312 91.477 38.1933 90.5423C34.1374 89.7926 32.7414 88.9175 29.2636 89.4435C31.5567 87.1255 32.0908 84.6925 33.5493 81.5673C35.9509 76.4077 41.5311 73.4723 47.1596 74.4257L56.0772 75.6947Z" fill="#C9A28D"/>
<path d="M61.3777 76.6745L62.2921 85.7373C62.921 90.748 67.8556 96.0137 72.877 96.9387C76.9329 97.6884 78.5517 97.365 81.6192 99.1016C80.28 96.1085 80.6434 93.6626 80.3678 90.1932C79.9253 84.4948 75.732 79.7811 70.1583 78.6606L61.3613 76.6647L61.3777 76.6745Z" fill="#C9A28D"/>
<path d="M63.4078 72.5143L75.7569 76.6683C82.6553 78.821 92.3868 75.5386 96.5126 69.5415C99.8347 64.7079 100.35 62.4189 104.421 59.4728C99.7556 59.4475 96.7362 57.5177 92.0877 55.8164C84.4114 53.0232 75.8147 55.6721 71.0984 62.2495L63.4011 72.4881L63.4078 72.5143Z" fill="#C9A28D"/>
<path d="M60.0132 68.6307L53.1092 54.5396C49.4522 46.64 51.8798 34.5079 58.4144 28.6576C63.676 23.9354 66.3443 22.972 69.2634 17.6545C70.0234 23.2313 72.7913 26.52 75.5445 31.8186C80.0689 40.545 78.2433 51.2162 71.0767 57.8663L60.0034 68.6471L60.0132 68.6307Z" stroke="#393A3C" stroke-width="0.97" stroke-miterlimit="10"/>
<path d="M55.8379 71.1155L42.8172 70.5994C35.6004 70.1428 27.66 63.5987 25.9006 56.5177C24.4804 50.8143 24.8182 48.4863 22.0385 44.281C26.4177 45.9108 29.9009 45.1884 34.8454 45.2688C42.9953 45.3933 50.1065 50.9338 52.2147 58.777L55.8214 71.1057L55.8379 71.1155Z" stroke="#393A3C" stroke-width="0.97" stroke-miterlimit="10"/>
<path d="M59.9131 68.3491C59.9131 68.3491 58.4957 86.7614 49.9858 105.257" stroke="#393A3C" stroke-width="0.97" stroke-miterlimit="10"/>
<path d="M59.144 74.4362L55.5879 71.0112" stroke="#393A3C" stroke-width="0.97" stroke-miterlimit="10"/>
<path d="M56.0674 75.7108L52.0195 83.8617C49.6762 88.3239 43.2215 91.4931 38.1836 90.5584C34.1277 89.8087 32.7317 88.9336 29.2539 89.4597C31.547 87.1417 32.081 84.7086 33.5396 81.5834C35.9412 76.4238 41.5214 73.4884 47.1499 74.4419L56.0674 75.7108Z" stroke="#393A3C" stroke-width="0.97" stroke-miterlimit="10"/>
<path d="M59.1349 74.5636L56.0674 75.7109" stroke="#393A3C" stroke-width="0.97" stroke-miterlimit="10"/>
<path d="M61.368 76.6911L62.2824 85.7539C62.9112 90.7646 67.8458 96.0303 72.8672 96.9553C76.9232 97.705 78.542 97.3816 81.6094 99.1182C80.2703 96.1251 80.6337 93.6792 80.358 90.2098C79.9155 84.5114 75.7223 79.7977 70.1486 78.6772L61.3515 76.6813L61.368 76.6911Z" stroke="#393A3C" stroke-width="0.97" stroke-miterlimit="10"/>
<path d="M58.9148 74.5215L61.368 76.6912" stroke="#393A3C" stroke-width="0.97" stroke-miterlimit="10"/>
<path d="M63.4078 72.5143L75.7569 76.6683C82.6553 78.821 92.3868 75.5386 96.5126 69.5415C99.8347 64.7079 100.35 62.4189 104.421 59.4728C99.7556 59.4475 96.7362 57.5177 92.0877 55.8164C84.4114 53.0232 75.8147 55.6721 71.0984 62.2495L63.4011 72.4881L63.4078 72.5143Z" stroke="#393A3C" stroke-width="0.97" stroke-miterlimit="10"/>
<path d="M59.144 74.4361L63.559 72.5599" stroke="#393A3C" stroke-width="0.97" stroke-miterlimit="10"/>
</g>
<defs>
<clipPath id="clip0_42_4682">
<rect width="85" height="88" fill="white" transform="translate(45.0007) rotate(30.7552)"/>
</clipPath>
</defs>
</svg>
