<svg width="99" height="112" viewBox="0 0 99 112" fill="none" xmlns="http://www.w3.org/2000/svg">
<g clip-path="url(#clip0_42_7640)">
<path d="M57.0104 103.724C55.5711 91.0307 53.8437 78.0968 51.7613 65.57" stroke="#393A3C" stroke-width="0.97" stroke-miterlimit="10"/>
<path d="M65.5105 55.2671C65.9433 60.7983 61.8123 65.6327 56.2803 66.0658C50.7483 66.4989 45.9135 62.3689 45.4807 56.8377C45.0479 51.3066 49.1789 46.4722 54.7109 46.0391C60.2429 45.606 65.0777 49.736 65.5105 55.2671Z" fill="#C9A28D"/>
<path d="M42.9548 69.9438C42.3231 61.8308 35.2235 55.7425 27.0869 56.3797C18.9727 57.0119 12.8829 64.1109 13.5197 72.2462C14.1514 80.3592 21.251 86.4475 29.3876 85.8103C37.5018 85.1781 43.5916 78.0791 42.9548 69.9438Z" fill="#C9A28D"/>
<path d="M40.8059 42.5661C41.174 47.3847 37.5867 51.6058 32.7673 51.9742C27.9479 52.3426 23.7264 48.7562 23.3583 43.9375C22.9902 39.1189 26.5775 34.8978 31.3969 34.5294C36.2162 34.161 40.4377 37.7474 40.8059 42.5661Z" fill="#C9A28D"/>
<path d="M52.6806 33.4301C52.8448 35.4336 51.3552 37.1717 49.3515 37.3359C47.3478 37.5002 45.6095 36.011 45.4454 34.0076C45.2812 32.0042 46.7708 30.2661 48.7745 30.1018C50.7782 29.9375 52.5165 31.4267 52.6806 33.4301Z" fill="#C9A28D"/>
<path d="M68.5222 72.8157C68.7237 75.3032 66.8444 77.5031 64.3515 77.6824C61.8636 77.884 59.6634 76.0051 59.4843 73.5126C59.2829 71.0251 61.1622 68.8252 63.6551 68.6459C66.143 68.4443 68.3431 70.3232 68.5222 72.8157Z" fill="#C9A28D"/>
<path d="M70.5099 45.902C76.3967 44.5928 80.1078 38.76 78.7988 32.8741C77.4898 26.9883 71.6564 23.2782 65.7696 24.5874C59.8828 25.8967 56.1717 31.7294 57.4807 37.6153C58.7898 43.5011 64.6231 47.2112 70.5099 45.902Z" fill="#C9A28D"/>
<path d="M11.133 49.2829C10.9464 46.8625 12.7562 44.7717 15.1497 44.5677C17.5706 44.381 19.6615 46.1904 19.8654 48.5835C20.052 51.004 18.2422 53.0947 15.8486 53.2988C13.4551 53.5029 11.3369 51.6761 11.133 49.2829Z" fill="#C9A28D"/>
<path d="M88.6619 57.504C89.0499 62.412 85.3832 66.6977 80.4744 67.086C75.5657 67.4743 71.2796 63.8084 70.8916 58.9004C70.5036 53.9924 74.1703 49.7067 79.0791 49.3184C83.9878 48.9301 88.2739 52.596 88.6619 57.504Z" fill="#C9A28D"/>
<path d="M41.3209 87.3768C41.5124 89.8196 43.6529 91.6414 46.0962 91.4497C48.5394 91.2581 50.3616 89.1177 50.17 86.6749C49.9785 84.232 47.838 82.4103 45.3948 82.6019C42.9516 82.7936 41.1294 84.9339 41.3209 87.3768Z" fill="#C9A28D"/>
<path d="M44.7033 18.4394C44.3278 13.6928 40.1832 10.1361 35.4086 10.4946C30.6612 10.8704 27.1037 15.0146 27.4619 19.7885C27.8374 24.5351 31.982 28.0918 36.7566 27.7334C41.504 27.3575 45.0615 23.2134 44.681 18.4444L44.7033 18.4394Z" fill="#C9A28D"/>
<path d="M23.2049 29.8563C22.9662 26.8847 20.3861 24.6683 17.414 24.9072C14.442 25.1461 12.225 27.726 12.4638 30.6976C12.7025 33.6692 15.2826 35.8856 18.2547 35.6467C21.2268 35.4078 23.4437 32.8279 23.2049 29.8563Z" fill="#C9A28D"/>
<path d="M65.5105 55.2671C65.9433 60.7983 61.8123 65.6327 56.2803 66.0658C50.7483 66.4989 45.9135 62.3689 45.4807 56.8377C45.0479 51.3066 49.1789 46.4722 54.7109 46.0391C60.2429 45.606 65.0777 49.736 65.5105 55.2671Z" stroke="#393A3C" stroke-width="0.97" stroke-miterlimit="10"/>
<path d="M42.9548 69.9438C42.3231 61.8308 35.2235 55.7425 27.0869 56.3797C18.9727 57.0119 12.8829 64.1109 13.5197 72.2462C14.1514 80.3592 21.251 86.4475 29.3876 85.8103C37.5018 85.1781 43.5916 78.0791 42.9548 69.9438Z" stroke="#393A3C" stroke-width="0.97" stroke-miterlimit="10"/>
<path d="M40.8059 42.5661C41.174 47.3847 37.5867 51.6058 32.7673 51.9742C27.9479 52.3426 23.7264 48.7562 23.3583 43.9375C22.9902 39.1189 26.5775 34.8978 31.3969 34.5294C36.2162 34.161 40.4377 37.7474 40.8059 42.5661Z" stroke="#393A3C" stroke-width="0.97" stroke-miterlimit="10"/>
<path d="M52.6806 33.4301C52.8448 35.4336 51.3552 37.1717 49.3515 37.3359C47.3478 37.5002 45.6095 36.011 45.4454 34.0076C45.2812 32.0042 46.7708 30.2661 48.7745 30.1018C50.7782 29.9375 52.5165 31.4267 52.6806 33.4301Z" stroke="#393A3C" stroke-width="0.97" stroke-miterlimit="10"/>
<path d="M68.5222 72.8157C68.7237 75.3032 66.8444 77.5031 64.3515 77.6824C61.8636 77.884 59.6634 76.0051 59.4843 73.5126C59.2829 71.0251 61.1622 68.8252 63.6551 68.6459C66.143 68.4443 68.3431 70.3232 68.5222 72.8157Z" stroke="#393A3C" stroke-width="0.97" stroke-miterlimit="10"/>
<path d="M70.5099 45.902C76.3967 44.5928 80.1078 38.76 78.7988 32.8741C77.4898 26.9883 71.6564 23.2782 65.7696 24.5874C59.8828 25.8967 56.1717 31.7294 57.4807 37.6153C58.7898 43.5011 64.6231 47.2112 70.5099 45.902Z" stroke="#393A3C" stroke-width="0.97" stroke-miterlimit="10"/>
<path d="M11.133 49.2829C10.9464 46.8625 12.7562 44.7717 15.1497 44.5677C17.5706 44.381 19.6615 46.1904 19.8654 48.5835C20.052 51.004 18.2422 53.0947 15.8486 53.2988C13.4551 53.5029 11.3369 51.6761 11.133 49.2829Z" stroke="#393A3C" stroke-width="0.97" stroke-miterlimit="10"/>
<path d="M88.6619 57.504C89.0499 62.412 85.3832 66.6977 80.4744 67.086C75.5657 67.4743 71.2796 63.8084 70.8916 58.9004C70.5036 53.9924 74.1703 49.7067 79.0791 49.3184C83.9878 48.9301 88.2739 52.596 88.6619 57.504Z" stroke="#393A3C" stroke-width="0.97" stroke-miterlimit="10"/>
<path d="M41.3209 87.3768C41.5124 89.8196 43.6529 91.6414 46.0962 91.4497C48.5394 91.2581 50.3616 89.1177 50.17 86.6749C49.9785 84.232 47.838 82.4103 45.3948 82.6019C42.9516 82.7936 41.1294 84.9339 41.3209 87.3768Z" stroke="#393A3C" stroke-width="0.97" stroke-miterlimit="10"/>
<path d="M44.7033 18.4394C44.3278 13.6928 40.1832 10.1361 35.4086 10.4946C30.6612 10.8704 27.1037 15.0146 27.4619 19.7885C27.8374 24.5351 31.982 28.0918 36.7566 27.7334C41.504 27.3575 45.0615 23.2134 44.681 18.4444L44.7033 18.4394Z" stroke="#393A3C" stroke-width="0.97" stroke-miterlimit="10"/>
<path d="M23.2049 29.8563C22.9662 26.8847 20.3861 24.6683 17.414 24.9072C14.442 25.1461 12.225 27.726 12.4638 30.6976C12.7025 33.6692 15.2826 35.8856 18.2547 35.6467C21.2268 35.4078 23.4437 32.8279 23.2049 29.8563Z" stroke="#393A3C" stroke-width="0.97" stroke-miterlimit="10"/>
</g>
<defs>
<clipPath id="clip0_42_7640">
<rect width="79" height="97" fill="white" transform="translate(0 17.1504) rotate(-12.5385)"/>
</clipPath>
</defs>
</svg>
