<svg width="16" height="14" viewBox="0 0 16 14" fill="none" xmlns="http://www.w3.org/2000/svg">
<path d="M15.9062 2.53125C15.8646 2.47917 15.8099 2.4375 15.7422 2.40625C15.6745 2.375 15.6042 2.35938 15.5312 2.35938H3.8125L3.29688 0.375C3.27604 0.28125 3.22396 0.200521 3.14062 0.132812C3.05729 0.0651045 2.96354 0.03125 2.85938 0.03125H0.46875C0.333333 0.03125 0.221354 0.078125 0.132812 0.171875C0.0442708 0.265625 0 0.375 0 0.5C0 0.625 0.0442708 0.731771 0.132812 0.820312C0.221354 0.908854 0.333333 0.953125 0.46875 0.953125H2.5L3.01562 2.9375L4.8125 9.875C4.84375 9.97917 4.90104 10.0625 4.98438 10.125C5.06771 10.1875 5.16146 10.2188 5.26562 10.2188H13.7344C13.8385 10.2188 13.9323 10.1875 14.0156 10.125C14.099 10.0625 14.151 9.97917 14.1719 9.875L15.9844 2.9375C16.0052 2.86458 16.0078 2.79167 15.9922 2.71875C15.9766 2.64583 15.9479 2.58333 15.9062 2.53125ZM7.25 9.29688H5.625L5.25 7.90625H7.25V9.29688ZM7.25 6.98438H5.01562L4.65625 5.59375H7.25V6.98438ZM7.25 4.67188H4.40625L4.04688 3.28125H7.25V4.67188ZM10.8281 9.29688H8.17188V7.90625H10.8281V9.29688ZM10.8281 6.98438H8.17188V5.59375H10.8281V6.98438ZM10.8281 4.67188H8.17188V3.28125H10.8281V4.67188ZM13.375 9.29688H11.75V7.90625H13.7344L13.375 9.29688ZM13.9844 6.98438H11.75V5.59375H14.3438L13.9844 6.98438ZM14.5781 4.67188H11.75V3.28125H14.9375L14.5781 4.67188ZM6.48438 10.5938C6.01562 10.5938 5.61719 10.7578 5.28906 11.0859C4.96094 11.4141 4.79688 11.8125 4.79688 12.2812C4.79688 12.7396 4.96094 13.1354 5.28906 13.4688C5.61719 13.8021 6.01562 13.9688 6.48438 13.9688C6.95312 13.9688 7.35156 13.8021 7.67969 13.4688C8.00781 13.1354 8.17188 12.7396 8.17188 12.2812C8.17188 11.8125 8.00781 11.4141 7.67969 11.0859C7.35156 10.7578 6.95312 10.5938 6.48438 10.5938ZM6.48438 13.0469C6.27604 13.0469 6.09635 12.9714 5.94531 12.8203C5.79427 12.6693 5.71875 12.4896 5.71875 12.2812C5.71875 12.0729 5.79427 11.8932 5.94531 11.7422C6.09635 11.5911 6.27604 11.5156 6.48438 11.5156C6.69271 11.5156 6.8724 11.5911 7.02344 11.7422C7.17448 11.8932 7.25 12.0729 7.25 12.2812C7.25 12.4896 7.17448 12.6693 7.02344 12.8203C6.8724 12.9714 6.69271 13.0469 6.48438 13.0469ZM12.5156 10.5938C12.0469 10.5938 11.6484 10.7578 11.3203 11.0859C10.9922 11.4141 10.8281 11.8125 10.8281 12.2812C10.8281 12.7396 10.9922 13.1354 11.3203 13.4688C11.6484 13.8021 12.0469 13.9688 12.5156 13.9688C12.974 13.9688 13.3672 13.8021 13.6953 13.4688C14.0234 13.1354 14.1875 12.7396 14.1875 12.2812C14.1875 11.8125 14.0234 11.4141 13.6953 11.0859C13.3672 10.7578 12.974 10.5938 12.5156 10.5938ZM12.5156 13.0469C12.2969 13.0469 12.1146 12.9714 11.9688 12.8203C11.8229 12.6693 11.75 12.4896 11.75 12.2812C11.75 12.0729 11.8229 11.8932 11.9688 11.7422C12.1146 11.5911 12.2969 11.5156 12.5156 11.5156C12.724 11.5156 12.901 11.5911 13.0469 11.7422C13.1927 11.8932 13.2656 12.0729 13.2656 12.2812C13.2656 12.4896 13.1927 12.6693 13.0469 12.8203C12.901 12.9714 12.724 13.0469 12.5156 13.0469Z" fill="#1E1E20"/>
</svg>
