<svg width="17" height="14" viewBox="0 0 17 14" fill="none" xmlns="http://www.w3.org/2000/svg">
<path d="M15.9562 2.53125C15.9146 2.47917 15.8599 2.4375 15.7922 2.40625C15.7245 2.375 15.6542 2.35938 15.5812 2.35938H3.86249L3.34686 0.375C3.32603 0.28125 3.27395 0.200521 3.19061 0.132812C3.10728 0.0651045 3.01353 0.03125 2.90936 0.03125H0.518738C0.383321 0.03125 0.271342 0.078125 0.1828 0.171875C0.0942586 0.265625 0.0499878 0.375 0.0499878 0.5C0.0499878 0.625 0.0942586 0.731771 0.1828 0.820312C0.271342 0.908854 0.383321 0.953125 0.518738 0.953125H2.54999L3.06561 2.9375L4.86249 9.875C4.89374 9.97917 4.95103 10.0625 5.03436 10.125C5.1177 10.1875 5.21145 10.2188 5.31561 10.2188H13.7844C13.8885 10.2188 13.9823 10.1875 14.0656 10.125C14.1489 10.0625 14.201 9.97917 14.2219 9.875L16.0344 2.9375C16.0552 2.86458 16.0578 2.79167 16.0422 2.71875C16.0266 2.64583 15.9979 2.58333 15.9562 2.53125ZM7.29999 9.29688H5.67499L5.29999 7.90625H7.29999V9.29688ZM7.29999 6.98438H5.06561L4.70624 5.59375H7.29999V6.98438ZM7.29999 4.67188H4.45624L4.09686 3.28125H7.29999V4.67188ZM10.8781 9.29688H8.22186V7.90625H10.8781V9.29688ZM10.8781 6.98438H8.22186V5.59375H10.8781V6.98438ZM10.8781 4.67188H8.22186V3.28125H10.8781V4.67188ZM13.425 9.29688H11.8V7.90625H13.7844L13.425 9.29688ZM14.0344 6.98438H11.8V5.59375H14.3937L14.0344 6.98438ZM14.6281 4.67188H11.8V3.28125H14.9875L14.6281 4.67188ZM6.53436 10.5938C6.06561 10.5938 5.66718 10.7578 5.33905 11.0859C5.01093 11.4141 4.84686 11.8125 4.84686 12.2812C4.84686 12.7396 5.01093 13.1354 5.33905 13.4688C5.66718 13.8021 6.06561 13.9688 6.53436 13.9688C7.00311 13.9688 7.40155 13.8021 7.72968 13.4688C8.0578 13.1354 8.22186 12.7396 8.22186 12.2812C8.22186 11.8125 8.0578 11.4141 7.72968 11.0859C7.40155 10.7578 7.00311 10.5938 6.53436 10.5938ZM6.53436 13.0469C6.32603 13.0469 6.14634 12.9714 5.9953 12.8203C5.84426 12.6693 5.76874 12.4896 5.76874 12.2812C5.76874 12.0729 5.84426 11.8932 5.9953 11.7422C6.14634 11.5911 6.32603 11.5156 6.53436 11.5156C6.7427 11.5156 6.92238 11.5911 7.07343 11.7422C7.22447 11.8932 7.29999 12.0729 7.29999 12.2812C7.29999 12.4896 7.22447 12.6693 7.07343 12.8203C6.92238 12.9714 6.7427 13.0469 6.53436 13.0469ZM12.5656 10.5938C12.0969 10.5938 11.6984 10.7578 11.3703 11.0859C11.0422 11.4141 10.8781 11.8125 10.8781 12.2812C10.8781 12.7396 11.0422 13.1354 11.3703 13.4688C11.6984 13.8021 12.0969 13.9688 12.5656 13.9688C13.0239 13.9688 13.4172 13.8021 13.7453 13.4688C14.0734 13.1354 14.2375 12.7396 14.2375 12.2812C14.2375 11.8125 14.0734 11.4141 13.7453 11.0859C13.4172 10.7578 13.0239 10.5938 12.5656 10.5938ZM12.5656 13.0469C12.3469 13.0469 12.1646 12.9714 12.0187 12.8203C11.8729 12.6693 11.8 12.4896 11.8 12.2812C11.8 12.0729 11.8729 11.8932 12.0187 11.7422C12.1646 11.5911 12.3469 11.5156 12.5656 11.5156C12.7739 11.5156 12.951 11.5911 13.0969 11.7422C13.2427 11.8932 13.3156 12.0729 13.3156 12.2812C13.3156 12.4896 13.2427 12.6693 13.0969 12.8203C12.951 12.9714 12.7739 13.0469 12.5656 13.0469Z" fill="white"/>
</svg>
