<svg width="132" height="51" viewBox="0 0 132 51" fill="none" xmlns="http://www.w3.org/2000/svg">
<path fill-rule="evenodd" clip-rule="evenodd" d="M70.6819 48.2924C82.8707 46.5635 94.7172 43.7118 108.998 39.0694C121.244 35.0882 128.514 31.3914 128.391 29.208C128.334 28.1819 126.488 28.5843 124.159 30.1299C117.326 34.6652 96.7705 41.0931 77.8119 44.6227C70.0882 46.0607 68.7174 46.2033 54.4498 47.054C41.0364 47.8535 38.6533 47.9041 33.7332 47.4941C13.9673 45.8463 1.79449 39.6312 4.86402 32.1953C11.1099 17.0647 54.3829 2.79505 92.1614 1.66974C116.338 0.949387 130.034 6.32998 126.228 15.0534C125.263 17.2663 121.231 20.9843 116.08 24.4116C111.786 27.2681 111.735 28.5177 109.629 28.4367C107.988 28.3735 106.906 27.4398 106.642 27.854C106.123 28.6658 108.12 29.4267 110.408 29.2887C113.338 29.112 121.127 24.9169 125.559 21.1281C131.588 15.975 133.186 10.059 129.534 6.41305C122.29 -0.820636 95.2281 -0.145201 67.5913 4.08416C44.1735 7.66806 20.6656 16.3624 7.11581 24.3733C5.65828 25.5542 4.47212 26.6374 4.48074 26.7803C4.48934 26.9229 4.06902 27.325 3.54725 27.6734C1.87911 30.1809 0.310764 33.8536 0.826251 36.462C2.25588 43.7028 14.0893 48.8081 35.2636 49.9394C43.6875 50.3893 61.8531 49.5445 70.6819 48.2924Z" fill="#E52C47"/>
<path d="M11.7676 27.923C16.3214 32.2233 30.7137 40.0233 51.8522 36.8215C78.2753 32.8193 89.8957 32.9952 96.6499 30.4387C102.473 28.2347 124.784 16.7802 125.376 10.1042C125.06 10.3591 124.63 10.6292 124.066 10.9137C119.278 13.3256 116.732 23.8127 96.0607 28.937C79.524 33.0365 59.961 34.8522 52.2465 35.2475C44.8382 35.2771 28.6058 34.8223 22.9427 32.7666C17.2795 30.7109 13.133 28.681 11.7676 27.923Z" fill="#E52C47"/>
</svg>
