<svg width="74" height="89" viewBox="0 0 74 89" fill="none" xmlns="http://www.w3.org/2000/svg">
<g filter="url(#filter0_f_42_7366)">
<ellipse cx="37.3415" cy="60.0849" rx="21.5964" ry="12.7615" transform="rotate(-9.09115 37.3415 60.0849)" fill="#D9D9D9" fill-opacity="0.94"/>
</g>
<g clip-path="url(#clip0_42_7366)">
<path style="mix-blend-mode:multiply" d="M34.4878 61.0196C34.5533 61.6405 35.4376 62.0654 36.4858 62C37.5339 61.9347 38.32 61.3464 38.2545 60.7254C38.189 60.1044 37.3046 59.6795 36.2565 59.7449C35.2083 59.8103 34.4223 60.3986 34.4878 61.0196Z" fill="url(#paint0_radial_42_7366)"/>
<path d="M34.4877 60.9215L34.5532 60.1371L37.5011 41.8999L40.9403 42.5862L37.9924 60.8235C37.8941 61.3791 37.2391 61.8366 36.3547 61.902C35.4048 61.9674 34.5532 61.5425 34.4877 60.9215Z" fill="url(#paint1_linear_42_7366)"/>
<path d="M24.8581 42.7497C25.9717 36.736 33.2103 32.1603 40.6782 33.8272C48.1462 35.5267 52.961 42.8477 51.8474 48.8614C50.7337 54.8751 43.7899 58.4049 36.3547 56.7054C28.8868 55.0059 23.7444 48.7634 24.8581 42.7497Z" fill="url(#paint2_linear_42_7366)"/>
<path d="M24.9563 42.2922C26.07 36.2785 33.3413 31.7028 40.7765 33.3697C48.2444 35.0692 53.0593 42.3902 51.9456 48.4039C50.832 54.4176 43.8881 57.9474 36.453 56.2479C28.9851 54.5484 23.8427 48.3059 24.9563 42.2922Z" fill="url(#paint3_radial_42_7366)"/>
<path d="M47.1963 40.8214C47.6548 37.8799 44.6742 34.8403 40.4817 33.9906C36.2892 33.1408 32.5225 34.8403 32.0639 37.7491C31.6054 40.6906 34.586 43.7302 38.7785 44.5799C42.971 45.4297 46.7377 43.7302 47.1963 40.8214Z" fill="url(#paint4_linear_42_7366)"/>
<path d="M32.1294 37.6182C32.2277 36.9972 35.7651 27.0615 35.7651 27.0615L46.0499 28.9245C46.0499 28.9245 47.1635 40.0041 47.098 40.625C46.705 43.5665 42.9055 45.2661 38.7785 44.4163C34.6515 43.5665 31.7364 40.5597 32.1622 37.6182H32.1294Z" fill="url(#paint5_linear_42_7366)"/>
<mask id="mask0_42_7366" style="mask-type:luminance" maskUnits="userSpaceOnUse" x="31" y="12" width="22" height="19">
<path d="M31.8019 19.2505C30.8848 24.2837 34.7825 29.415 40.5145 30.6896C46.2464 31.9969 51.6509 28.9574 52.568 23.9242C53.4851 18.891 49.5874 13.7597 43.8554 12.4851C38.1234 11.1777 32.7518 14.2173 31.8019 19.2505Z" fill="white"/>
</mask>
<g mask="url(#mask0_42_7366)">
<path d="M50.3036 7.76667L27.9767 14.0205L33.9962 35.418L56.3231 29.1642L50.3036 7.76667Z" fill="#970218"/>
<path d="M40.1214 31.5069C47.1963 33.2718 53.8126 30.2649 54.959 24.7741C56.0726 19.2834 51.2578 13.4331 44.1829 11.6682C37.1081 9.9033 30.4918 12.9102 29.3454 18.4009C28.2317 23.8917 33.0466 29.742 40.1214 31.5069Z" fill="#970218"/>
<path d="M40.1215 31.474C47.1636 33.2389 53.7799 30.232 54.8935 24.7739C56.0072 19.3158 51.1923 13.4655 44.1502 11.7007C37.1081 9.93576 30.4918 12.9426 29.3782 18.4007C28.2645 23.8588 33.0466 29.7091 40.1215 31.474Z" fill="#980319"/>
<path d="M40.1215 31.4413C47.1636 33.2062 53.7471 30.1993 54.8608 24.7412C55.9744 19.2832 51.1923 13.4655 44.1502 11.7007C37.1081 9.93576 30.5245 12.9426 29.4109 18.4007C28.2973 23.8588 33.0794 29.6764 40.1215 31.4413Z" fill="#990318"/>
<path d="M40.1542 31.4088C47.1635 33.141 53.7471 30.1668 54.8607 24.7414C55.9744 19.316 51.1923 13.4984 44.1829 11.7335C37.1736 10.0013 30.59 12.9754 29.4764 18.4008C28.3627 23.8263 33.1448 29.6439 40.1542 31.4088Z" fill="#9A0419"/>
<path d="M40.1542 31.3761C47.1308 33.1083 53.7144 30.1341 54.828 24.7087C55.9417 19.2833 51.1596 13.4984 44.183 11.7335C37.2064 10.0013 30.6228 12.9754 29.5092 18.4008C28.3955 23.8263 33.1776 29.6112 40.1542 31.3761Z" fill="#9B031A"/>
<path d="M40.1542 31.3759C47.1308 33.1081 53.6816 30.1339 54.7625 24.7412C55.8761 19.3485 51.1268 13.5636 44.1502 11.8314C37.1736 10.0992 30.6228 13.0733 29.5419 18.4661C28.4283 23.8588 33.1776 29.6437 40.1542 31.3759Z" fill="#9C0419"/>
<path d="M40.1542 31.3435C47.0981 33.0757 53.6161 30.1015 54.7297 24.7415C55.8434 19.3488 51.094 13.5965 44.1502 11.8643C37.2063 10.1321 30.6883 13.1063 29.5747 18.4663C28.461 23.859 33.2104 29.6113 40.1542 31.3435Z" fill="#9D041A"/>
<path d="M40.1542 31.3108C47.098 33.0431 53.5833 30.1016 54.697 24.7088C55.8106 19.3488 51.0613 13.5966 44.1502 11.8644C37.2063 10.1321 30.721 13.0736 29.6074 18.4664C28.4938 23.8264 33.2431 29.5786 40.1542 31.3108Z" fill="#9E0519"/>
<path d="M40.187 31.2779C47.0981 33.0102 53.5834 30.0687 54.697 24.7086C55.7779 19.3486 51.094 13.629 44.183 11.8968C37.2719 10.1646 30.7866 13.1061 29.6729 18.4661C28.5593 23.8262 33.2759 29.5457 40.187 31.2779Z" fill="#9F051A"/>
<path d="M40.187 31.2453C47.0653 32.9775 53.5506 30.036 54.6315 24.6759C55.7124 19.3486 51.0285 13.629 44.1502 11.8968C37.2719 10.1646 30.7866 13.1061 29.7057 18.4661C28.6248 23.7935 33.3086 29.5131 40.187 31.2453Z" fill="#A0061A"/>
<path d="M40.1869 31.2127C47.0653 32.9122 53.5178 30.0034 54.5987 24.6761C55.6796 19.3487 50.9958 13.6618 44.1502 11.9296C37.2718 10.2301 30.8193 13.1389 29.7384 18.4663C28.6575 23.7936 33.3414 29.4805 40.1869 31.2127Z" fill="#A1061A"/>
<path d="M40.1869 31.2128C47.0325 32.9123 53.4851 30.0035 54.5659 24.7088C55.6468 19.4141 50.9958 13.7273 44.1174 11.9951C37.2718 10.2955 30.8193 13.2043 29.7384 18.5317C28.6575 23.8264 33.3086 29.5132 40.1869 31.2455V31.2128Z" fill="#A2071A"/>
<path d="M40.187 31.1798C47.0326 32.8794 53.4196 29.9706 54.5332 24.6759C55.6141 19.3812 50.9631 13.6943 44.1175 11.9948C37.3046 10.2953 30.8848 13.2041 29.7712 18.4988C28.6903 23.7934 33.3414 29.4803 40.187 31.1798Z" fill="#A3071B"/>
<path d="M40.187 31.1474C46.9998 32.847 53.3868 29.9382 54.4677 24.6762C55.5486 19.4142 50.8975 13.7273 44.0847 12.0605C37.2719 10.3609 30.8848 13.2697 29.8039 18.5317C28.7231 23.7937 33.3741 29.4806 40.187 31.1801V31.1474Z" fill="#A4071B"/>
<path d="M40.2197 31.1148C46.9998 32.8143 53.3868 29.9055 54.4677 24.6435C55.5486 19.3815 50.9303 13.7273 44.1175 12.0605C37.3374 10.3609 30.9503 13.2697 29.8695 18.5317C28.7886 23.7937 33.4069 29.4479 40.2197 31.1148Z" fill="#A5081B"/>
<path d="M40.2197 31.0819C46.9998 32.7814 53.3541 29.8726 54.435 24.6433C55.5158 19.3813 50.8975 13.7598 44.1174 12.0929C37.3374 10.3934 30.9831 13.3022 29.9022 18.5315C28.8213 23.7935 33.4396 29.415 40.2197 31.0819Z" fill="#A6081C"/>
<path d="M40.2197 31.0492C46.9671 32.7488 53.3213 29.8726 54.4022 24.6106C55.4831 19.3813 50.8648 13.7598 44.1175 12.093C37.3701 10.3935 31.0159 13.2696 29.9677 18.5316C28.8868 23.7609 33.5052 29.3824 40.2525 31.0492H40.2197Z" fill="#A7091B"/>
<path d="M40.2197 31.0167C46.967 32.6835 53.2885 29.8401 54.3367 24.6108C55.4176 19.3814 50.7992 13.7926 44.0847 12.1258C37.3373 10.4589 31.0158 13.3024 29.9677 18.5317C28.8868 23.761 33.5051 29.3498 40.2197 31.0167Z" fill="#A8091C"/>
<path d="M40.2197 31.0165C46.9343 32.6833 53.223 29.8399 54.3039 24.6433C55.3848 19.4466 50.7992 13.8578 44.0847 12.191C37.3701 10.5241 31.0813 13.3676 30.0004 18.5642C28.9196 23.7608 33.5051 29.3496 40.2197 31.0165Z" fill="#A90A1C"/>
<path d="M40.2197 30.9838C46.9015 32.6506 53.1903 29.8072 54.2712 24.6106C55.3193 19.4139 50.7665 13.8578 44.0847 12.191C37.4029 10.5241 31.1141 13.3676 30.0332 18.5642C28.9851 23.7608 33.5379 29.3169 40.2197 30.9838Z" fill="#AA0A1C"/>
<path d="M40.2525 30.9514C46.9343 32.6182 53.1903 29.7748 54.2384 24.6108C55.2866 19.4469 50.7337 13.8908 44.0847 12.2239C37.4029 10.5571 31.1468 13.4005 30.0987 18.5645C29.0506 23.7284 33.6034 29.2845 40.2525 30.9514Z" fill="#AB0A1C"/>
<path d="M40.2525 30.9187C46.9016 32.5855 53.1576 29.7421 54.2057 24.5782C55.2538 19.4142 50.7338 13.8908 44.0847 12.2239C37.4356 10.5571 31.1796 13.4005 30.1315 18.5645C29.0834 23.7284 33.6034 29.2519 40.2525 30.9187Z" fill="#AC0A1C"/>
<path d="M40.2525 30.8858C46.9015 32.5526 53.1248 29.7092 54.1729 24.5779C55.2211 19.4467 50.701 13.9232 44.0847 12.2564C37.4356 10.5895 31.2124 13.433 30.1642 18.5642C29.1161 23.6955 33.6362 29.219 40.2525 30.8531V30.8858Z" fill="#AD0B1C"/>
<path d="M40.2525 30.853C46.8688 32.4872 53.0921 29.6764 54.1402 24.5452C55.1883 19.4139 50.6683 13.9231 44.0519 12.289C37.4356 10.6548 31.2124 13.4656 30.1642 18.5968C29.1161 23.7281 33.6362 29.2189 40.2525 30.853Z" fill="#AE0B1D"/>
<path d="M40.2525 30.8533C46.836 32.4875 53.0265 29.6767 54.0747 24.5781C55.1228 19.4796 50.6355 13.9888 44.0192 12.3546C37.4356 10.7205 31.2451 13.5312 30.197 18.6298C29.1488 23.7284 33.6361 29.2192 40.2525 30.8533Z" fill="#AF0C1C"/>
<path d="M40.2524 30.8204C46.836 32.4546 52.9938 29.6438 54.0419 24.5779C55.09 19.4793 50.6027 14.0212 44.0192 12.3871C37.4356 10.7529 31.2779 13.5637 30.2297 18.6296C29.1816 23.7282 33.6689 29.1862 40.2524 30.8204Z" fill="#B00C1D"/>
<path d="M40.2852 30.7878C46.836 32.4219 52.9938 29.6438 54.0419 24.5453C55.09 19.4794 50.6027 14.0213 44.0519 12.3871C37.5011 10.753 31.3434 13.531 30.2952 18.6296C29.2471 23.6955 33.7344 29.1536 40.2852 30.7878Z" fill="#B10C1E"/>
<path d="M40.2852 30.7549C46.836 32.389 52.961 29.6109 54.0091 24.5451C55.0573 19.4792 50.6027 14.0537 44.0519 12.4196C37.5011 10.7854 31.3761 13.5635 30.328 18.6294C29.2799 23.6953 33.7344 29.1207 40.2852 30.7549Z" fill="#B20D1D"/>
<path d="M40.2852 30.7222C46.8032 32.3563 52.9282 29.5783 53.9436 24.5124C54.9917 19.4465 50.5372 14.0537 44.0192 12.4196C37.5011 10.7854 31.3761 13.5635 30.3607 18.6294C29.3126 23.6953 33.7671 29.088 40.2852 30.7222Z" fill="#B30D1E"/>
<path d="M40.2852 30.6898C46.7705 32.3239 52.8955 29.5459 53.9109 24.5126C54.9263 19.4794 50.5045 14.0867 44.0192 12.4525C37.5339 10.8184 31.4089 13.5965 30.3935 18.6297C29.3781 23.6629 33.7999 29.0556 40.2852 30.6898Z" fill="#B40E1E"/>
<path d="M40.2852 30.6569C46.7705 32.2584 52.83 29.513 53.8781 24.4798C54.8935 19.4466 50.5045 14.0866 44.0192 12.4524C37.5339 10.8509 31.4744 13.5963 30.4263 18.6295C29.4109 23.6627 33.7999 29.0228 40.2852 30.6243V30.6569Z" fill="#B50E1D"/>
<path d="M40.2852 30.6568C46.7378 32.2583 52.7973 29.5129 53.8454 24.5123C54.8608 19.5118 50.4717 14.1518 44.0192 12.5503C37.5666 10.9488 31.5072 13.6942 30.459 18.6947C29.4436 23.6953 33.8327 29.0553 40.2852 30.6568Z" fill="#B60F1E"/>
<path d="M40.318 30.6244C46.7705 32.2258 52.7973 29.4805 53.8126 24.5126C54.828 19.5121 50.439 14.1847 44.0192 12.5832C37.5994 10.9818 31.5399 13.7272 30.5245 18.695C29.5092 23.6955 33.8982 29.0229 40.318 30.6244Z" fill="#B70F1E"/>
<path d="M40.318 30.5917C46.7378 32.1932 52.7645 29.4478 53.7799 24.4799C54.7952 19.5121 50.439 14.1847 44.0192 12.5832C37.5994 10.9818 31.5726 13.7272 30.5573 18.695C29.5419 23.6628 33.8982 28.9902 40.318 30.5917Z" fill="#B8101E"/>
<path d="M40.318 30.5588C46.705 32.1603 52.7317 29.4149 53.7471 24.4797C54.7625 19.5119 50.4062 14.2172 44.0192 12.6157C37.6321 11.0142 31.6054 13.7596 30.59 18.6948C29.5746 23.6626 33.9309 28.9573 40.318 30.5588Z" fill="#B9101F"/>
<path d="M40.318 30.5261C46.705 32.1276 52.699 29.4149 53.7143 24.4471C54.7297 19.5119 50.3734 14.2172 43.9864 12.6158C37.5994 11.0143 31.6054 13.727 30.59 18.6948C29.5746 23.63 33.9309 28.9247 40.318 30.5261Z" fill="#BA101E"/>
<path d="M40.3179 30.4937C46.6722 32.0625 52.6335 29.3825 53.6488 24.4473C54.6642 19.5122 50.3079 14.2502 43.9536 12.6487C37.5994 11.0472 31.6381 13.7599 30.6228 18.6951C29.6074 23.6303 33.9637 28.8923 40.3179 30.4937Z" fill="#BB111F"/>
<path d="M40.3507 30.4936C46.705 32.0624 52.6335 29.3824 53.6488 24.4472C54.6642 19.5447 50.3407 14.2827 43.9864 12.6813C37.6649 11.1125 31.7036 13.7925 30.6883 18.7277C29.6729 23.6301 33.9964 28.8921 40.3507 30.4936Z" fill="#BC111F"/>
<path d="M40.3507 30.4607C46.6722 32.0295 52.6007 29.3495 53.6161 24.447C54.6314 19.5445 50.3079 14.3152 43.9864 12.7137C37.6649 11.1449 31.7364 13.825 30.721 18.7274C29.7056 23.6299 34.0292 28.8592 40.3507 30.4607Z" fill="#BD121E"/>
<path d="M40.3508 30.4283C46.6395 31.9971 52.568 29.3171 53.5834 24.4473C54.5987 19.5775 50.2752 14.3482 43.9864 12.7794C37.6977 11.2106 31.7692 13.8906 30.7538 18.7604C29.7385 23.6302 34.062 28.8595 40.3508 30.4283Z" fill="#BE121F"/>
<path d="M40.3507 30.3956C46.6395 31.9644 52.5352 29.2844 53.5179 24.4146C54.5005 19.5448 50.2425 14.3482 43.9537 12.7794C37.6649 11.2106 31.7692 13.8906 30.7866 18.7604C29.804 23.6302 34.062 28.8268 40.3507 30.3956Z" fill="#BF121F"/>
<path d="M40.3507 30.3627C46.6068 31.9315 52.5025 29.2515 53.4851 24.4144C54.4677 19.5773 50.2097 14.3807 43.9537 12.8119C37.6977 11.2431 31.8019 13.9231 30.8193 18.7602C29.8367 23.5973 34.0947 28.7939 40.3507 30.3627Z" fill="#C0121F"/>
<path d="M40.3507 30.3301C46.574 31.8988 52.437 29.2188 53.4523 24.3817C54.435 19.5446 50.1769 14.348 43.9537 12.8119C37.7304 11.2431 31.8674 13.9231 30.8521 18.7602C29.8694 23.5973 34.1275 28.7939 40.3507 30.3301Z" fill="#C11320"/>
<path d="M40.3835 30.3302C46.6067 31.8663 52.437 29.219 53.4196 24.4146C54.4022 19.6101 50.1769 14.4135 43.9537 12.8774C37.7304 11.3413 31.9002 13.9886 30.9176 18.7931C29.9349 23.6302 34.1602 28.7941 40.3835 30.3302Z" fill="#C21320"/>
<path d="M40.3835 30.2975C46.574 31.8337 52.4042 29.1863 53.3868 24.3819C54.3694 19.5775 50.1442 14.4135 43.9537 12.8774C37.7631 11.3413 31.9329 13.9886 30.9503 18.7931C29.9677 23.5975 34.193 28.7614 40.3835 30.2975Z" fill="#C3141F"/>
<path d="M40.3835 30.2647C46.574 31.8008 52.3714 29.1861 53.354 24.3817C54.3367 19.5773 50.1114 14.446 43.9536 12.9099C37.7631 11.3738 31.9657 13.9884 30.9831 18.7929C30.0004 23.5973 34.2257 28.7286 40.3835 30.2647Z" fill="#C41420"/>
<path d="M40.3835 30.2323C46.5412 31.7684 52.3387 29.1537 53.3213 24.382C54.3039 19.6102 50.1114 14.479 43.9209 12.9428C37.7632 11.4067 31.9657 14.0214 30.9831 18.7931C30.0005 23.5649 34.193 28.6961 40.3507 30.2323H40.3835Z" fill="#C5151F"/>
<path d="M40.3835 30.1996C46.5085 31.7357 52.306 29.121 53.2558 24.3493C54.2384 19.5775 50.0459 14.479 43.8882 12.9428C37.7632 11.4067 31.9657 14.0214 31.0159 18.7931C30.0332 23.5649 34.2257 28.6635 40.3835 30.1996Z" fill="#C61520"/>
<path d="M40.3835 30.1667C46.5085 31.7028 52.2404 29.0882 53.2231 24.3491C54.2057 19.61 50.0132 14.5115 43.8882 13.008C37.7632 11.4719 32.0312 14.0866 31.0486 18.8256C30.066 23.5647 34.2585 28.6633 40.3835 30.1667Z" fill="#C71521"/>
<path d="M40.4163 30.134C46.5085 31.6701 52.2405 29.0555 53.2231 24.3164C54.2057 19.5773 50.0459 14.5115 43.9209 13.008C37.8287 11.4719 32.0967 14.0866 31.1141 18.8256C30.1315 23.5647 34.2913 28.6306 40.4163 30.134Z" fill="#C81620"/>
<path d="M40.4163 30.1342C46.5085 31.6376 52.2077 29.0556 53.1903 24.3493C54.1402 19.6429 50.0132 14.577 43.9209 13.0736C37.8287 11.5701 32.1295 14.1521 31.1469 18.8585C30.1642 23.5649 34.324 28.6308 40.4163 30.1342Z" fill="#C91621"/>
<path d="M40.4163 30.1015C46.4757 31.6049 52.1749 29.023 53.1248 24.3166C54.0747 19.6102 49.9477 14.577 43.8882 13.0736C37.8287 11.5701 32.1295 14.1521 31.1796 18.8585C30.2298 23.5649 34.3568 28.5981 40.4163 30.1015Z" fill="#CA1721"/>
<path d="M40.4162 30.0686C46.443 31.572 52.1422 28.99 53.092 24.3164C54.0419 19.6427 49.9476 14.6094 43.8881 13.106C37.8614 11.6026 32.1622 14.1846 31.2123 18.8583C30.2625 23.532 34.3567 28.5652 40.4162 30.0686Z" fill="#CC1720"/>
<path d="M40.4162 30.0362C46.4429 31.5396 52.1094 28.9576 53.0593 24.3166C54.0091 19.6429 49.9149 14.6424 43.8881 13.139C37.8614 11.6355 32.195 14.2175 31.2451 18.8585C30.2952 23.5322 34.3895 28.5327 40.4162 30.0362Z" fill="#CD1821"/>
<path d="M40.4163 30.0035C46.4102 31.507 52.0439 28.9577 53.0266 24.284C53.9764 19.643 49.8822 14.6424 43.8882 13.139C37.8942 11.6356 32.2605 14.1849 31.2779 18.8586C30.328 23.4996 34.4223 28.5001 40.4163 30.0035Z" fill="#CE1821"/>
<path d="M40.449 29.9706C46.443 31.4741 52.0439 28.9248 52.9938 24.2838C53.9436 19.6427 49.8494 14.6749 43.8881 13.1715C37.9269 11.6681 32.2932 14.2173 31.3434 18.8584C30.3935 23.4994 34.4877 28.4672 40.449 29.9706Z" fill="#CF1820"/>
<path d="M40.449 29.9707C46.4102 31.4414 52.0112 28.9248 52.961 24.2838C53.9109 19.6755 49.8494 14.7077 43.8882 13.2369C37.9269 11.7335 32.326 14.2828 31.3761 18.9238C30.4263 23.5321 34.4878 28.5 40.449 30.0034V29.9707Z" fill="#D01822"/>
<path d="M40.449 29.9381C46.3775 31.4089 51.9784 28.8923 52.9283 24.2839C53.8781 19.6756 49.8166 14.7405 43.8882 13.2697C37.9269 11.799 32.3588 14.3156 31.4089 18.9239C30.459 23.5322 34.5205 28.4674 40.449 29.9381Z" fill="#D11922"/>
<path d="M40.449 29.9055C46.3775 31.3762 51.9456 28.8596 52.8955 24.2513C53.8454 19.6429 49.7839 14.7405 43.8882 13.2697C37.9924 11.799 32.3915 14.3156 31.4416 18.9239C30.4918 23.5322 34.5533 28.4347 40.449 29.9055Z" fill="#D21921"/>
<path d="M40.449 29.8726C46.3447 31.3433 51.9129 28.8267 52.83 24.251C53.7799 19.6754 49.7511 14.7729 43.8226 13.3022C37.8942 11.8314 32.3587 14.348 31.4416 18.9237C30.4918 23.4993 34.5205 28.4018 40.449 29.8726Z" fill="#D31A22"/>
<path d="M40.4818 29.8401C46.3775 31.3109 51.8802 28.7943 52.83 24.2513C53.7799 19.6757 49.7511 14.8059 43.8554 13.3351C37.9597 11.8644 32.457 14.381 31.5072 18.924C30.5573 23.4996 34.586 28.3694 40.4818 29.8401Z" fill="#D41A21"/>
<path d="M40.4818 29.8075C46.3447 31.2782 51.8474 28.7616 52.7973 24.2186C53.7144 19.6757 49.7184 14.8059 43.8554 13.3351C37.9925 11.8644 32.4898 14.381 31.5399 18.924C30.6228 23.4669 34.6188 28.3367 40.4818 29.8075Z" fill="#D51B21"/>
<path d="M40.4817 29.7745C46.3119 31.2453 51.8146 28.7287 52.7317 24.2184C53.6488 19.6754 49.6856 14.8383 43.8226 13.3676C37.9597 11.8968 32.4898 14.4135 31.5726 18.9237C30.6555 23.4667 34.6188 28.3038 40.4817 29.7745Z" fill="#D61B22"/>
<path d="M40.4817 29.7745C46.3119 31.2125 51.7819 28.7286 52.699 24.2183C53.6161 19.708 49.6528 14.8709 43.8226 13.4002C37.9924 11.9621 32.5225 14.4461 31.6054 18.9563C30.6883 23.4666 34.6515 28.3037 40.4817 29.7745Z" fill="#D71B22"/>
<path d="M40.4818 29.7421C46.2792 31.1801 51.7492 28.7289 52.6663 24.2186C53.5834 19.7083 49.6201 14.9039 43.8227 13.4332C38.0252 11.9951 32.5553 14.4463 31.6382 18.9566C30.7211 23.4669 34.6843 28.2713 40.4818 29.7421Z" fill="#D81C22"/>
<path d="M40.4817 29.7094C46.2792 31.1475 51.7164 28.6962 52.6335 24.186C53.5506 19.7084 49.6201 14.9039 43.8227 13.4659C38.0252 12.0278 32.588 14.479 31.6709 18.9893C30.7538 23.4669 34.6843 28.2714 40.4817 29.7094Z" fill="#D91C23"/>
<path d="M40.5145 29.6765C46.2792 31.1146 51.6836 28.6633 52.6007 24.1857C53.5179 19.7081 49.5874 14.9364 43.8227 13.4983C38.058 12.0603 32.6536 14.5115 31.7364 18.9891C30.8193 23.4667 34.7498 28.2384 40.5145 29.6765Z" fill="#DA1D22"/>
<path d="M40.5145 29.6436C46.2465 31.0817 51.6509 28.6304 52.568 24.1855C53.4851 19.7406 49.5546 14.9689 43.8227 13.5308C38.0907 12.0927 32.6863 14.544 31.7692 18.9889C30.8521 23.4338 34.7826 28.2055 40.5145 29.6436Z" fill="#DB1D22"/>
<path d="M40.5145 29.6109C46.2464 31.049 51.6181 28.5977 52.5352 24.1528C53.4523 19.7079 49.5546 14.9689 43.8226 13.5308C38.0907 12.0927 32.719 14.544 31.8019 18.9889C30.8848 23.4338 34.7825 28.1729 40.5145 29.6109Z" fill="#DC1E23"/>
<path d="M40.5145 29.6112C46.2137 31.0493 51.5853 28.5981 52.5025 24.1858C53.4196 19.7736 49.5218 15.0345 43.8226 13.5965C38.1234 12.1584 32.7518 14.6096 31.8347 19.0219C30.9176 23.4341 34.8153 28.1732 40.5145 29.6112Z" fill="#DD1E22"/>
<path d="M40.5145 29.5784C46.2137 30.9838 51.5526 28.5652 52.437 24.153C53.3541 19.7408 49.4564 15.0344 43.7572 13.5963C38.058 12.191 32.7191 14.6095 31.8347 19.0217C30.9176 23.434 34.8153 28.1404 40.4818 29.5784H40.5145Z" fill="#DE1E23"/>
<path d="M40.5145 29.546C46.1809 30.9514 51.5198 28.5328 52.4042 24.1533C53.2885 19.7737 49.4236 15.0673 43.7571 13.6293C38.0907 12.2239 32.7518 14.6425 31.8674 19.022C30.9503 23.4016 34.848 28.1079 40.5145 29.546Z" fill="#DF1F22"/>
<path d="M40.5472 29.5131C46.1809 30.9184 51.4871 28.4999 52.4042 24.1203C53.2886 19.7408 49.4563 15.0671 43.7899 13.629C38.1562 12.2237 32.85 14.6422 31.9329 18.9891C31.0486 23.3686 34.8808 28.0423 40.5472 29.4804V29.5131Z" fill="#E01F23"/>
<path d="M40.5472 29.4805C46.1809 30.8859 51.4543 28.5 52.3714 24.1204C53.2558 19.7409 49.4236 15.0672 43.7899 13.6945C38.1562 12.2891 32.8828 14.675 31.9657 19.0545C31.0813 23.4341 34.9135 28.1078 40.5472 29.4805Z" fill="#E11F23"/>
<path d="M40.5472 29.4476C46.1482 30.853 51.4216 28.4671 52.3059 24.1202C53.1903 19.7734 49.3581 15.0997 43.7571 13.727C38.1562 12.3216 32.8828 14.7075 31.9984 19.0543C31.1141 23.4012 34.9463 28.0749 40.5472 29.4476Z" fill="#E22022"/>
<path d="M40.5473 29.4149C46.1482 30.8203 51.3888 28.4344 52.2732 24.0875C53.1575 19.7407 49.3581 15.0997 43.7571 13.727C38.1562 12.3216 32.9156 14.7075 32.0312 19.0543C31.1469 23.4012 34.9463 28.0422 40.5473 29.4149Z" fill="#E32023"/>
<path d="M40.5472 29.4152C46.1154 30.7879 51.3561 28.4347 52.2404 24.1205C53.1248 19.8063 49.3253 15.1653 43.7571 13.7926C38.189 12.3873 32.9483 14.7731 32.064 19.0873C31.1796 23.4015 34.9791 28.0425 40.5472 29.4152Z" fill="#E42123"/>
<path d="M40.5472 29.3824C46.0827 30.7551 51.3233 28.4019 52.2077 24.0877C53.092 19.7735 49.2926 15.1652 43.7571 13.7925C38.2217 12.4198 32.9811 14.773 32.0967 19.0872C31.2123 23.4013 35.0118 28.0097 40.5472 29.3824Z" fill="#E52122"/>
<path d="M40.58 29.3495C46.1154 30.7222 51.2906 28.369 52.1749 24.0875C53.0593 19.806 49.2926 15.1976 43.7571 13.825C38.2217 12.4523 33.0466 14.8054 32.1622 19.0869C31.2779 23.3684 35.0446 27.9768 40.58 29.3495Z" fill="#E62124"/>
<path d="M40.58 29.317C46.0827 30.6897 51.2578 28.3366 52.1422 24.0877C53.0265 19.8062 49.2598 15.2306 43.7571 13.8579C38.2545 12.4852 33.0793 14.8384 32.195 19.0872C31.3106 23.3687 35.0773 27.9444 40.58 29.317Z" fill="#E72224"/>
<path d="M40.58 29.2844C46.0827 30.6571 51.225 28.3039 52.1094 24.0551C52.9937 19.8062 49.227 15.2306 43.7571 13.8579C38.2544 12.4852 33.1121 14.8384 32.2277 19.0872C31.3433 23.336 35.1101 27.9117 40.58 29.2844Z" fill="#E82223"/>
<path d="M40.58 29.2515C46.05 30.6242 51.1923 28.271 52.0767 24.0548C52.9611 19.806 49.2271 15.2631 43.7572 13.8904C38.2873 12.5177 33.1449 14.8709 32.2605 19.087C31.3762 23.3358 35.1101 27.8788 40.58 29.2515Z" fill="#E92324"/>
<path d="M40.58 29.2515C46.0171 30.6242 51.1595 28.3037 52.0111 24.0549C52.8627 19.8388 49.1615 15.2958 43.6916 13.9558C38.2544 12.5831 33.1121 14.9363 32.2605 19.1524C31.4089 23.3686 35.1101 27.9115 40.58 29.2515Z" fill="#EA2324"/>
<path d="M40.58 29.219C46.0172 30.559 51.1268 28.2712 51.9784 24.0551C52.83 19.8389 49.1288 15.3287 43.6917 13.9886C38.2545 12.6486 33.1449 14.9365 32.2933 19.1526C31.4417 23.3687 35.1429 27.879 40.58 29.219Z" fill="#EB2424"/>
<path d="M40.6128 29.1863C46.0172 30.5263 51.0941 28.2385 51.9784 24.0224C52.83 19.8389 49.1616 15.3287 43.7244 13.9886C38.32 12.6486 33.2104 14.9365 32.3588 19.1526C31.5072 23.336 35.1756 27.8463 40.6128 29.1863Z" fill="#EC2424"/>
<path d="M40.6127 29.1534C46.0172 30.4934 51.0613 28.2056 51.9129 24.0222C52.7645 19.8387 49.096 15.3611 43.6916 14.0211C38.2872 12.6811 33.2431 14.9689 32.3587 19.1524C31.5071 23.3358 35.1756 27.8134 40.58 29.1534H40.6127Z" fill="#ED2424"/>
<path d="M40.6128 29.121C45.9844 30.461 51.0285 28.1732 51.8801 23.9897C52.7317 19.839 49.0633 15.3614 43.6916 14.0213C38.32 12.6813 33.2759 14.9692 32.4243 19.1199C31.5726 23.2707 35.2411 27.7483 40.6128 29.0883V29.121Z" fill="#EE2525"/>
<path d="M40.6127 29.0883C45.9517 30.4283 50.9958 28.1405 51.8474 23.9897C52.699 19.839 49.0633 15.3941 43.6916 14.0541C38.3527 12.714 33.3086 15.0019 32.457 19.1526C31.6054 23.3034 35.2738 27.7483 40.6127 29.0883Z" fill="#EF2525"/>
<path d="M40.6128 29.0554C45.9517 30.3954 50.9631 28.1076 51.8147 23.9895C52.6663 19.8388 49.0306 15.4265 43.6917 14.0865C38.3528 12.7465 33.3414 15.0343 32.4898 19.1524C31.6382 23.2705 35.2739 27.7154 40.6128 29.0554Z" fill="#F02626"/>
<path d="M40.6455 29.0555C45.9516 30.3955 50.963 28.1076 51.7819 23.9896C52.6335 19.8715 48.9978 15.4592 43.6916 14.1192C38.3855 12.7792 33.3741 15.0671 32.5553 19.1851C31.7036 23.3032 35.3393 27.7154 40.6455 29.0555Z" fill="#F12726"/>
<path d="M40.6455 29.0229C45.9516 30.3303 50.8975 28.0751 51.7491 23.9897C52.6007 19.8717 48.965 15.4921 43.6916 14.1848C38.3855 12.8775 33.4069 15.1326 32.588 19.218C31.7364 23.3361 35.3393 27.7156 40.6455 29.0229Z" fill="#F22727"/>
<path d="M40.6455 28.9903C45.9189 30.2976 50.8648 28.0424 51.7164 23.9571C52.568 19.8717 48.9651 15.4921 43.6917 14.1848C38.4183 12.8775 33.4724 15.1326 32.6208 19.218C31.7692 23.3034 35.3721 27.6829 40.6455 28.9903Z" fill="#F32827"/>
<path d="M40.6455 28.9574C45.8862 30.2647 50.832 28.0423 51.6836 23.9569C52.5025 19.8715 48.9323 15.5246 43.6917 14.2173C38.451 12.9099 33.5052 15.1324 32.6536 19.2178C31.8019 23.3032 35.4049 27.6501 40.6455 28.9574Z" fill="#F42827"/>
<path d="M40.6455 28.9249C45.8862 30.2323 50.7993 28.0098 51.6181 23.9244C52.437 19.8717 48.8668 15.5248 43.6589 14.2175C38.4183 12.9102 33.5052 15.1326 32.6863 19.1854C31.8675 23.2381 35.4376 27.5849 40.6455 28.8923V28.9249Z" fill="#F52827"/>
<path d="M40.6455 28.8923C45.8534 30.1996 50.7665 27.9772 51.5853 23.9244C52.4042 19.8717 48.8668 15.5575 43.6261 14.2502C38.4182 12.9429 33.5051 15.1654 32.6863 19.2181C31.8674 23.2708 35.4049 27.585 40.6455 28.8923Z" fill="#F62928"/>
<path d="M40.6783 28.8921C45.8862 30.1994 50.7665 27.977 51.5854 23.9569C52.4042 19.9369 48.8668 15.6227 43.6589 14.3154C38.451 13.0081 33.5707 15.2305 32.7518 19.2506C31.933 23.2706 35.4704 27.5848 40.6783 28.8921Z" fill="#F72A28"/>
<path d="M40.6783 28.8593C45.8534 30.1666 50.701 27.9442 51.5526 23.9241C52.3714 19.9041 48.834 15.6226 43.6589 14.3153C38.4837 13.0406 33.6362 15.2304 32.7845 19.2504C31.9657 23.2705 35.5031 27.552 40.6783 28.8593Z" fill="#F82A29"/>
<path d="M40.6782 28.8269C45.8206 30.1015 50.6682 27.9117 51.4871 23.9244C52.3059 19.937 48.8012 15.6555 43.6261 14.3482C38.4837 13.0736 33.6361 15.2633 32.8173 19.2507C31.9984 23.238 35.5031 27.5195 40.6782 28.8269Z" fill="#F92B29"/>
<path d="M40.6783 28.7938C45.8207 30.0685 50.6355 27.8787 51.4544 23.8914C52.2732 19.904 48.7685 15.6552 43.6262 14.3479C38.4838 13.0405 33.6689 15.263 32.8501 19.2503C32.0312 23.2377 35.5359 27.4865 40.6783 28.7938Z" fill="#FA2C2A"/>
<path d="M40.6783 28.7613C45.7879 30.036 50.6028 27.8462 51.4216 23.8915C52.2405 19.9368 48.7358 15.688 43.6261 14.4134C38.5165 13.1387 33.7017 15.3285 32.8828 19.2832C32.064 23.2379 35.5687 27.4867 40.6783 28.7613Z" fill="#FB2D2A"/>
<path d="M40.6783 28.7289C45.7879 30.0035 50.57 27.8138 51.3888 23.8918C52.2077 19.9371 48.7358 15.721 43.6261 14.4463C38.5165 13.1717 33.7344 15.3615 32.9156 19.2835C32.0967 23.2381 35.5686 27.4543 40.6783 28.7289Z" fill="#FC2C2A"/>
<path d="M40.711 28.6958C45.7879 29.9704 50.57 27.8133 51.3561 23.8587C52.1749 19.9367 48.703 15.7205 43.6262 14.4459C38.5493 13.1713 33.7672 15.3283 32.9811 19.283C32.1622 23.205 35.6342 27.4211 40.711 28.6958Z" fill="#FD2D2B"/>
<path d="M40.711 28.6961C45.7551 29.9707 50.5372 27.8136 51.3233 23.8916C52.1422 19.9697 48.6702 15.7862 43.6261 14.5116C38.582 13.2369 33.8327 15.394 33.0138 19.316C32.2277 23.238 35.6669 27.4214 40.711 28.6961Z" fill="#FE2E2B"/>
<path d="M40.711 28.6632C45.7551 29.9052 50.4717 27.7808 51.2906 23.8588C52.0767 19.9695 48.6702 15.7534 43.6261 14.5114C38.582 13.2695 33.8654 15.3939 33.0466 19.3158C32.2605 23.2051 35.6669 27.4213 40.711 28.6632Z" fill="#FF2F2C"/>
</g>
<path d="M31.9002 18.6945C31.1469 23.3028 35.2083 27.9765 40.9731 29.1531C46.7378 30.297 51.9784 27.5189 52.7317 22.9106C53.4851 18.3023 49.4236 13.5959 43.6589 12.452C37.8942 11.2754 32.6535 14.0861 31.9002 18.6945Z" fill="url(#paint6_linear_42_7366)"/>
<mask id="mask1_42_7366" style="mask-type:luminance" maskUnits="userSpaceOnUse" x="31" y="12" width="22" height="17">
<path d="M31.9984 18.1391C31.1796 22.5513 35.1756 27.1923 40.9075 28.4996C46.6395 29.807 51.9456 27.2577 52.7645 22.8454C53.5833 18.4332 49.5874 13.7922 43.8554 12.4849C38.1234 11.1775 32.8173 13.7268 31.9984 18.1391Z" fill="white"/>
</mask>
<g mask="url(#mask1_42_7366)">
<path d="M50.5087 7.72245L28.6864 13.835L34.1659 33.313L55.9882 27.2005L50.5087 7.72245Z" fill="#FF2F2C"/>
<path d="M39.2698 28.7938C47.2618 32.2255 55.1883 33.4675 61.5098 32.7485L58.1689 28.467L51.6836 5.45801L26.5285 12.5176L26.7905 13.4654L20.6 15.1976C24.727 20.4269 31.2778 25.3621 39.2698 28.7938Z" fill="#FF2F2C"/>
<path d="M39.4336 28.3689C47.2291 31.7026 54.959 32.9446 61.1168 32.2255L58.1689 28.467L51.6836 5.45801L26.5285 12.5176L26.8233 13.5308L21.2224 15.0995C25.2511 20.1981 31.6382 25.0026 39.4336 28.3362V28.3689Z" fill="#FE2F2C"/>
<path d="M39.5646 27.944C47.1635 31.2124 54.6642 32.389 60.691 31.7026L58.1689 28.467L51.6836 5.45801L26.5285 12.5176L26.8561 13.6288L21.8447 15.0342C25.7752 20.002 31.9984 24.6757 39.5646 27.944Z" fill="#FD2E2B"/>
<path d="M39.7284 27.5518C47.1308 30.7221 54.4349 31.8987 60.2979 31.2124L58.1689 28.467L51.6836 5.45801L26.5285 12.5176L26.8561 13.7269L22.4343 14.9688C26.2665 19.8059 32.2932 24.3816 39.6956 27.5518H39.7284Z" fill="#FC2E2C"/>
<path d="M39.8922 27.127C47.0653 30.1992 54.2057 31.3431 59.9049 30.6894L58.1689 28.467L51.6836 5.45801L26.5285 12.5176L26.8888 13.8249L23.0894 14.9034C26.7906 19.6098 32.6863 24.0547 39.8922 27.127Z" fill="#FB2E2B"/>
<path d="M40.0232 26.7021C46.9998 29.709 53.9436 30.7875 59.4791 30.1665L58.1689 28.467L51.6836 5.45805L26.5285 12.5176L20.076 1.4707C17.1281 9.41272 26.0372 20.7211 40.0232 26.7021Z" fill="#FA2E2B"/>
<path d="M40.187 26.3098C46.967 29.2186 53.7144 30.2971 59.086 29.6761L58.1689 28.4668L51.6836 5.45788L26.5285 12.5174L20.7966 1.79736C17.9142 9.51059 26.594 20.4921 40.187 26.3098Z" fill="#F92D2A"/>
<path d="M40.3507 25.8852C46.9343 28.6959 53.4851 29.7418 58.693 29.1535L58.1689 28.4671L51.6836 5.45816L26.5285 12.5177L21.5499 2.0918C18.7331 9.57625 27.1509 20.231 40.3507 25.8852Z" fill="#F72E2B"/>
<path d="M40.4817 25.4928C53.2558 30.9836 65.8006 29.5128 68.5192 22.2572L57.3173 25.3947L51.7164 5.45799L26.5285 12.5176L22.2705 2.41846C19.5519 9.67412 27.7077 20.002 40.4817 25.4928Z" fill="#F62D2A"/>
<path d="M40.6455 25.0682C53.0265 30.3629 65.1783 28.9575 67.7986 21.9306L57.1863 24.9048L51.7164 5.45828L26.5285 12.5178L22.9911 2.71289C20.3708 9.73978 28.2645 19.7408 40.6455 25.0682Z" fill="#F52D2B"/>
<path d="M40.8093 24.6431C52.7972 29.7744 64.5559 28.4343 67.078 21.6036L57.0553 24.4143L53.8454 13.0079L63.9991 10.1644C60.9202 6.24246 56.0071 2.54926 50.0132 -0.0327148L51.5526 5.49074L26.5285 12.5176L23.7117 3.0395C21.1896 9.83761 28.8213 19.5445 40.8093 24.6758V24.6431Z" fill="#F42C2A"/>
<path d="M40.9403 24.2508C52.5025 29.2187 63.9009 27.9114 66.3574 21.3094L56.9243 23.9567L53.8126 12.9425L63.3441 10.2624C60.3634 6.4712 55.6141 2.90873 49.8166 0.424805L51.2578 5.58875L26.9871 12.3869L24.4323 3.33361C21.9757 9.90293 29.3781 19.283 40.9403 24.2508Z" fill="#F32D2A"/>
<path d="M41.1041 23.8258C52.2732 28.6303 63.2458 27.3556 65.6368 20.9824L56.7932 23.4663L53.8126 12.8116L62.7545 10.295C59.8721 6.63447 55.2866 3.20274 49.6856 0.78418L51.0285 5.62129L27.5767 12.2233L25.1529 3.6603C22.7946 10.0008 29.935 19.0541 41.1041 23.8258Z" fill="#F22C29"/>
<path d="M41.2678 23.4336C52.0439 28.0419 62.6234 26.8326 64.9162 20.6882L56.6622 23.0087L53.7799 12.7462L62.1321 10.393C59.348 6.86321 54.9263 3.52952 49.5546 1.2417L50.832 5.7193L28.199 12.0598L25.9062 3.9544C23.6134 10.0662 30.5245 18.7926 41.3006 23.4009L41.2678 23.4336Z" fill="#F22C29"/>
<path d="M41.3334 23.2376C51.9457 27.7806 62.3614 26.5713 64.6215 20.5576C66.8815 14.5112 60.1014 5.94824 49.4891 1.40527L50.701 5.75214L28.4283 11.9946L26.201 4.08529C23.941 10.1317 30.7211 18.6947 41.3334 23.2376Z" fill="#F12B29"/>
<path d="M41.3989 23.0744C51.8474 27.552 62.0994 26.3754 64.3267 20.427C66.5539 14.4787 59.8721 6.04644 49.4236 1.56885L50.6027 5.78498L28.6575 11.9294L26.4958 4.21619C24.2685 10.1645 30.9503 18.5968 41.3989 23.0744Z" fill="#F02A28"/>
<path d="M41.4644 22.9106C51.7491 27.3229 61.8701 26.1463 64.0319 20.296C66.2264 14.4457 59.6428 6.14416 49.3581 1.73193L50.5045 5.81733L28.9196 11.8637L26.7906 4.34659C24.596 10.1969 31.1796 18.4984 41.4644 22.9106Z" fill="#EF2A28"/>
<path d="M41.5299 22.7474C51.6509 27.0943 61.6081 25.9504 63.7371 20.1981C65.8661 14.4459 59.4136 6.27509 49.2926 1.92822L50.4062 5.85021L29.1489 11.7985L27.0853 4.47751C24.9563 10.2298 31.4089 18.4005 41.5299 22.7474Z" fill="#EE2927"/>
<path d="M41.5626 22.5842C51.5198 26.8657 61.3133 25.7217 63.4095 20.0675C65.5058 14.4134 59.1515 6.34061 49.1943 2.0918L50.2752 5.88305L29.3454 11.7333L27.3474 4.6084C25.2511 10.2626 31.6054 18.3353 41.5626 22.5842Z" fill="#ED2927"/>
<path d="M41.6281 22.4204C51.4216 26.6365 61.0513 25.5253 63.1148 19.9365C65.1783 14.3803 58.9223 6.43833 49.1288 2.25488L50.1442 5.9154L29.5747 11.6676L27.6094 4.73881C25.5459 10.2949 31.8019 18.237 41.5954 22.4204H41.6281Z" fill="#EC2927"/>
<path d="M41.6936 22.2571C51.3233 26.3752 60.7892 25.2967 62.82 19.8059C64.8507 14.3151 58.693 6.53654 49.0633 2.41846L50.0459 5.91556L29.8039 11.5697L27.9042 4.83701C25.8735 10.3278 32.0312 18.1064 41.6609 22.2245L41.6936 22.2571Z" fill="#EB2826"/>
<path d="M41.7592 22.0939C51.2251 26.1466 60.5272 25.0681 62.5252 19.7081C64.5232 14.3153 58.4965 6.66746 48.9978 2.61475L49.9477 5.98111L30.066 11.5373L28.2317 5.00062C26.2338 10.3933 32.2605 18.0412 41.7592 22.0939Z" fill="#EA2726"/>
<path d="M41.8246 21.8975C51.1268 25.8848 60.2651 24.839 62.2304 19.5443C64.1956 14.2496 58.2671 6.73247 48.965 2.74512L49.8821 5.98075L30.328 11.4715L28.5265 5.13099C26.5613 10.4257 32.4897 17.9428 41.7919 21.9301L41.8246 21.8975Z" fill="#E92726"/>
<path d="M41.8901 21.7342C51.0285 25.6562 60.0031 24.6103 61.9684 19.4137C63.9008 14.2171 58.0706 6.83067 48.9323 2.90869L49.8166 6.01359L30.6228 11.4063L28.8868 5.26188C26.9543 10.4585 32.7845 17.8449 41.9229 21.7669L41.8901 21.7342Z" fill="#E82625"/>
<path d="M41.9557 21.5709C50.9303 25.4276 59.7738 24.4144 61.6736 19.2831C63.5733 14.1845 57.8414 6.92888 48.8668 3.07227L49.6856 6.01375L30.8193 11.3084L29.1488 5.36009C27.2491 10.4587 32.9811 17.7143 41.9557 21.5709Z" fill="#E72525"/>
<path d="M42.0212 21.4072C50.832 25.1985 59.5118 24.1853 61.3788 19.1848C63.2458 14.1842 57.6121 7.05932 48.8013 3.26807L49.5874 6.07882L31.0814 11.2754L29.4437 5.49052C27.5767 10.491 33.2104 17.616 42.0212 21.4072Z" fill="#E62524"/>
<path d="M42.0867 21.244C50.7337 24.9699 59.2498 23.9894 61.084 19.0542C62.9182 14.119 57.3828 7.12484 48.7357 3.43164L49.4891 6.11166L31.3106 11.2102L29.7384 5.62141C27.9042 10.5566 33.4396 17.5508 42.0867 21.244Z" fill="#E52524"/>
<path d="M42.1522 21.0807C50.6355 24.7086 58.9878 23.7607 60.7893 18.9236C62.5907 14.0865 57.1536 7.22305 48.6703 3.59521L49.3909 6.1445L31.5727 11.145L30.066 5.7523C28.2645 10.5894 33.7017 17.4529 42.185 21.0807H42.1522Z" fill="#E42424"/>
<path d="M42.2177 20.917C50.5372 24.4794 58.7257 23.5316 60.4944 18.7926C62.2631 14.0535 56.9242 7.32077 48.6047 3.7583L49.2925 6.14417L31.8019 11.0467L30.328 5.85002C28.5592 10.5891 33.8981 17.3218 42.2177 20.8843V20.917Z" fill="#E32323"/>
<path d="M42.2505 20.721C50.4062 24.2181 58.4309 23.303 60.1669 18.662C61.9029 14.021 56.695 7.41898 48.5065 3.92188L49.1288 6.17701L31.9984 10.9814L30.59 5.98092C28.8541 10.6219 34.062 17.2239 42.2505 20.721Z" fill="#E22323"/>
<path d="M42.316 20.5578C50.308 23.9895 58.1689 23.0744 59.8721 18.5314C61.5753 13.9885 56.4657 7.51718 48.441 4.08545L49.0306 6.20986L32.2278 10.9162L30.8848 6.11181C29.1816 10.6548 34.2913 17.126 42.316 20.5578Z" fill="#E12222"/>
<path d="M42.3815 20.3945C50.2097 23.7609 57.9069 22.8784 59.5773 18.4008C61.2478 13.9232 56.2364 7.61539 48.4082 4.24902L48.965 6.2427L32.5225 10.851L31.2124 6.2427C29.5419 10.6876 34.5533 17.0281 42.3815 20.3945Z" fill="#E02223"/>
<path d="M42.447 20.2308C50.1114 23.5318 57.6448 22.6494 59.2825 18.3025C60.9202 13.9229 56.0071 7.74583 48.3427 4.44482L48.8668 6.27508L32.7518 10.7854L31.5071 6.37313C29.8694 10.7527 34.7825 16.9298 42.447 20.2308Z" fill="#DF2122"/>
<path d="M42.5125 20.0675C50.0131 23.3032 57.4155 22.4207 58.9877 18.1719C60.5927 13.8904 55.7778 7.84403 48.2772 4.6084L48.7685 6.30792L33.0138 10.7202L31.8347 6.50402C30.2297 10.7855 35.0445 16.8319 42.5452 20.0675H42.5125Z" fill="#DE2122"/>
<path d="M42.578 19.9038C49.9149 23.0414 57.1535 22.2243 58.693 18.0409C60.2652 13.8574 55.5486 7.90907 48.2117 4.77148L48.6375 6.34028L33.2104 10.6545L32.064 6.63443C30.4918 10.8179 35.2084 16.7662 42.5453 19.9038H42.578Z" fill="#DD2122"/>
<path d="M42.6435 19.7405C49.8166 22.8128 56.8915 21.9957 58.3982 17.9103C59.9049 13.8249 55.3193 8.00728 48.1462 4.93506L48.5392 6.34044L33.4396 10.5566L32.3587 6.73263C30.8521 10.818 35.4376 16.6356 42.6107 19.7079L42.6435 19.7405Z" fill="#DC2022"/>
<path d="M42.709 19.5446C49.7183 22.5515 56.6294 21.7671 58.1034 17.7797C59.5773 13.7924 55.09 8.10549 48.0807 5.09863L48.4409 6.37328L33.7016 10.4914L32.6863 6.86352C31.2123 10.8509 35.6996 16.5377 42.709 19.5446Z" fill="#DB2021"/>
<path d="M42.7745 19.3809C49.6201 22.3223 56.3674 21.5379 57.8086 17.6486C59.2498 13.7593 54.8935 8.20321 48.0152 5.26172L48.3427 6.40563L33.9309 10.4257L32.9483 6.99393C31.5071 10.8832 35.8634 16.4394 42.7418 19.3809H42.7745Z" fill="#DA1F22"/>
<path d="M42.84 19.2176C49.5218 22.0937 56.1054 21.342 57.5138 17.5181C58.9222 13.7268 54.6642 8.30141 47.9496 5.42529L48.2444 6.43847L34.193 10.3931L33.2758 7.1575C31.8674 10.9488 36.1254 16.3742 42.84 19.2503V19.2176Z" fill="#D91F22"/>
<path d="M42.9055 19.0543C49.4236 21.8651 55.8434 21.1134 57.2518 17.3875C58.6275 13.6616 54.4677 8.39962 47.9169 5.58887L48.1462 6.43863L34.4223 10.2952L33.5706 7.25571C32.195 10.9816 36.3547 16.2436 42.9055 19.0543Z" fill="#D81E23"/>
<path d="M42.9383 18.8906C49.2925 21.6033 55.5486 20.8843 56.9242 17.2891C58.2671 13.6613 54.2056 8.53006 47.8514 5.78467L48.0479 6.5037L34.6843 10.2623L33.8654 7.41883C32.5225 11.0467 36.584 16.1779 42.9383 18.9233V18.8906Z" fill="#D71E22"/>
<path d="M43.0038 18.7274C49.1943 21.3747 55.2866 20.6884 56.6295 17.1586C57.9396 13.6288 53.9764 8.62826 47.7859 5.94824L47.9497 6.53654L34.9136 10.1971L34.1602 7.54972C32.8501 11.0795 36.8133 16.08 43.0038 18.76V18.7274Z" fill="#D61E22"/>
<path d="M43.0693 18.5314C49.096 21.1134 55.0573 20.427 56.3347 16.9953C57.6121 13.5635 53.7471 8.66107 47.7204 6.0791L47.8514 6.53667L35.1756 10.0991L34.4877 7.64789C33.2103 11.0796 37.0753 15.9821 43.102 18.5641L43.0693 18.5314Z" fill="#D51E22"/>
<path d="M43.1348 18.3681C48.9978 20.8847 54.7952 20.2311 56.0399 16.8647C57.2845 13.531 53.5178 8.75928 47.6549 6.24268L47.7531 6.53682L35.4049 10.0012L34.7498 7.71342C33.5051 11.0471 37.2718 15.8188 43.1348 18.3355V18.3681Z" fill="#D41D21"/>
<path d="M43.2003 18.2044C48.8995 20.6557 54.5332 20.002 55.7451 16.7664C56.957 13.5307 53.3213 8.88972 47.5893 6.43848V6.60189L35.6341 9.96826L35.0446 7.87654C33.8327 11.1122 37.4684 15.7532 43.2003 18.2044Z" fill="#D31D21"/>
<path d="M43.2658 18.0412C48.8013 20.427 54.2712 19.8061 55.4503 16.6358C56.6295 13.4655 53.092 8.98792 47.5239 6.60205L35.8634 9.90305L35.3394 8.00743C34.1602 11.1777 37.6977 15.6553 43.2658 18.0412Z" fill="#D21C22"/>
<path d="M43.3313 17.8778C48.703 20.1983 54.0091 19.5773 55.1555 16.5051C56.3019 13.4329 52.8627 9.08599 47.4583 6.76548C42.0867 4.44498 36.7805 5.06596 35.6341 8.13818C34.4877 11.2104 37.9269 15.5573 43.3313 17.8778Z" fill="#D01C21"/>
<path d="M43.3968 17.7141C48.6375 19.9692 53.7471 19.3483 54.8607 16.4068C55.9744 13.4326 52.6335 9.21646 47.3928 6.96133C42.1849 4.70619 37.0426 5.32717 35.9289 8.26865C34.8153 11.2428 38.1562 15.459 43.3968 17.7141Z" fill="#CF1B22"/>
<path d="M43.4624 17.5507C48.5392 19.7078 53.4851 19.1521 54.566 16.276C55.6469 13.3999 52.4042 9.31451 47.3273 7.12474C42.2505 4.96765 37.3046 5.52326 36.2237 8.39938C35.1429 11.2755 38.3855 15.3609 43.4624 17.5507Z" fill="#CE1B22"/>
<path d="M43.5279 17.3877C48.441 19.4794 53.2231 18.9238 54.2712 16.1457C55.3193 13.3676 52.1749 9.41296 47.2946 7.28855C42.3815 5.19683 37.5994 5.75244 36.5513 8.53051C35.5031 11.3086 38.6475 15.2633 43.5279 17.3877Z" fill="#CD1A21"/>
<path d="M43.5934 17.1914C48.3427 19.2177 52.9938 18.6948 53.9764 15.9821C54.9917 13.3021 51.9456 9.47814 47.229 7.4191C42.4797 5.39274 37.8286 5.91567 36.846 8.62837C35.8307 11.3084 38.8768 15.1323 43.5934 17.1914Z" fill="#CC1A21"/>
<path d="M43.6589 17.0277C48.2444 18.9887 52.7317 18.4658 53.6816 15.8838C54.6642 13.2691 51.7164 9.57593 47.1636 7.61494C42.578 5.65394 38.0907 6.17688 37.1408 8.75885C36.1582 11.3735 39.1061 15.0667 43.6589 17.0277Z" fill="#CB1A21"/>
<path d="M43.6916 16.8646C48.1134 18.7602 52.437 18.27 53.3541 15.7534C54.3039 13.2368 51.4871 9.67431 47.0653 7.77869C42.6435 5.88306 38.32 6.37331 37.4029 8.88992C36.453 11.4065 39.2698 14.969 43.6916 16.8646Z" fill="#CA1920"/>
<path d="M43.7572 16.7011C48.0152 18.5314 52.1749 18.0412 53.0593 15.6226C53.9437 13.204 51.2578 9.77231 46.9998 7.97473C42.7418 6.14447 38.582 6.63472 37.6977 9.05328C36.8133 11.4718 39.4991 14.9036 43.7572 16.7338V16.7011Z" fill="#C91921"/>
<path d="M43.8226 16.5376C47.9169 18.3025 51.9129 17.8123 52.7645 15.4918C53.6161 13.1713 51.0285 9.87027 46.9343 8.10537C42.84 6.34048 38.844 6.83073 37.9924 9.15124C37.1408 11.4717 39.7284 14.7727 43.8226 16.5376Z" fill="#C81821"/>
<path d="M43.8882 16.3741C47.8186 18.0409 51.6509 17.616 52.4697 15.3936C53.2886 13.1711 50.7993 10.0008 46.8688 8.33399C42.9383 6.66715 39.1061 7.09203 38.2872 9.31449C37.4684 11.5369 39.9577 14.7072 43.8882 16.4067V16.3741Z" fill="#C71821"/>
<path d="M43.9536 16.211C47.7203 17.8125 51.3888 17.3876 52.2076 15.2632C52.9937 13.1388 50.6027 10.0992 46.836 8.46509C43.0693 6.86361 39.4008 7.28849 38.582 9.4129C37.7959 11.5373 40.1869 14.5768 43.9536 16.211Z" fill="#C61821"/>
<path d="M44.0192 16.0147C47.6221 17.5509 51.1268 17.1587 51.9129 15.0996C52.6663 13.0733 50.3735 10.1645 46.8033 8.62835C43.2003 7.09224 39.6957 7.48444 38.9096 9.54348C38.1562 11.5698 40.449 14.4786 44.0192 16.0147Z" fill="#C51720"/>
<path d="M44.0847 15.8513C47.5238 17.322 50.8975 16.9298 51.6181 14.9688C52.3387 13.0078 50.1442 10.2624 46.7377 8.79169C43.2986 7.32094 39.9577 7.71314 39.2043 9.67413C38.4837 11.6351 40.6782 14.3805 44.0847 15.8513Z" fill="#C41721"/>
<path d="M44.1502 15.688C47.4256 17.0934 50.6355 16.7339 51.3233 14.8709C52.0112 13.008 49.9149 10.3606 46.6723 8.98795C43.3969 7.58257 40.187 7.94209 39.4991 9.80503C38.8113 11.668 40.9076 14.3153 44.1502 15.688Z" fill="#C31720"/>
<path d="M44.2157 15.5245C47.3273 16.8645 50.3734 16.505 51.0285 14.7401C51.6836 12.9752 49.7184 10.4586 46.6067 9.15127C43.4951 7.81126 40.449 8.17077 39.7939 9.93566C39.1388 11.7006 41.1041 14.2172 44.2157 15.5245Z" fill="#C21620"/>
<path d="M44.2812 15.361C47.2291 16.6357 50.1114 16.2761 50.7338 14.6093C51.3561 12.9425 49.4891 10.5566 46.5412 9.31463C43.5934 8.03998 40.711 8.3995 40.0887 10.0663C39.4664 11.7332 41.3334 14.1191 44.2812 15.361Z" fill="#C11620"/>
<path d="M44.3467 15.1974C47.1308 16.374 49.8494 16.0799 50.4389 14.5111C51.0285 12.9423 49.2598 10.6871 46.4757 9.51054C43.6916 8.33395 40.973 8.6281 40.3835 10.1969C39.7939 11.7657 41.5626 14.0208 44.3467 15.1974Z" fill="#C01520"/>
<path d="M44.3795 15.0344C46.9998 16.1456 49.5546 15.8515 50.1114 14.3807C50.6682 12.91 48.9978 10.7856 46.3774 9.67434C43.7571 8.56311 41.2023 8.85726 40.6455 10.328C40.0887 11.7987 41.7591 13.9232 44.3795 15.0344Z" fill="#BF151F"/>
<path d="M44.445 14.8381C46.9015 15.884 49.2926 15.6225 49.8166 14.2171C50.3407 12.8117 48.7685 10.8508 46.312 9.80489C43.8554 8.75903 41.4644 9.0205 40.9403 10.4259C40.4162 11.8313 41.9884 13.7922 44.445 14.8381Z" fill="#BE1420"/>
<path d="M44.5105 14.6746C46.8032 15.6551 49.0305 15.3936 49.5218 14.0863C50.0131 12.779 48.5392 10.9487 46.2464 9.96822C43.9536 8.98772 41.7264 9.24919 41.2351 10.5565C40.7437 11.8638 42.2177 13.6941 44.5105 14.6746Z" fill="#BD1420"/>
<path d="M44.576 14.5114C46.705 15.4265 48.7685 15.1651 49.227 13.9885C49.6856 12.7792 48.3099 11.0797 46.2137 10.1646C44.0847 9.24942 42.0211 9.51089 41.5626 10.6875C41.104 11.8968 42.4797 13.5963 44.576 14.5114Z" fill="#BC1420"/>
<path d="M44.6415 14.3478C46.6067 15.1976 48.5392 14.9688 48.9323 13.8576C49.3581 12.7464 48.0807 11.1449 46.1482 10.3278C44.1829 9.47804 42.2505 9.70682 41.8574 10.8181C41.4316 11.9293 42.709 13.5308 44.6415 14.3478Z" fill="#BB131F"/>
<path d="M44.707 14.1844C46.5084 14.9688 48.2772 14.74 48.6375 13.7268C48.9978 12.7136 47.8841 11.2429 46.0826 10.4912C44.2812 9.70677 42.5125 9.93555 42.1522 10.9487C41.7591 11.9619 42.9055 13.4327 44.707 14.1844Z" fill="#BA131F"/>
<path d="M44.7725 14.0209C46.4102 14.7073 48.0152 14.5438 48.3427 13.596C48.703 12.6809 47.6549 11.3409 46.0172 10.6546C44.3795 9.9682 42.7745 10.1316 42.447 11.0794C42.0867 11.9946 43.1348 13.3346 44.7725 14.0209Z" fill="#B91220"/>
<path d="M44.838 13.8577C46.3119 14.4787 47.7531 14.3153 48.0479 13.4982C48.3754 12.6485 47.4256 11.4719 45.9516 10.8509C44.4777 10.2299 43.0365 10.3933 42.7417 11.2104C42.4142 12.0602 43.3641 13.2367 44.838 13.8577Z" fill="#B8121F"/>
<path d="M44.9035 13.6615C46.2137 14.2171 47.4911 14.0864 47.7859 13.3346C48.0479 12.5829 47.2291 11.5371 45.9189 10.9815C44.6088 10.4258 43.3313 10.5566 43.0693 11.3083C42.8073 12.06 43.6261 13.1059 44.9363 13.6615H44.9035Z" fill="#B7111E"/>
<path d="M44.9691 13.4979C46.1154 13.9882 47.2291 13.8575 47.4911 13.2038C47.7204 12.5501 46.9998 11.635 45.8534 11.1448C44.707 10.6545 43.5934 10.7852 43.3314 11.4389C43.1021 12.0926 43.8227 13.0077 44.9691 13.4979Z" fill="#B6111F"/>
<path d="M45.0345 13.3345C46.0172 13.7594 46.967 13.6287 47.1963 13.0731C47.3928 12.5175 46.7705 11.7331 45.7879 11.3082C44.8053 10.8833 43.8554 11.014 43.6261 11.5696C43.4296 12.1253 44.0519 12.9096 45.0345 13.3345Z" fill="#B5101F"/>
<path d="M45.0673 13.1712C45.8862 13.5307 46.6723 13.4327 46.8688 12.9751C47.0325 12.5175 46.5085 11.8639 45.6896 11.5043C44.8708 11.1448 44.0847 11.2429 43.8882 11.7004C43.7244 12.158 44.2485 12.8117 45.0673 13.1712Z" fill="#B4111F"/>
<path d="M45.1328 13.0077C45.7879 13.3019 46.443 13.2038 46.574 12.8443C46.705 12.4848 46.2792 11.9292 45.6569 11.6677C45.0018 11.3736 44.3467 11.4716 44.2157 11.8311C44.0847 12.1907 44.4777 12.7463 45.1328 13.0077Z" fill="#B3101E"/>
<path d="M45.1983 12.8443C45.6896 13.0404 46.1809 13.0077 46.2792 12.7136C46.3774 12.4194 46.0827 12.0272 45.5913 11.8311C45.1 11.635 44.6087 11.6677 44.5105 11.9619C44.4122 12.256 44.707 12.6482 45.1983 12.8443Z" fill="#B2101E"/>
<path d="M45.2638 12.6808C45.5914 12.8115 45.9189 12.7789 45.9844 12.5828C46.0499 12.3867 45.8534 12.1252 45.5259 11.9945C45.1983 11.8637 44.8708 11.8964 44.8053 12.0925C44.7398 12.2886 44.9363 12.5501 45.2638 12.6808Z" fill="#B10F1F"/>
<path d="M45.3293 12.4852C45.3293 12.4852 45.6568 12.5505 45.6896 12.4525C45.7224 12.3544 45.6241 12.2237 45.4603 12.1583C45.2966 12.093 45.1328 12.093 45.1 12.191C45.0673 12.2891 45.1655 12.4198 45.3293 12.4852Z" fill="#B00F1E"/>
</g>
</g>
<defs>
<filter id="filter0_f_42_7366" x="0.9198" y="32.0264" width="72.8434" height="56.1167" filterUnits="userSpaceOnUse" color-interpolation-filters="sRGB">
<feFlood flood-opacity="0" result="BackgroundImageFix"/>
<feBlend mode="normal" in="SourceGraphic" in2="BackgroundImageFix" result="shape"/>
<feGaussianBlur stdDeviation="7.5" result="effect1_foregroundBlur_42_7366"/>
</filter>
<radialGradient id="paint0_radial_42_7366" cx="0" cy="0" r="1" gradientUnits="userSpaceOnUse" gradientTransform="translate(-6.2718 29.0613) rotate(175.759) scale(2.21545 1.51259)">
<stop stop-color="#4E7368"/>
<stop offset="0.74" stop-color="#97D6CB"/>
<stop offset="0.98" stop-color="white"/>
</radialGradient>
<linearGradient id="paint1_linear_42_7366" x1="39.6127" y1="52.8021" x2="35.2308" y2="52.0916" gradientUnits="userSpaceOnUse">
<stop stop-color="#4E7368"/>
<stop offset="0.61" stop-color="#97D6CB"/>
<stop offset="0.95" stop-color="#79B0AA"/>
</linearGradient>
<linearGradient id="paint2_linear_42_7366" x1="-8.48698" y1="30.1649" x2="-35.5443" y2="24.0142" gradientUnits="userSpaceOnUse">
<stop stop-color="#B2111D"/>
<stop offset="0.29" stop-color="#F22C29"/>
<stop offset="0.76" stop-color="#970218"/>
<stop offset="1" stop-color="#D95863"/>
</linearGradient>
<radialGradient id="paint3_radial_42_7366" cx="0" cy="0" r="1" gradientUnits="userSpaceOnUse" gradientTransform="translate(68.9424 60.8784) rotate(-167.247) scale(14.9867 13.5976)">
<stop offset="0.3" stop-color="#F22C29"/>
<stop offset="0.45" stop-color="#F22C29"/>
<stop offset="0.77" stop-color="#D51C22"/>
<stop offset="1" stop-color="#970218"/>
</radialGradient>
<linearGradient id="paint4_linear_42_7366" x1="80.2421" y1="26.79" x2="66.3541" y2="30.4414" gradientUnits="userSpaceOnUse">
<stop stop-color="#CC2523"/>
<stop offset="0.28" stop-color="#970218"/>
<stop offset="0.56" stop-color="#FF2F2C"/>
<stop offset="0.71" stop-color="#970218"/>
<stop offset="0.82" stop-color="#CC2523"/>
</linearGradient>
<linearGradient id="paint5_linear_42_7366" x1="46.3292" y1="37.5098" x2="31.7456" y2="35.6416" gradientUnits="userSpaceOnUse">
<stop stop-color="#B50F1E"/>
<stop offset="0.25" stop-color="#F22C29"/>
<stop offset="0.51" stop-color="#FB433C"/>
<stop offset="0.76" stop-color="#FF2F2C"/>
<stop offset="1" stop-color="#AD0B1C"/>
</linearGradient>
<linearGradient id="paint6_linear_42_7366" x1="53.1844" y1="24.3175" x2="30.1615" y2="18.6113" gradientUnits="userSpaceOnUse">
<stop stop-color="#FF2F2C"/>
<stop offset="0.29" stop-color="#970218"/>
<stop offset="0.56" stop-color="#FF2F2C"/>
<stop offset="0.69" stop-color="#B30016"/>
<stop offset="0.82" stop-color="#FF9594"/>
<stop offset="0.89" stop-color="#970218"/>
</linearGradient>
<clipPath id="clip0_42_7366">
<rect width="49" height="62" fill="white" transform="translate(19.5192)"/>
</clipPath>
</defs>
</svg>
