<svg width="128" height="112" viewBox="0 0 128 112" fill="none" xmlns="http://www.w3.org/2000/svg">
<path d="M116 56C122.5 56 128 61.5 128 68V100C128 106.75 122.5 112 116 112H84C77.25 112 72 106.75 72 100V40C72 18 89.75 0 112 0H114C117.25 0 120 2.75 120 6V18C120 21.5 117.25 24 114 24H112C103 24 96 31.25 96 40V56H116ZM44 56C50.5 56 56 61.5 56 68V100C56 106.75 50.5 112 44 112H12C5.25 112 0 106.75 0 100V40C0 18 17.75 0 40 0H42C45.25 0 48 2.75 48 6V18C48 21.5 45.25 24 42 24H40C31 24 24 31.25 24 40V56H44Z" fill="#6EC1E4" fill-opacity="0.2"/>
</svg>
